<?xml version="1.0" encoding="UTF-8"?>
<svg width="80px" height="66px" viewBox="0 0 80 66" version="1.1" xmlns="http://www.w3.org/2000/svg" xmlns:xlink="http://www.w3.org/1999/xlink">
    <title>Combined Shape</title>
    <defs>
        <linearGradient x1="-21.202225%" y1="77.7956353%" x2="142.736673%" y2="16.1387295%" id="linearGradient-1">
            <stop stop-color="#608DCD" offset="0%"></stop>
            <stop stop-color="#616FCF" offset="100%"></stop>
        </linearGradient>
    </defs>
    <g id="Welcome" stroke="none" stroke-width="1" fill="none" fill-rule="evenodd">
        <g id="Y'allery-1920-4" transform="translate(-383.000000, -2934.000000)" fill-rule="nonzero" stroke="url(#linearGradient-1)">
            <g id="4" transform="translate(361.000000, 2930.000000)">
                <path d="M58.9625157,68.9089039 C59.1039677,68.9192245 59.2482294,68.9323841 59.3924944,68.9454991 C59.5818491,68.9627131 59.7712088,68.979858 59.9548248,68.991334 C60.0005638,68.9941927 60.0410681,69.0171766 60.0698089,69.0500233 C60.0994876,69.0839418 60.1163684,69.1294217 60.1135611,69.1772025 C60.1110337,69.2176411 60.0959439,69.2541737 60.0704992,69.2815883 C60.0470666,69.306835 60.015661,69.3239946 59.9805459,69.3311337 L59.9805459,69.3311337 L59.9242609,69.334965 L59.911195,69.334965 C59.5453621,69.313449 59.179503,69.291919 58.8136654,69.2488792 C58.7599775,69.242563 58.7132948,69.2169501 58.6821534,69.1788885 C58.6574736,69.1487243 58.6420548,69.1100748 58.6476243,69.0654136 L58.6476243,69.0654136 Z M65.0398956,68.901511 C64.8324601,69.2773482 64.5904647,69.2963372 64.3484417,69.3122279 C64.1087907,69.318772 63.9323353,69.3004448 63.8155918,69.236205 C64.3158817,68.9688318 64.6780824,68.945901 65.0398956,68.901511 Z M70.0653238,67.9927636 C70.1200996,67.9790696 70.1764075,67.9885111 70.2231825,68.0143605 C70.3209554,68.1616885 70.3123056,68.2105435 70.2893613,68.2509694 C70.2710642,68.283207 70.2423869,68.3107284 70.2099559,68.3188858 C70.018631,68.3639034 69.8329326,68.4089175 69.647235,68.4539351 C69.4793622,68.4946315 69.3114901,68.5353309 69.139351,68.576026 C69.0904928,68.5765106 69.0452792,68.572956 69.0051322,68.563042 C68.9321153,68.4625884 68.8736243,68.3903213 68.9038738,68.3408221 C68.9274705,68.3022093 68.9663221,68.2731084 69.021139,68.2593412 C69.3543878,68.1704749 69.7098585,68.0816299 70.0653238,67.9927636 Z M53.6930866,67.9679814 C54.1756822,68.0362092 54.5362953,68.1263851 54.896914,68.2165398 L54.896914,68.2165398 L54.92,68.225 L54.8532722,68.2446349 C54.3042707,68.3892376 54.0441406,68.364944 53.8184256,68.301712 L53.7575291,68.2835992 C53.7512962,68.2816514 53.7450683,68.2796809 53.7388365,68.2776946 C53.7357851,68.2771747 53.7327251,68.2765343 53.7296594,68.2757679 C53.6904802,68.2659731 53.6618029,68.2384518 53.6435059,68.2062141 C53.6182509,68.1617172 53.6103146,68.1070078 53.6235328,68.0541349 C53.6333276,68.0149557 53.6608489,67.9862784 53.6930866,67.9679814 Z M74.9682873,66.2246507 L75.0125998,66.235056 C75.1485032,66.3630767 75.1453835,66.4009114 75.1327538,66.4345906 C75.1159753,66.4793332 75.0824421,66.5182936 75.0361097,66.5399154 C75.0345685,66.5406347 75.0330217,66.5413307 75.0314721,66.542025 C75.0289658,66.5432816 75.026457,66.5445377 75.0239456,66.5457934 C74.7819121,66.6668102 74.5503756,66.7664086 74.3146692,66.8672728 C74.0882907,66.9275553 73.9627667,66.9580828 73.877283,66.9550916 C73.8032708,66.8828361 73.7475174,66.828003 73.7675944,66.7790652 C73.7819234,66.7441383 73.8065771,66.71155 73.8444366,66.6964062 C73.8471818,66.6953081 73.8499399,66.6943243 73.8527043,66.6934374 L73.8527043,66.6934374 L73.870184,66.6852594 C74.0337948,66.6089077 74.1974312,66.5380672 74.3610415,66.4671694 C74.5330955,66.3926127 74.7051235,66.3179986 74.877177,66.237707 C74.9214469,66.2170477 74.9697584,66.2204273 75.0125998,66.235056 Z M48.8699265,66.1400838 C49.3496227,66.3062508 49.6884125,66.4640632 50.0270364,66.6002481 L49.997,66.588 L49.9566624,66.5924796 C49.3782922,66.6431077 49.1244339,66.5713165 48.909785,66.4767004 L48.8520022,66.4504049 C48.8125371,66.4319879 48.7855139,66.3987349 48.7722516,66.3608428 C48.756677,66.3163437 48.7589412,66.2657409 48.7803643,66.2198343 C48.7987813,66.1803693 48.8320343,66.153346 48.8699265,66.1400838 Z M79.4083099,63.6853888 L79.4609268,63.6879113 C79.5802366,63.7814584 79.589593,63.8336673 79.5803336,63.8822792 C79.5733102,63.9191518 79.5542935,63.9544591 79.519831,63.9766136 C79.3620055,64.0780728 79.1985399,64.1851631 79.0350778,64.2922589 C78.902623,64.3790397 78.7701707,64.4658241 78.6408066,64.5495017 C78.5576147,64.563286 78.4879023,64.5708382 78.4289446,64.5699091 C78.353252,64.5174363 78.2960558,64.4767062 78.3064438,64.4293831 C78.3156466,64.3874589 78.3430346,64.3507051 78.3822669,64.3254843 C78.6973439,64.1229348 79.0123637,63.9203007 79.305376,63.7177854 C79.353452,63.6888107 79.4092387,63.6792966 79.4609268,63.6879113 Z M44.4598219,63.5757144 C44.7650072,63.7085722 44.9137525,63.8077626 45.06251,63.9069342 C45.2158504,64.0091612 45.369203,64.1113694 45.5282226,64.2135962 L45.506,64.198 L45.4281873,64.1944304 C44.8778921,64.1560998 44.6461366,64.0525829 44.450115,63.9211823 L44.3973281,63.8846824 C44.3596587,63.8536805 44.3356867,63.8118997 44.328162,63.7667516 C44.3208275,63.7227446 44.3289294,63.6766519 44.3509407,63.6345938 C44.380801,63.6028372 44.4189302,63.5825297 44.4598219,63.5757144 Z M40.5425843,60.2733354 C40.6580115,60.3217617 40.659733,60.3235647 40.66142,60.32539 L40.6719279,60.3350106 C40.8007469,60.4530947 40.9295384,60.5764634 41.0557841,60.6973393 C41.1933377,60.8290421 41.3280102,60.9579012 41.4551447,61.0734722 C41.489393,61.1048665 41.5069479,61.1479965 41.5090087,61.1912738 C41.5109553,61.2321513 41.4989585,61.274413 41.4691852,61.3068929 L41.4691852,61.3068929 C41.4616804,61.3150995 41.4599489,61.3172421 41.4581339,61.3193596 C41.4515391,61.3270535 41.4444465,61.3337097 41.4368708,61.3394005 C40.8937677,61.0037123 40.6495616,60.7788185 40.4234835,60.5527403 C40.3917969,60.5210538 40.3768319,60.4770691 40.3768319,60.4336394 C40.3768319,60.3930903 40.391531,60.3519394 40.4234835,60.319987 C40.45517,60.2883004 40.4991547,60.2733354 40.5425843,60.2733354 Z M86.7535528,56.5532627 C86.8722458,56.5826782 86.8744483,56.5844856 86.8765851,56.5863438 L86.8804148,56.5888507 C86.9221735,56.6186017 86.9440996,56.6576984 86.9509671,56.6989032 C86.959013,56.7471787 86.9490455,56.7984539 86.9246018,56.8338564 C86.708806,57.1359706 86.4934545,57.4384405 86.2581339,57.7165624 C86.2402755,57.7373972 86.2183299,57.7540553 86.1941816,57.7660372 C86.1571821,57.7429924 86.1236671,57.7201101 86.0938463,57.6971285 L86.0938463,57.6971285 L86.6526469,56.6004762 C86.6811308,56.574444 86.7167696,56.5585175 86.7535528,56.5532627 Z M37.1572597,56.3902507 L37.2017166,56.3924977 C37.5425836,56.7512938 37.7613783,57.0353664 37.9581347,57.31957 C37.9613051,57.3241495 37.9644734,57.3287343 37.9676435,57.3332803 C37.9694442,57.3354102 37.9712033,57.3375903 37.9729188,57.3398204 C38.0032052,57.3791928 38.0149518,57.4277366 38.0094642,57.4738323 C38.0076681,57.4889193 38.0039363,57.5038814 37.9981097,57.5180766 C37.9346257,57.5300525 37.8787628,57.5385592 37.8292909,57.543023 C37.4124824,57.1676818 37.2238756,56.9247348 37.0394375,56.6670789 C37.0129543,56.6221991 37.0027143,56.5719484 37.0106795,56.5241575 C37.0174976,56.4832486 37.0378195,56.4451043 37.0696059,56.4152437 C37.1116558,56.3932582 37.1577282,56.3851663 37.2017166,56.3924977 Z M61.9988978,18.4552438 C76.0846569,18.4552438 90.1634158,24.6372672 101.172127,36.975278 C90.1564165,50.1853566 76.0805756,56.3643366 62.0011022,56.3643366 C47.9153431,56.3643366 33.8365842,50.1823132 22.8278734,37.8443024 C33.8435835,24.6342239 47.9194244,18.4552438 61.9988978,18.4552438 Z M62.0023954,18.8006954 C48.0689376,18.8006954 34.1348714,24.8919046 23.2054617,37.743701 C34.1473692,49.9390159 48.0770617,56.018885 61.9976046,56.018885 C75.9310624,56.018885 89.8651286,49.9276759 100.794538,37.0758794 C89.8526308,24.8805645 75.9229383,18.8006954 62.0023954,18.8006954 Z M62,21.7979021 C66.3041108,21.7979021 70.2069579,23.5490297 73.0338592,26.375931 C75.8607605,29.2028323 77.6118881,33.1056794 77.6118881,37.4097902 C77.6118881,41.713901 75.8607605,45.6167481 73.0338592,48.4436494 C70.2069579,51.2705507 66.3041108,53.0216783 62,53.0216783 C57.6958892,53.0216783 53.7930421,51.2705507 50.9661408,48.4436494 C48.1392395,45.6167481 46.3881119,41.713901 46.3881119,37.4097902 C46.3881119,33.1056794 48.1392395,29.2028323 50.9661408,26.375931 C53.7930421,23.5490297 57.6958892,21.7979021 62,21.7979021 Z M62,22.1405594 C57.7893939,22.1405594 53.9719789,23.8523828 51.2072858,26.617076 C48.4425926,29.3817691 46.7307692,33.1991841 46.7307692,37.4097902 C46.7307692,41.6203963 48.4425926,45.4378113 51.2072858,48.2025044 C53.9719789,50.9671976 57.7893939,52.679021 62,52.679021 C66.2106061,52.679021 70.0280211,50.9671976 72.7927142,48.2025044 C75.5574074,45.4378113 77.2692308,41.6203963 77.2692308,37.4097902 C77.2692308,33.1991841 75.5574074,29.3817691 72.7927142,26.617076 C70.0280211,23.8523828 66.2106061,22.1405594 62,22.1405594 Z M74.9034965,24.3265734 C78.6233478,27.9657151 80.4202797,32.6822829 80.4202797,37.4013986 C80.4202797,42.1209032 78.6230813,46.8432385 75.0282648,50.438055 L75.0207726,50.4456222 L75.0207726,50.4456222 L75.0137518,50.4531854 L74.9856804,50.4759441 C74.9656943,50.4875769 74.9429539,50.493007 74.9202797,50.493007 C74.8751648,50.493007 74.8305341,50.4730777 74.7955114,50.438055 L74.7912874,50.4337083 L74.7872143,50.4292735 L74.7798204,50.4230313 C74.752777,50.3982416 74.7405594,50.3640812 74.7405594,50.3300699 C74.7405594,50.284955 74.7604888,50.2403243 74.7960877,50.2047244 C78.3169304,46.6723757 80.0776224,42.0355181 80.0776224,37.4013986 C80.0776224,32.9073015 78.421753,28.4161082 75.1107655,24.9374097 L74.7955114,24.6142788 L74.7800285,24.5994454 L74.7798204,24.5992551 L74.7576223,24.5716944 C74.7459895,24.5517083 74.7405594,24.5289679 74.7405594,24.5062937 C74.7405594,24.4611787 74.7604888,24.4165481 74.7955114,24.3815254 L74.7998581,24.3773013 L74.8042929,24.3732283 L74.8105351,24.3658343 C74.8353248,24.338791 74.8694853,24.3265734 74.9034965,24.3265734 Z M49.0797203,24.3265734 C49.1860826,24.3747555 49.2057301,24.3848212 49.2108671,24.388565 L49.2127857,24.3903069 L49.2201796,24.3965491 C49.247223,24.4213388 49.2594406,24.4554993 49.2594406,24.4895105 C49.2594406,24.5346255 49.2395112,24.5792561 49.2039123,24.614856 C45.6830041,28.1472704 43.9223776,32.7784862 43.9223776,37.4097902 C43.9223776,41.9007516 45.5779162,46.3916302 48.888679,49.8805994 L49.2039123,50.2047244 L49.2736236,50.2743697 C49.1424464,50.4145277 49.0189178,50.4852379 48.9711983,50.4375189 C45.3766522,46.8538654 43.5797203,42.1372975 43.5797203,37.4181818 C43.5797203,32.8416925 45.2696479,28.2625414 48.6498858,24.7114016 L48.9717352,24.3815254 L48.9862482,24.366395 C49.0115486,24.338791 49.0457091,24.3265734 49.0797203,24.3265734 Z M58.0804568,26.1073254 L58.052,26.118 L59.0443447,28.0666455 C62.6160298,26.7535278 66.2533538,27.4639859 68.970499,29.4435012 C71.6026603,31.3611034 73.3717971,34.469105 73.3825175,38.0811189 C73.3825175,41.0202664 72.1852043,43.6867099 70.2534396,45.6184746 C68.3216749,47.5502393 65.6552314,48.7475524 62.7160839,48.7475524 C59.1814448,48.7475524 56.1365148,47.0547332 54.2134132,44.5153267 C52.2792429,41.9613043 51.4795195,38.5506153 52.4587838,35.1436235 L52.5591265,34.8139551 L50.7682513,33.7949003 C50.7065357,33.7797828 50.6561471,33.7427235 50.6323716,33.69121 C50.613645,33.6506356 50.6132677,33.6030723 50.6304024,33.5573799 C51.9219486,30.1132566 54.6334181,27.378429 58.0804568,26.1073254 Z M58.0379043,26.5008376 C57.8733749,26.5643611 57.7098886,26.6317815 57.5476438,26.7028474 C54.6954772,27.9521435 52.411245,30.2473086 51.007775,33.5082471 L51.007775,33.5082471 L62.137,37.624 L62.2628442,38.0100867 L53.0044213,34.5905184 L52.8942676,34.9163367 C51.8149302,38.2841277 52.5547916,41.6735737 54.4399885,44.2096125 C56.3000321,46.7118139 59.2749942,48.3825175 62.7160839,48.3825175 C65.5588382,48.3825175 68.1318873,47.2269721 70.0011732,45.3576862 C71.8728085,43.4860509 73.038696,40.8987408 73.0622208,38.0404787 C73.0622378,34.6017994 71.3976267,31.6311371 68.8691515,29.7801692 C66.2535079,27.8653898 62.7120059,27.1476283 59.1337543,28.3630899 L59.1337543,28.3630899 L62.0061472,37.220617 C61.9202117,36.9940083 61.8423538,36.7880622 61.7742512,36.6071038 C61.0941834,34.8000666 59.5027076,30.4781968 58.5831871,27.9811256 C58.4440645,27.603321 58.3203169,27.2672692 58.2174233,26.9879865 C58.1631442,26.8406573 58.1030318,26.6775413 58.0379043,26.5008376 Z M89.5449375,52.1879677 C89.5511908,52.191541 89.5571842,52.1954261 89.5629131,52.1995908 L89.5629131,52.1995908 L89.1609499,53.2627938 C88.9979382,53.3258333 88.8505357,53.3816372 88.8159219,53.3217287 C88.8008767,53.2956889 88.8103816,53.2694775 88.8220577,53.2467985 C88.9846499,52.9619144 89.1470925,52.65934 89.2934561,52.3709884 L89.2934561,52.3709884 Z M34.5356881,51.987847 L34.5818218,51.9974265 C34.6359644,52.0461454 34.6578555,52.0661557 34.6668466,52.0746846 L34.6733627,52.0815382 C34.8361414,52.4070999 35.017668,52.7475821 35.1756067,53.0408885 C35.2004211,53.0874154 35.2084994,53.1387659 35.1948863,53.1852771 C35.1883994,53.2074409 35.176767,53.2276907 35.1608977,53.2450565 C35.1141627,53.2505014 35.0716204,53.2533251 35.0329755,53.2528411 C34.6481729,52.7928777 34.4993399,52.5150334 34.3691755,52.2361097 C34.3477524,52.1902031 34.3454882,52.1396004 34.3610628,52.0951013 C34.3743251,52.0572092 34.4013483,52.0239561 34.4408134,52.0055391 C34.4867199,51.984116 34.5373227,51.9818518 34.5818218,51.9974265 Z M34.909,20.627 C35.070034,20.6352556 35.1693666,20.6504423 35.2064557,20.7146349 C35.2215225,20.740712 35.2119687,20.7669612 35.2002662,20.7896592 C35.0182861,21.108518 34.836496,21.4495335 34.6772619,21.7680016 C34.6758208,21.7708839 34.6743792,21.7737688 34.6729664,21.7766595 C34.6724554,21.777831 34.671928,21.7789998 34.671384,21.7801657 C34.6529669,21.8196307 34.6197139,21.846654 34.5818218,21.8599162 C34.5411414,21.8741543 34.49536,21.8734839 34.4527288,21.8568918 C34.4111669,21.831445 34.3803654,21.7942942 34.3666058,21.7508985 C34.3535792,21.7098146 34.3575239,21.6641706 34.379638,21.6227067 L34.379638,21.6227067 L34.909,20.627 Z M88.9159999,20.38092 L89.6322656,21.4437184 C89.6457674,21.4744962 89.6428933,21.5090973 89.6330196,21.5394779 C89.6211595,21.5759705 89.5970668,21.6103499 89.5591866,21.6280273 C89.5525049,21.6311455 89.5457004,21.633601 89.5388349,21.6354557 C89.5338814,21.6397447 89.5284667,21.643622 89.5225599,21.6469973 C89.4895191,21.6658778 89.4507616,21.6635188 89.4171655,21.6526 C89.3806728,21.6407399 89.3462934,21.6166472 89.328616,21.5787671 L89.328616,21.5787671 L89.3227381,21.566603 C89.1633766,21.24788 88.9814228,20.9065735 88.7993268,20.5874873 C88.7766325,20.5423527 88.7696273,20.4930774 88.7827361,20.4482893 C88.8521995,20.3843709 88.8852488,20.381743 88.9159999,20.38092 L88.9159999,20.38092 Z M37.6971108,16.3198013 C37.8047921,16.2950123 37.8417844,16.3206057 37.8735297,16.3466605 C37.651006,16.9391418 37.4727255,17.1742836 37.313413,17.4044858 C37.283541,17.4463066 37.241107,17.4736669 37.1950657,17.4813405 C37.157519,17.4875983 37.117589,17.4802932 37.085275,17.4554363 C37.0432479,17.4231078 37.0191296,17.3755098 37.0109928,17.326689 C37.0036527,17.2826483 37.0082586,17.2349351 37.030643,17.2025072 C37.2464388,16.900393 37.4617903,16.5979231 37.6971108,16.3198013 Z M86.0944335,16.1260204 C86.5297632,16.4983118 86.7163643,16.7409047 86.9022242,17.0011086 C86.9046418,17.0044933 86.9070566,17.0078772 86.9094728,17.0112138 C86.9105958,17.0125629 86.9116982,17.0139399 86.9127789,17.0153449 C86.939168,17.0496508 86.9461092,17.0921023 86.9404436,17.1317619 C86.9337714,17.1784669 86.9098938,17.2233269 86.8699698,17.2540377 C86.8356639,17.2804268 86.7932124,17.287368 86.7535528,17.2817023 C86.709345,17.2753869 86.6667901,17.2536567 86.6363256,17.2174405 C86.4298913,16.9202785 86.2009651,16.6232727 85.9288423,16.3261204 C85.9050577,16.2892052 85.8961001,16.2458613 85.9010253,16.2044893 C85.9822339,16.141566 86.0418445,16.1314812 86.0944335,16.1260204 Z M82.4523556,12.3589621 L83.5138099,13.1518509 C83.5389106,13.1799102 83.5525967,13.2153119 83.5534536,13.2513008 C83.5543694,13.2897668 83.5394463,13.3282721 83.5093837,13.3583347 C83.506646,13.3610724 83.5038384,13.3636844 83.5009728,13.3661727 L83.5009728,13.3661727 L83.49436,13.3740258 C83.4677242,13.4030831 83.4307722,13.4152615 83.3945238,13.4161245 C83.3490899,13.4172063 83.3029272,13.4016029 83.2662568,13.3703393 C83.016487,13.1205977 82.7442872,12.8497311 82.4503875,12.6001086 C82.4193986,12.5691903 82.4034397,12.5281856 82.4014808,12.4870479 C82.3995342,12.4461704 82.4115311,12.4039087 82.4413043,12.3714287 L82.4413043,12.3714287 C82.4488078,12.3632239 82.4505399,12.3610804 82.4523556,12.3589621 L82.4523556,12.3589621 Z M45.2697214,9.41972273 C45.2100579,9.84828086 44.8919516,10.0529016 44.5904998,10.2616647 C44.6881661,9.8024984 44.9856256,9.60360172 45.2697214,9.41972273 Z M78.323,9.336 L78.4308666,9.36386393 C79.0480599,9.5280374 79.2863993,9.67636539 79.5219683,9.84462897 C79.5648043,9.87522609 79.5941991,9.91648037 79.6030877,9.96314524 C79.6116213,10.0079467 79.6015323,10.0547776 79.5773483,10.0968307 C79.5476401,10.134324 79.5092303,10.1599312 79.4662254,10.1681227 C79.4176914,10.1773672 79.3667759,10.1647569 79.322127,10.1360541 C79.1678599,10.0368824 79.0191146,9.93769198 78.8703571,9.83852031 C78.7170167,9.73629337 78.5636641,9.63408518 78.4046445,9.53185831 C78.3602106,9.50329367 78.3294196,9.45901663 78.3189647,9.41022721 C78.3113481,9.37468284 78.3162854,9.33603441 78.3397339,9.30320651 L78.323,9.336 Z M49.8406553,6.97668688 C49.7104539,7.39343611 49.3718323,7.5511703 49.0333125,7.70914619 C49.2002673,7.26452071 49.5290162,7.12058489 49.8406553,6.97668688 Z M73.756,6.96 L73.8853784,6.97655662 C74.5083091,7.0595287 74.7799603,7.17551323 75.0361097,7.29504961 C75.0824421,7.31667139 75.1159753,7.35563181 75.1327538,7.4003744 C75.1474826,7.43965131 75.1492774,7.48457971 75.1301252,7.5256202 C75.1085034,7.57195258 75.069543,7.60548582 75.0248004,7.62226429 C74.9855235,7.63699313 74.9405951,7.63878793 74.8995546,7.6196357 C74.5553414,7.45900286 74.2110228,7.29861992 73.8668142,7.16093648 C73.8643562,7.15995327 73.8618974,7.15897089 73.8594303,7.15801213 C73.8585131,7.15768766 73.8575966,7.15735372 73.8566806,7.15701024 C73.8147616,7.14129061 73.7849916,7.10965325 73.7689798,7.07197842 C73.7495419,7.02624213 73.7480628,6.97338334 73.7631403,6.9226835 L73.756,6.96 Z M54.748818,5.32607132 C54.6848177,5.67887253 54.4803388,5.7329909 54.2727783,5.78943 C53.9137013,5.78961188 53.6456315,5.85250238 53.5726297,5.78279446 C54.0599822,5.49407486 54.39528,5.40967922 54.748818,5.32607132 Z M68.9863931,5.38069237 C69.4928215,5.36184066 69.730673,5.42068407 69.948807,5.47731808 C70.0217013,5.49624357 70.0927132,5.51467416 70.1627943,5.53230164 C70.2092966,5.54913199 70.2470219,5.57965127 70.2696628,5.6195425 C70.2906022,5.65643572 70.2978229,5.70030679 70.2899249,5.74457313 C70.2728068,5.78916629 70.2429296,5.82532269 70.2042337,5.84728523 C70.1634855,5.87041257 70.1142251,5.87680444 70.0728873,5.86653288 C69.7348073,5.77637823 69.3741942,5.68620231 69.0135755,5.59604763 C68.9637226,5.58358441 68.9237503,5.55190185 68.8980292,5.51164268 C68.8726213,5.47187385 68.8604568,5.42327103 68.867971,5.37407483 L68.867,5.386 Z M59.9122864,4.52267526 C59.5435112,4.89163148 59.1752522,4.91493663 58.8310899,4.95797015 L58.8310899,4.95797015 L59.3649697,4.56560206 Z M63.8399903,4.55337677 C64.3888093,4.52321173 64.7428287,4.54443928 65.0968241,4.58608579 C65.150512,4.59240201 65.1971947,4.61801492 65.2283361,4.65607653 C65.2530159,4.68624075 65.2684347,4.72489019 65.2628653,4.7695514 C65.256549,4.8232393 65.2309361,4.86992201 65.1928745,4.90106333 C65.1627103,4.92574315 65.1240609,4.94116195 65.0829964,4.93602889 C64.7346867,4.89249018 64.3658408,4.86918289 64.015282,4.84734855 L64.015282,4.84734855 L63.9538365,4.84352016 C63.9073411,4.84078513 63.865738,4.82313042 63.8377416,4.79113456 C63.8068245,4.75580074 63.7940269,4.70714573 63.7969284,4.65776257 C63.7994558,4.61732391 63.8145456,4.58079131 63.8399903,4.55337677 Z" id="Combined-Shape"></path>
            </g>
        </g>
    </g>
</svg>