<?xml version="1.0" encoding="UTF-8"?>
<svg width="90px" height="50px" viewBox="0 0 90 50" version="1.1" xmlns="http://www.w3.org/2000/svg" xmlns:xlink="http://www.w3.org/1999/xlink">
    <title>Combined Shape</title>
    <defs>
        <path d="M76.6242229,0 C76.9181809,0 77.1810187,0.2023137 77.2306466,0.48088242 L77.2390429,0.57639 L77.2390429,3.26622 L80.0825729,3.26622 C80.3765309,3.26622 80.6393606,3.4218453 80.6889869,3.69107634 L80.6973829,3.78497 L80.6973829,6.53243 L83.9828129,6.53243 C84.2797401,6.53243 84.497279,6.78648785 84.5207829,7.07807463 L84.5207829,7.16646 L84.5207829,40.155241 C84.5207829,40.4492008 84.3340293,40.6964722 84.0585726,40.7429869 L83.9636029,40.750845 L37.7946829,40.750845 C38.3134329,41.500154 38.2750029,42.480018 37.3912029,43.325392 C37.9868129,43.901783 38.1405129,44.458961 38.1405129,44.862435 C38.1405129,48.013372 30.1478929,49.3582847 24.6913929,48.032585 C19.5230829,50.4918537 10.0126329,50.6455579 4.28714886,48.493698 C1.52047186,47.456194 0.00264230619,45.996004 0.00264230619,44.401322 C0.00264230619,43.767292 0.252411756,42.864279 1.34755486,41.942053 C-0.477683544,40.385798 -0.400831444,38.48371 1.34755486,37.0043 C-0.496896544,35.42883 -0.400831444,33.54596 1.34755486,32.06655 C-0.458470544,30.5103 -0.420044444,28.64663 1.32834186,27.14802 C0.463755156,26.41792 0.00264230619,25.57255 0.00264230619,24.70796 C0.00264230619,23.09407 1.53968486,21.65309 4.30636186,20.61559 C7.22781091,19.5268439 10.8347635,19.1064727 14.042792,19.1116823 L14.6045529,19.11697 L14.6045529,0.57639 C14.6045529,0.299721 14.74461,0.0541803 15.0107274,0.00783885 L15.1040829,0 L76.6242229,0 Z M25.5751929,42.633723 C20.1186929,45.899939 7.68785586,45.861512 2.32741986,42.633723 C1.75102886,43.056409 1.15542486,43.69044 1.15542486,44.401322 C1.15542486,46.495543 6.41979586,48.839533 13.9513029,48.839533 C20.7719329,48.839533 25.7288929,46.918229 26.6126929,45.016139 C26.5166329,44.76637 26.5742729,44.5166 26.7471829,44.362896 C26.7087629,43.652014 26.1515829,43.056409 25.5751929,42.633723 Z M88.9589929,47.648325 C89.2664029,47.648325 89.5353829,47.898094 89.5353829,48.224716 C89.5353829,48.5186749 89.3330692,48.7503845 89.0545004,48.7937868 L88.9589929,48.801107 L86.1154629,48.801107 C85.7888429,48.801107 85.5390729,48.551337 85.5390729,48.224716 C85.5390729,47.9307562 85.7413866,47.6990473 86.0199553,47.6556452 L86.1154629,47.648325 L88.9589929,47.648325 Z M83.7714729,47.648325 C84.0788829,47.648325 84.3478629,47.898094 84.3478629,48.224716 C84.3478629,48.5186749 84.1455492,48.7503845 83.8669804,48.7937868 L83.7714729,48.801107 L60.9463829,48.801107 C60.6197629,48.801107 60.3699929,48.551337 60.3699929,48.224716 C60.3699929,47.9307562 60.5723066,47.6990473 60.8508753,47.6556452 L60.9463829,47.648325 L83.7714729,47.648325 Z M51.1477429,47.456194 C51.4551429,47.456194 51.7241329,47.705964 51.7241329,48.032585 C51.7241329,48.3265448 51.5218192,48.5582537 51.2432504,48.6016558 L51.1477429,48.608976 L40.3308029,48.608976 C40.0041829,48.608976 39.7544129,48.359207 39.7544129,48.032585 C39.7544129,47.7386261 39.9567266,47.5069165 40.2352953,47.4635142 L40.3308029,47.456194 L51.1477429,47.456194 Z M36.4497729,44.017061 C34.7398129,44.9585 31.9731329,45.458039 29.3025229,45.458039 C28.7645529,45.458039 28.2265929,45.438826 27.6886229,45.4004 C27.4196429,46.015217 26.9201029,46.610821 26.1900029,47.148786 C27.1698729,47.30249 28.2265929,47.379342 29.3025229,47.379342 C34.0865629,47.379342 37.0069429,45.899939 37.0069429,44.843222 C37.0069429,44.5166 36.7187529,44.209192 36.4497729,44.017061 Z M74.6068529,44.574239 C74.9334729,44.574239 75.1832429,44.824009 75.1832429,45.15063 C75.1832429,45.4445898 74.9809292,45.6762987 74.7023604,45.7197008 L74.6068529,45.727021 L41.6180729,45.727021 C41.2914529,45.727021 41.0416829,45.477252 41.0416829,45.15063 C41.0416829,44.8566711 41.2439966,44.6249615 41.5225653,44.5815592 L41.6180729,44.574239 L74.6068529,44.574239 Z M36.4689829,40.942976 C34.7590229,41.903627 31.9731329,42.403166 29.3025229,42.403166 C28.5532129,42.403166 27.8039029,42.36474 27.0738029,42.287888 C26.9969529,42.287888 26.9201029,42.268675 26.8624629,42.230249 C27.6117729,42.979557 27.8423329,43.69044 27.8807529,44.247618 C28.3610829,44.286044 28.8221929,44.305257 29.3025229,44.305257 C34.0865629,44.305257 37.0069429,42.825853 37.0069429,41.769136 C37.0069429,41.442515 36.7379629,41.154319 36.4689829,40.942976 Z M25.5751929,37.69597 C20.2339629,40.885337 7.84155986,41.000615 2.32741986,37.69597 C1.75102886,38.13787 1.15542486,38.75269 1.15542486,39.48279 C1.15542486,41.577006 6.41979586,43.920996 13.9513029,43.920996 C21.5020229,43.920996 26.7471829,41.577006 26.7471829,39.48279 C26.7471829,39.30987 26.7087629,39.13695 26.6511229,38.98325 C26.6126929,38.92561 26.5934829,38.86797 26.5742729,38.81033 C26.3629229,38.36843 25.9786629,37.98417 25.5751929,37.69597 Z M36.4689829,37.8881 C34.7590229,38.84875 31.9731329,39.34829 29.3025229,39.34829 C28.8221929,39.34829 28.3418629,39.34829 27.8807529,39.30987 C27.9191829,39.98232 27.6886229,40.597141 27.2851529,41.154319 C27.9576029,41.211958 28.6300629,41.250384 29.3025229,41.250384 C34.0865629,41.250384 37.0069429,39.77098 37.0069429,38.71426 C37.0069429,38.38764 36.7379629,38.09945 36.4689829,37.8881 Z M83.3872129,7.68521 L23.0582829,7.68521 L23.0582829,20.44267 C23.2504129,20.50031 23.3849029,20.57716 23.5578229,20.6348 C24.23302,20.88182 24.7952947,21.1711951 25.3051395,21.4666146 L25.5559729,21.61466 L25.5559729,16.19659 C25.5559729,15.88918 25.8441729,15.60098 26.1707929,15.60098 C28.8029829,15.60098 30.9932629,13.42991 30.9932629,10.79773 C30.9932629,10.521061 31.1955766,10.244392 31.4741453,10.1918249 L31.5696529,10.18291 L74.8758329,10.18291 C75.2024629,10.18291 75.4714429,10.4711 75.4714429,10.79773 C75.4714429,13.42991 77.6425129,15.6202 80.2747029,15.6202 C80.5686609,15.6202 80.8314906,15.8225137 80.8811169,16.1010824 L80.8895129,16.19659 L80.8895129,31.1059 C80.8895129,31.43252 80.6013229,31.70151 80.2747029,31.70151 C77.6425129,31.70151 75.4714429,33.85337 75.4714429,36.48555 C75.4714429,36.762219 75.2691292,37.0233279 74.9905604,37.072783 L74.8950529,37.08116 L37.5833329,37.08116 C37.5257029,37.08116 37.4872729,37.15801 37.4296329,37.21565 C38.0252329,37.77283 38.1597329,38.31079 38.1597329,38.71426 C38.1597329,38.9777543 38.1032643,39.2835963 38.002437,39.4865938 L37.9483829,39.57885 L83.3872129,39.57885 L83.3872129,7.68521 Z M25.5559729,32.75822 C20.1763329,35.98601 7.78392086,36.02444 2.32741986,32.75822 C1.75102886,33.20012 1.15542486,33.81494 1.15542486,34.52582 C1.15542486,36.62004 6.41979586,38.96403 13.9513029,38.96403 C21.5020229,38.96403 26.7471829,36.62004 26.7471829,34.52582 C26.7471829,33.81494 26.1323729,33.18091 25.5559729,32.75822 Z M36.4881929,34.87166 C34.7782329,35.83231 31.9923429,36.33185 29.3025229,36.33185 C28.6108529,36.33185 27.9383929,36.29342 27.2851529,36.23578 C27.0930229,36.48555 26.8432529,36.75453 26.5358429,37.02352 C26.9777429,37.40778 27.2851529,37.77283 27.4964929,38.13787 C28.0921029,38.19551 28.6877029,38.21472 29.2833029,38.21472 C34.0673529,38.21472 36.9877329,36.73532 36.9877329,35.6786 C36.9877329,35.3712 36.7379629,35.083 36.4881929,34.87166 Z M74.3570829,11.3549 L32.1268329,11.3549 C31.8653245,14.1568056 29.7151233,16.3775734 26.9474725,16.7459693 L26.7087629,16.77298 L26.7087629,22.49846 C27.4772829,23.19013 27.8423329,23.95865 27.8423329,24.74639 C27.8423329,25.61097 27.4388529,26.43713 26.5742729,27.18644 C27.3427929,27.83969 27.6886229,28.49293 27.8231129,29.03089 C28.3226529,28.99247 28.8221929,28.97326 29.3025229,28.97326 C33.6062429,28.97326 38.1597329,30.26053 38.1597329,32.64294 C38.1597329,33.21934 37.8907429,33.71887 37.4488429,34.16077 C38.0060229,34.71795 38.1597329,35.29434 38.1597329,35.6786 C38.1597329,35.74265 38.1463856,35.7399778 38.1419366,35.8484942 L38.1405129,35.92837 L74.3570829,35.92837 C74.6183777,33.1287614 76.7290272,30.9455981 79.4913388,30.5765451 L79.7367329,30.54872 L79.7367329,16.77298 C76.8547829,16.504 74.6260629,14.23686 74.3570829,11.3549 Z M29.3025229,30.10682 C28.8221929,30.10682 28.3226529,30.12604 27.8231129,30.16446 C27.7654729,30.47187 27.6117729,30.79849 27.4196429,31.06748 C27.2275129,31.3941 26.9393129,31.72072 26.5358429,32.06655 C27.4772829,32.85429 28.0921029,33.91101 27.8231129,35.10221 C28.3034429,35.12143 28.8029829,35.14064 29.3025229,35.14064 C34.0865629,35.14064 37.0069429,33.68045 37.0069429,32.62373 C37.0069429,31.58623 34.0673529,30.10682 29.3025229,30.10682 Z M25.5944029,27.8589 C20.1379029,31.14433 7.64942986,31.1059 2.28899386,27.8589 C1.73181586,28.28159 1.15542486,28.8964 1.15542486,29.60729 C1.15542486,31.70151 6.41979586,34.0455 13.9513029,34.0455 C21.0024929,34.0455 26.0555129,31.9897 26.6703329,30.01076 C26.9393129,29.14617 26.3245029,28.41608 25.5944029,27.8589 Z M53.2419629,14.77482 C58.1412829,14.77482 62.1183829,18.75192 62.1183829,23.65125 C62.1183829,28.55057 58.1412829,32.52767 53.2419629,32.52767 C48.3426329,32.52767 44.3655429,28.55057 44.3655429,23.65125 C44.3655429,18.75192 48.3426329,14.77482 53.2419629,14.77482 Z M53.2419629,15.92761 C48.9766629,15.92761 45.5183229,19.38595 45.5183229,23.65125 C45.5183229,27.91654 48.9766629,31.37488 53.2419629,31.37488 C57.5072529,31.37488 60.9656029,27.91654 60.9656029,23.65125 C60.9656029,19.38595 57.5072529,15.92761 53.2419629,15.92761 Z M13.9513029,20.28896 C6.41979586,20.28896 1.15542486,22.61374 1.15542486,24.72717 C1.15542486,26.8214 6.41979586,29.16539 13.9513029,29.16539 C21.5020229,29.16539 26.7471829,26.8214 26.7471829,24.72717 C26.7471829,22.63295 21.4828129,20.28896 13.9513029,20.28896 Z M53.6262229,18.82877 L53.6262229,19.36674 C54.7292723,19.4933188 55.4068479,20.113455 55.6429259,21.0669686 L55.6820129,21.24962 L54.2986729,21.42253 C54.2132862,21.0468144 54.0519924,20.7773547 53.7473254,20.6141648 L53.6262229,20.55795 L53.6262229,22.67138 C54.5868729,22.90194 55.1056229,23.20935 55.4130329,23.57439 C55.7204429,23.95865 55.8933629,24.43898 55.8933629,25.01537 C55.8933629,25.66861 55.7012329,26.22579 55.2977529,26.66769 C54.9346299,27.0654 54.4936902,27.3230448 53.8488824,27.4546358 L53.6262229,27.49385 L53.6262229,28.43529 L52.8577029,28.43529 L52.8577029,27.49385 C52.2813129,27.417 51.7241329,27.18644 51.3398729,26.80218 C50.981224,26.4606156 50.7592111,25.9976091 50.6333379,25.3996549 L50.5905629,25.16907 L51.9931129,24.99616 C52.0507529,25.28435 52.1660329,25.53412 52.3197329,25.74547 C52.4427009,25.914542 52.5779569,26.0467244 52.7255111,26.1518578 L52.8384829,26.22579 L52.8384829,23.95865 C52.0699629,23.74731 51.6280629,23.4399 51.3014429,23.03643 C50.9748229,22.61374 50.8211129,22.1142 50.8211129,21.53781 C50.8211129,20.3667338 51.5704734,19.5616168 52.6874474,19.371417 L52.8577029,19.34753 L52.8577029,18.82877 L53.6262229,18.82877 Z M53.6070029,24.17 L53.6070029,26.28343 C53.9912729,26.22579 54.1065429,26.0913 54.2794629,25.89917 C54.6253029,25.4957 54.6253029,24.95773 54.3178929,24.57347 C54.1834029,24.40055 53.9912729,24.26606 53.6070029,24.17 Z M52.8384829,20.51952 C52.1083929,20.80772 52.0123229,21.5186 52.3197329,21.99892 C52.4119569,22.121888 52.5656593,22.2325552 52.7218218,22.3309267 L52.8384829,22.4024 L52.8384829,20.51952 Z M79.5446029,4.419 L19.2156729,4.419 L19.2156729,19.52044 C19.4078029,19.53966 19.5807229,19.57808 19.7728529,19.61651 C19.7920629,19.61651 19.7920629,19.63572 19.8304929,19.63572 C20.7815345,19.8118392 21.0545224,19.9072412 21.7149729,20.0551033 L21.9055029,20.09683 L21.9055029,7.16646 C21.9055029,6.872502 22.1078166,6.5941041 22.3863853,6.5413641 L22.4818929,6.53243 L79.5446029,6.53243 L79.5446029,4.419 Z M76.0862529,1.15278 L15.7573329,1.15278 L15.7573329,19.1554 C16.3337229,19.184215 16.9101129,19.2238412 17.4865029,19.282383 L18.0628929,19.34753 L18.0628929,3.78497 C18.0628929,3.51171667 18.2146993,3.31437049 18.4778297,3.27388929 L18.5816429,3.26622 L76.0862529,3.26622 L76.0862529,1.15278 Z" id="path-1"></path>
        <linearGradient x1="49.1312023%" y1="46.5939456%" x2="49.5261348%" y2="46.2110351%" id="linearGradient-3">
            <stop stop-color="#608DCD" offset="0%"></stop>
            <stop stop-color="#626BD0" offset="100%"></stop>
        </linearGradient>
    </defs>
    <g id="Welcome" stroke="none" stroke-width="1" fill="none" fill-rule="evenodd">
        <g id="Y'allery-1920-4" transform="translate(-789.000000, -2727.000000)">
            <g id="4" transform="translate(361.000000, 2727.000000)">
                <g id="Combined-Shape" transform="translate(428.000000, -0.000000)">
                    <mask id="mask-2" fill="white">
                        <use xlink:href="#path-1"></use>
                    </mask>
                    <g id="Clip-2"></g>
                    <polygon id="Fill-1" fill="url(#linearGradient-3)" mask="url(#mask-2)" points="-775.986247 3438.1 1144.01375 3438.1 1144.01375 -2938.9 -775.986247 -2938.9"></polygon>
                </g>
            </g>
        </g>
    </g>
</svg>