<?xml version="1.0" encoding="UTF-8"?>
<svg width="66px" height="69px" viewBox="0 0 66 69" version="1.1" xmlns="http://www.w3.org/2000/svg" xmlns:xlink="http://www.w3.org/1999/xlink">
    <title>Combined Shape</title>
    <defs>
        <linearGradient x1="-15.6427573%" y1="91.0434028%" x2="135.495796%" y2="0%" id="linearGradient-1">
            <stop stop-color="#608DCD" offset="0%"></stop>
            <stop stop-color="#616FCF" offset="100%"></stop>
        </linearGradient>
    </defs>
    <g id="Welcome" stroke="none" stroke-width="1" fill="none" fill-rule="evenodd">
        <g id="Y'allery-1920-4" transform="translate(-1196.000000, -2932.000000)" fill-rule="nonzero" stroke="url(#linearGradient-1)">
            <g id="4" transform="translate(361.000000, 2930.000000)">
                <path d="M888.574302,2.5 C889.599079,2.5 890.531262,2.90376429 891.220404,3.56032516 C891.857216,4.16703086 892.286777,4.98966131 892.389638,5.90965355 L892.408478,6.14161137 L892.41349,66.1957334 C892.41349,67.2205132 892.009724,68.1526987 891.353153,68.8418404 C890.746437,69.478653 889.92379,69.9082123 889.00377,70.0110709 L888.771805,70.0299102 L847.439642,70.034922 C846.414856,70.034922 845.482666,69.631168 844.793522,68.9746061 C844.156718,68.3679089 843.727164,67.5452848 843.624305,66.6252787 L843.605465,66.393317 L843.600453,6.33918864 C843.600453,5.31440342 844.004207,4.38221262 844.660769,3.69306905 C845.267468,3.05626283 846.090095,2.62670858 847.010105,2.52385099 L847.242067,2.50501189 L888.574302,2.5 Z M888.57423,2.92781088 L847.439642,2.92781088 L847.212003,2.935319 C846.384264,2.9901431 845.635995,3.34261403 845.071362,3.90724633 C844.472743,4.50586582 844.079,5.34542554 844.028264,6.32584263 L844.028264,6.32584263 L844.028264,66.1957334 L844.035772,66.4233724 C844.090596,67.2511113 844.443067,67.9993803 845.007699,68.5640126 C845.606319,69.1626321 846.445879,69.5563749 847.426296,69.6071112 L847.426296,69.6071112 L888.57423,69.6071112 L888.801869,69.599603 C889.629608,69.5447789 890.377877,69.192308 890.94251,68.6276757 C891.541129,68.0290562 891.934872,67.1894965 891.985608,66.2090794 L891.985608,66.2090794 L891.985608,6.33918864 L891.978887,6.1237822 C891.925384,5.26890554 891.555684,4.49824578 890.985429,3.92799023 C890.367652,3.31021337 889.514679,2.92781088 888.57423,2.92781088 L888.57423,2.92781088 Z M868.006972,62.8881187 C868.656417,62.8881187 869.245199,63.1525101 869.6717,63.5790118 C870.098202,64.0055135 870.362593,64.5942956 870.362593,65.2437405 C870.362593,65.8931854 870.098202,66.4819675 869.6717,66.9084692 C869.245199,67.3349709 868.656417,67.5993623 868.006972,67.5993623 C867.357527,67.5993623 866.768745,67.3349709 866.342243,66.9084692 C865.915741,66.4819675 865.65135,65.8931854 865.65135,65.2437405 C865.65135,64.5942956 865.915741,64.0055135 866.342243,63.5790118 C866.768745,63.1525101 867.357527,62.8881187 868.006972,62.8881187 Z M868.006972,63.3159296 C867.475378,63.3159296 866.993316,63.5319006 866.644224,63.8809925 C866.295132,64.2300845 866.079161,64.7121467 866.079161,65.2437405 C866.079161,65.7753343 866.295132,66.2573965 866.644224,66.6064885 C866.993316,66.9555804 867.475378,67.1715514 868.006972,67.1715514 C868.538566,67.1715514 869.020628,66.9555804 869.36972,66.6064885 C869.718812,66.2573965 869.934783,65.7753343 869.934783,65.2437405 C869.934783,64.7121467 869.718812,64.2300845 869.36972,63.8809925 C869.020628,63.5319006 868.538566,63.3159296 868.006972,63.3159296 Z M888.130058,9.52782791 L888.130058,60.8799415 L847.884243,60.8799415 L847.884243,9.52782791 L888.130058,9.52782791 Z M887.702247,9.95571018 L848.312053,9.95571018 L848.312053,60.452202 L887.702247,60.452202 L887.702247,9.95571018 Z M871.728456,28.9 C872.658828,28.9 873.55986,29.1617787 874.334773,29.6299371 C875.104851,30.0951747 875.750659,30.7644778 876.175653,31.5849409 C876.925234,33.0320296 876.974564,34.9377201 875.87212,37.0116127 C874.121254,39.9700866 871.268378,42.3219489 868.365644,44.3594898 C865.613215,42.0654962 861.791381,38.9103779 860.431668,35.7381624 C859.833744,34.3516704 859.88192,32.900566 860.565011,31.6065182 C860.980425,30.9417186 862.252662,28.9024682 865.022831,28.9024682 C866.147845,28.9024682 867.210853,29.2655296 868.073952,29.9370269 C869.570698,29.2666908 870.631843,28.9 871.728456,28.9 Z M871.728456,29.3518582 C870.130092,29.3518582 869.113687,30.1561825 868.250321,30.6956503 C867.680796,30.1424478 866.659424,29.3543264 865.022831,29.3543264 C863.424279,29.3543264 862.039678,30.169471 861.232396,31.3658249 C860.443618,32.5347586 860.202363,34.0662651 860.846804,35.5606039 C861.754391,37.6785099 864.375334,40.5882217 869.078607,43.2238269 C871.181652,41.6545082 873.420366,39.9748058 875.262215,37.1750261 C876.450995,35.1693865 876.469437,33.3774804 875.875573,32.0250129 C875.516372,31.2069687 874.928137,30.5428488 874.210561,30.0810674 C873.48126,29.6117405 872.618358,29.3518582 871.728456,29.3518582 Z M858.083991,13.0973551 L851.881581,13.525166 L851.881581,16.8123436 L851.45377,13.0973551 L858.083991,13.0973551 Z M896.056583,22.4286703 L896.484393,50.1069656 L896.056583,50.1069656 L896.056583,22.4286703 Z M839.530264,22.4286703 L839.958075,50.1069656 L839.530264,50.1069656 L839.530264,22.4286703 Z M899.981635,26.6093005 L900.409446,45.9263354 L899.981635,45.9263354 L899.981635,26.6093005 Z M835.604498,26.6093005 L836.032309,45.9263354 L835.604498,45.9263354 L835.604498,26.6093005 Z" id="Combined-Shape"></path>
            </g>
        </g>
    </g>
</svg>