<svg width="80" height="66" fill="none" xmlns="http://www.w3.org/2000/svg"><mask id="path-1-inside-1" fill="#fff"><path fill-rule="evenodd" clip-rule="evenodd" d="M41.984 1.346l-.06-.003a.661.661 0 01-.626-.716.665.665 0 01.671-.627h.045c.38.022.76.045 1.141.09.38.044.65.38.604.738a.673.673 0 01-.738.604 17.03 17.03 0 00-1.037-.086zM12.23 47.552a.67.67 0 01.896.314c.156.313.335.649.492.94a.667.667 0 01-.269.917.514.514 0 01-.313.09.67.67 0 01-.582-.358c-.201-.336-.38-.672-.537-1.007a.67.67 0 01.313-.896zm3.491 4.61a.699.699 0 00-.94-.156.699.699 0 00-.156.94c.224.313.447.604.694.917.134.179.335.246.537.246a.67.67 0 00.402-.134.672.672 0 00.112-.94c-.201-.29-.425-.582-.649-.873zm7.62 7.329c.15.1.302.201.459.302.313.179.402.604.156.918a.638.638 0 01-.56.313.743.743 0 01-.357-.112 22.823 22.823 0 01-.94-.627.699.699 0 01-.157-.94.698.698 0 01.94-.156c.157.1.308.201.459.302zm9.678 4.24a72.317 72.317 0 01-1.052-.268c-.358-.09-.738.112-.828.47-.089.358.112.738.47.828.358.112.739.201 1.12.29a.382.382 0 00.156.023.649.649 0 00.649-.515.712.712 0 00-.515-.828zm4.968.761a19.682 19.682 0 01-.548-.044c-.185-.017-.37-.034-.549-.045-.38-.045-.693.224-.738.604-.045.358.224.694.604.739.38.044.761.067 1.142.089h.044a.665.665 0 00.672-.627.676.676 0 00-.627-.716zM19.01 55.966a.669.669 0 00-.94 0 .669.669 0 000 .94c.268.269.56.537.828.784a.71.71 0 00.448.178.635.635 0 00.492-.223.67.67 0 00-.045-.94 21.33 21.33 0 01-.391-.369c-.13-.123-.26-.249-.392-.37zm8.212 5.73c.336.156.672.312 1.007.447a.684.684 0 01.358.872.689.689 0 01-.626.403c-.09 0-.18 0-.269-.045a48.396 48.396 0 01-1.051-.47.67.67 0 11.581-1.208zM57.03 59.3c-.29.201-.604.402-.917.604a.657.657 0 00-.202.917.665.665 0 00.56.314.743.743 0 00.358-.112c.156-.1.318-.207.48-.313h.001c.162-.107.325-.213.481-.314.313-.201.38-.626.18-.94-.202-.29-.627-.358-.94-.156zm3.088-2.44l.806-.738a.668.668 0 01.94 0c.246.246.246.671-.022.94-.269.268-.538.537-.828.783a.711.711 0 01-.448.18.635.635 0 01-.492-.225.67.67 0 01.044-.94zM43 64.403c-.358.045-.717.067-1.097.09a.661.661 0 00-.627.715.665.665 0 00.672.627h.045c.38-.022.76-.045 1.14-.09.359-.044.65-.358.605-.738-.022-.358-.358-.627-.738-.604zm4.945-.895a.712.712 0 01.85.47c.09.358-.111.738-.47.828-.19.044-.375.09-.56.134-.184.045-.368.09-.558.134-.045.023-.112.023-.157.023a.667.667 0 01-.649-.515.667.667 0 01.492-.806c.336-.09.694-.179 1.052-.268zm19.849-15.754c-.336-.157-.739-.045-.895.29-.157.314-.336.65-.515.963a.667.667 0 00.269.918.613.613 0 00.313.089c.246 0 .47-.134.582-.358l.537-1.007c.157-.313.022-.716-.291-.895zm-3.558 4.565a.676.676 0 01.94-.134.68.68 0 01.157.94 14.31 14.31 0 01-.694.917.715.715 0 01-.537.246c-.157 0-.291-.067-.425-.156a.673.673 0 01-.112-.94l.671-.873zm-11.57 9.466c-.167.078-.335.15-.503.223-.168.073-.336.146-.503.224-.336.134-.493.537-.358.873a.689.689 0 00.626.403c.09 0 .18-.023.269-.045l.282-.122c.257-.11.507-.217.77-.348a.68.68 0 00.335-.895c-.179-.313-.582-.47-.917-.313zM46.893 2.08c.358.09.716.18 1.052.269a.687.687 0 00.828-.47.687.687 0 00-.47-.828 25.64 25.64 0 01-.294-.076c-.269-.07-.547-.144-.825-.193C47.14.76 47.072.76 47.028.76a.649.649 0 00-.65.515.7.7 0 00.515.805zm-18.64 1.634c-.336.134-.672.29-1.007.447a.69.69 0 01-.895-.313.67.67 0 01.313-.895c.358-.157.716-.313 1.052-.47.09-.022.179-.045.268-.045a.69.69 0 01.627.403.684.684 0 01-.358.873zm4.085-1.425c.225-.061.446-.122.659-.164a.667.667 0 00.492-.806.667.667 0 00-.649-.514c-.045 0-.112 0-.157.022-.38.09-.738.179-1.118.29-.358.09-.56.47-.47.829.134.336.492.56.85.447.131-.032.263-.068.393-.104zm-8.539 3.774c-.313.202-.626.403-.917.605-.313.223-.716.156-.895-.157-.224-.313-.157-.739.157-.94.29-.201.626-.425.94-.627a.676.676 0 01.358-.111c.223 0 .425.111.559.313.201.29.112.716-.201.917zm27.883-2.439c.336.134.671.291 1.007.448a.68.68 0 00.895-.336.68.68 0 00-.335-.895 48.556 48.556 0 00-1.052-.47c-.09-.045-.18-.045-.269-.045a.689.689 0 00-.626.403c-.135.358.022.76.38.895zm16.09 14.456a.65.65 0 01-.895-.29 20.009 20.009 0 00-.515-.963.667.667 0 01.268-.917.514.514 0 01.314-.09.67.67 0 01.582.358l.536 1.007a.65.65 0 01-.29.895zm-3.536-4.565a.676.676 0 00.94.134.676.676 0 00.134-.94 24.794 24.794 0 00-.694-.917.715.715 0 00-.537-.246.628.628 0 00-.425.156.673.673 0 00-.112.94c.269.291.493.582.694.873zm-7.642-7.261c-.151-.101-.302-.202-.459-.303-.313-.2-.425-.626-.201-.94a.638.638 0 01.56-.313c.111 0 .245.045.357.112.336.202.65.403.963.627.313.224.38.626.179.94a.682.682 0 01-.94.179c-.157-.101-.308-.202-.459-.302zm4.33 3.48c.269.245.694.245.94-.023a.649.649 0 00-.022-.94 13.673 13.673 0 00-.414-.392c-.14-.128-.28-.257-.414-.391a.71.71 0 00-.448-.18.635.635 0 00-.492.225.67.67 0 00.044.94c.291.246.56.514.806.76zM37.926 1.368c-.34.021-.698.043-1.037.086-.38.044-.693-.224-.738-.605a.694.694 0 01.604-.738c.19-.011.38-.028.57-.045.191-.017.381-.033.572-.045h.044c.358 0 .65.269.672.627a.661.661 0 01-.627.716l-.06.004zM19.01 9.89c.134-.123.268-.252.403-.38.134-.13.268-.258.402-.38a.67.67 0 00.045-.94.718.718 0 00-.492-.225.71.71 0 00-.448.18c-.29.246-.56.514-.828.783a.649.649 0 000 .94c.224.268.65.29.918.022zm-3.29 3.804a.66.66 0 01-.94.157.702.702 0 01-.156-.94c.224-.314.447-.627.694-.918a.715.715 0 01.537-.246.67.67 0 01.402.135.673.673 0 01.112.94c-.224.29-.447.581-.649.872zm-3.49 4.61a.67.67 0 00.894-.313c.157-.314.336-.65.515-.963a.667.667 0 00-.268-.917l-.03-.012-.018-.008a.68.68 0 00-.266-.07.645.645 0 00-.582.358l-.537 1.007a.675.675 0 00.291.918zm67.602 15.552a.68.68 0 000-.895C57.522 7.63 22.501 7.607.168 32.961a.68.68 0 000 .895c22.31 25.332 57.331 25.354 79.664 0zM1.578 33.41c21.639-24.123 55.16-24.168 76.844 0-21.639 24.123-55.16 24.168-76.844 0zm22.31 0c0-8.884 7.228-16.112 16.112-16.112 8.884 0 16.112 7.228 16.112 16.112 0 8.884-7.228 16.112-16.112 16.112-8.884 0-16.112-7.228-16.112-16.112zm1.343 0c0 8.145 6.623 14.769 14.769 14.769 8.145 0 14.77-6.624 14.77-14.77 0-8.145-6.625-14.768-14.77-14.768S25.23 25.264 25.23 33.41zm11.547-11.368l.514 1.41c7.228-2.35 14.568 3.088 14.59 10.63 0 6.153-5.012 11.166-11.166 11.166-7.496 0-12.89-7.273-10.674-14.456l-1.477-.538a.67.67 0 01-.403-.872c1.343-3.58 4.163-6.423 7.743-7.743.358-.134.738.067.873.403zm-1.03 1.119a11.797 11.797 0 00-6.064 6.064l9.622 3.558c-.68-1.808-2.272-6.13-3.192-8.629l-.366-.993zm4.968 20.721c-6.534 0-11.3-6.332-9.399-12.643l8.907 3.29c.537.201 1.052-.336.873-.873l-3.312-8.973c6.355-2.014 12.777 2.774 12.777 9.353-.044 5.438-4.43 9.846-9.846 9.846zM27.558 20.968a.649.649 0 000-.94.649.649 0 00-.94 0c-7.384 7.385-7.384 19.401 0 26.764a.682.682 0 00.47.201c.582 0 .895-.716.47-1.141-6.848-6.87-6.848-18.014 0-24.884zm24.884 0a.649.649 0 010-.94.649.649 0 01.94 0c7.384 7.362 7.384 19.379 0 26.764a.649.649 0 01-.94 0 .649.649 0 010-.94c6.847-6.87 6.847-18.037 0-24.884z"/></mask><path d="M41.925 1.343l.062-.998h-.004l-.058.998zm.06.003l-.063.998.062-.998zm-.687-.72L40.3.565v.004l.998.059zM42.014 0l.059-.998-.03-.002h-.029v1zm1.141.09l-.117.993.117-.993zm.604.738l-.992-.124V.71l.992.117zm-.738.604l-.124.992.124-.992zM13.124 47.866l-.906.423.006.012.006.012.894-.447zm-.895-.314l.423.907-.423-.907zm1.388 1.254l.882-.471-.002-.004-.88.475zm-.269.917l-.47-.882-.068.036-.062.046.6.8zm-.895-.268l.895-.448-.018-.034-.02-.033-.857.515zm-.537-1.007l-.906.422.906-.422zm2.864 3.558l-.54-.842-.036.023-.033.026.61.793zm.94.156l.793-.61-.793.61zm-1.096.784l-.841.54.013.02.014.02.814-.58zm.694.917l.8-.6-.007-.01-.007-.008-.786.618zm.94.112l-.61-.793-.008.006-.007.006.624.78zm.111-.94l-.822.57.014.02.016.02.792-.61zm7.43 6.758l-.541.841.022.014.022.013.497-.868zm-.46-.302l.556-.832-.555.832zm.616 1.22l-.786-.618-.05.062-.038.07.874.486zm-.917.2l-.541.842.013.008.013.008.515-.857zm-.94-.626l-.61.793.014.01.015.011.58-.814zm-.157-.94l-.792-.61-.026.034-.023.036.841.54zm.94-.156l.54-.841-.54.84zm9.085 4.274l.258-.966-.007-.002-.008-.002-.243.97zm1.052.268l.243-.97-.243.97zm-1.88.202l.97.242-.97-.242zm.47.828l.299-.955-.028-.008-.028-.007-.243.97zm1.12.29l.447-.894-.105-.052-.114-.027-.229.974zm.805-.492l.978.21.003-.018.004-.018-.985-.174zm3.905-.111l-.09.995.09-.995zm.548.044l-.062.998.062-.998zm-1.096-.09l-.117.994.027.003.027.002.063-.998zm-.739.605l.992.124.001-.007-.993-.117zm.604.739l-.117.993.117-.993zm1.142.089l-.06.998.03.002h.03v-1zm.716-.627l.998.063v-.004l-.998-.059zM18.07 55.966l.707.707-.707-.707zm.94 0l-.707.707.015.016.016.015.676-.738zm-.94.94l-.707.707.707-.707zm.828.784l-.676.737.018.016.018.015.64-.768zm.94-.045l-.737-.676-.012.012-.01.013.759.65zm-.045-.94l.676-.737-.003-.003-.673.74zm-.391-.369l-.692.723.692-.723zm8.827 5.807l.423-.907-.025-.011-.026-.01-.372.928zm.358.872l.91.414.01-.02.009-.022-.929-.372zm-.895.358l.448-.894-.023-.011-.024-.01-.4.915zm-1.365-1.365l-.906-.422.906.422zm29.785-2.103l-.54-.841.54.84zm.917-.604l-.54-.842-.015.01-.014.01.57.822zm-1.119 1.521l-.84.541.004.007.004.007.832-.555zm.918.202l.514.857.014-.008.013-.008-.541-.841zm.48-.313l-.547-.837.547.837zm.001 0l.548.836-.548-.836zm.66-1.254l.841-.54-.009-.015-.01-.014-.822.57zm2.954-3.334l.676.737.016-.014.015-.016-.707-.707zm-.806.739l-.675-.738.675.737zm1.746-.739l-.707.707.707-.707zm-.85 1.723l.64.768.005-.005-.645-.763zm-.94-.045l.759-.65-.01-.013-.012-.012-.737.675zm-18.17 6.691l.058.999-.059-.999zm1.096-.09l-.06-.998-.032.002-.032.005.124.992zm-1.724.806l-.998.06v.003l.998-.063zm.717.627v1h.029l.03-.002-.06-.998zm1.14-.09l.118.994.007-.001-.124-.992zm.605-.738l-.998.062.002.028.003.027.993-.117zm4.207-1.5l-.242-.97.242.97zm0 0l-.243-.97.243.97zm.85.47l.97-.242-.007-.028-.008-.028-.955.299zm-.47.829l.23.973.013-.003-.242-.97zm-.56.134l.236.972-.235-.972zm-.558.134l-.23-.973-.113.026-.105.053.448.894zm-.806-.492l.978-.21-.004-.016-.004-.017-.97.243zm.492-.806l.243.97.007-.001.008-.002-.258-.967zm20.006-15.731l.894.447.006-.012.006-.012-.906-.423zm.895-.291l.496-.868-.036-.02-.037-.018-.423.906zm-1.41 1.253l-.868-.496-.007.012-.007.013.882.471zm.269.918l.514-.858-.021-.013-.023-.012-.47.883zm.895-.27l-.882-.47-.007.012-.006.012.895.447zm.537-1.006l.882.47.007-.011.005-.012-.894-.447zm-2.91 3.536l-.609.792.014.011.015.01.58-.813zm-.939.134l.793.61-.793-.61zm1.097.805l.813.582.005-.006.004-.006-.822-.57zm-.694.918l.759.65.004-.004-.763-.646zm-.963.09l-.61.792.028.02.028.02.554-.832zm-.111-.94l-.793-.61.793.61zm-11.402 8.816l-.397-.917-.011.005-.01.004.418.908zm.504-.223l-.423-.907.423.907zm-.505.224l.398.917.01-.004.011-.005-.419-.908zm-.502.223l.371.929.026-.01.026-.013-.423-.906zm-.358.873l-.929.371.009.022.01.02.91-.413zm.895.358l.242.97-.242-.97zm0 0l.242.97.082-.02.077-.034-.401-.916zm.282-.122l-.393-.92.393.92zm.77-.348l-.423-.906-.013.005-.012.007.448.894zm.335-.895l.906-.423-.017-.037-.02-.036-.869.496zM46.893 2.08l.242-.97-.243.97zm0 0l.242-.97-.243.97zm1.051.269l-.258.966.008.002.008.002.242-.97zm.828-.47l.955.298.008-.028.007-.028-.97-.242zm-.47-.828L48.6.097 48.573.09l-.028-.007-.243.97zm-.294-.076l-.254.967.254-.967zm-.825-.193l-.447.895.13.065.143.025.174-.985zm-.805.493l-.978-.21-.003.013-.002.012.983.185zm-18.126 2.44l.371.928.026-.01.026-.012-.423-.906zm-1.902.134l-.907.423.006.012.006.012.895-.447zm.313-.895l-.4-.916-.012.005-.01.005.422.906zm1.052-.47l-.243-.97-.093.023-.087.04.423.907zm.895.358l.928-.371-.008-.022-.01-.02-.91.413zm3.727-.552l.242.97.01-.002.011-.003-.263-.965zm0 0l-.243-.97-.01.003-.01.003.263.964zm.659-.164l.196.98.023-.004.023-.006-.242-.97zm.492-.806l-.978.21.004.016.004.017.97-.243zm-.806-.492l.23.973.113-.026.105-.053-.448-.894zm-1.118.29l.242.971.02-.005.02-.006-.282-.96zm-.47.829l-.97.242.016.066.025.063.929-.371zm.85.447l-.242-.97-.029.007-.027.009.298.954zM23.8 6.064l-.55-.835-.012.008-.012.008.573.82zm0 0l.54.842.016-.01.017-.012-.574-.82zm-.918.605l-.57-.823-.005.005-.006.004.581.814zm-.895-.157l.868-.496-.025-.044-.03-.041-.813.58zm.157-.94l.54.841.015-.009.014-.01-.57-.822zm.94-.627l-.515-.857-.013.008-.013.008.54.841zm.917.202l-.832.555.005.007.005.007.822-.57zm-.201.917l-.541-.84-.009.005.55.835zm28.89-1.991l-.424.906.423-.906zm-1.008-.448l.372-.928-.01-.004-.01-.004-.352.936zm1.902.112l.906.423-.906-.423zm-.335-.895l-.423.906.423-.906zm-1.052-.47l.4-.916-.4.916zm0 0l-.447.894.023.012.023.01.4-.916zm-.895.358l-.91-.414-.015.031-.012.032.937.351zm15.575 15.06l.906-.423-.006-.012-.006-.012-.894.447zm.895.291l-.423-.906-.038.017-.035.02.496.87zm-1.41-1.253l-.883.47.007.013.008.013.868-.496zm.268-.917l.471.882.068-.036.061-.047-.6-.8zm.895.268l-.894.447.006.012.006.012.883-.471zm.537 1.007l-.882.47.007.014.007.012.868-.496zm-2.886-3.536l-.61-.792.61.792zm-.94-.134l-.822.57.014.02.015.02.793-.61zm1.074-.806l-.814.582.01.014.011.014.793-.61zm-.694-.917l.787-.618-.014-.017-.013-.016-.76.651zm-.962-.09l.61.793.015-.012.015-.012-.64-.768zm-.112.94l-.792.61.027.036.03.033.735-.679zm-7.407-6.69l-.54.84.54-.84zm.459.302l-.555.832.555-.832zm-.66-1.242l.814.58.032-.045.028-.05-.874-.485zm.917-.202l.515-.857-.515.857zm1.142 1.567l.813.58.015-.019.013-.02-.841-.541zm-.94.179l-.541.84.54-.84zm4.81 3.155l-.706-.707-.015.015-.015.016.737.676zm-.939.022l-.707.707.015.016.016.014.676-.737zm.918-.962l-.708.707.016.016.016.014.676-.737zm-.414-.392l-.708.708.015.014.016.014.677-.736zm0 0l.707-.707-.015-.014-.015-.015-.677.736zm-.414-.391l.707-.707-.032-.032-.035-.03-.64.769zm-.94.045l.737.675.011-.012.011-.013-.76-.65zm.044.94l-.675.737.014.013.015.013.647-.764zM36.89 1.453l.116.994.008-.001-.125-.992zm1.036-.085l.063.998-.063-.998zM36.151.85l-.998.06.002.028.003.03.993-.118zm.604-.738l-.059-.998-.032.002-.033.004.124.992zm1.142-.09v-1h-.03l-.03.002.06.998zm.716.627L39.61.59V.587l-.998.062zm-.627.716l-.059-.998h-.003l.062.998zM19.413 9.51l-.692-.722.692.722zm-.403.38l-.676-.736-.016.014-.015.016.707.707zm.805-.76l.676.737-.676-.737zm.045-.94l.737-.676-.014-.016-.016-.015-.707.707zm-.94-.045l-.64-.768-.006.005.646.763zm-.828.784l-.707-.707.707.707zm0 .94l.768-.64-.043-.052-.049-.046-.676.738zm-2.372 3.826l.814.581.004-.006.005-.006-.823-.569zm-1.096-.783l-.8-.6-.012.015-.01.016.822.569zm0 0l.8.6.007-.01.007-.009-.814-.581zm.694-.918l-.76-.65-.004.005.764.645zm.94-.111l-.625.78.007.006.008.006.61-.793zm.111.94l.793.61-.793-.61zm0 0l-.792-.61.792.61zm-3.245 5.169l-.894-.448-.006.012-.006.013.906.423zm-.895.313l-.47.882.023.013.024.011.423-.906zm1.41-1.276l.868.497.008-.013.006-.013-.882-.47zm-.268-.917l.47-.882-.046-.025-.048-.02-.376.927zm-.03-.012l-.38.925.005.002.376-.927zm-.018-.008l.38-.924-.019-.008-.02-.007-.341.94zm0 0l-.381.925.02.008.02.007.34-.94zm-.848.288l.883.471.006-.012.006-.011-.894-.448zm-.537 1.007l-.882-.47.883.47zm67.894 15.575l.768-.64-.008-.01-.01-.01-.75.66zm0 .895l-.74-.672-.005.005-.005.006.75.661zM.168 32.962l.74.673.005-.006.005-.006-.75-.66zm0 .895l-.768.64.008.011.01.01.75-.66zm1.41-.447l-.745-.668-.599.668.6.668.744-.668zm76.844 0l.745.668.599-.668-.6-.668-.744.668zm-41.13-9.958l-.94.343.332.906.918-.298-.31-.951zm-.514-1.41l.939-.343-.005-.014-.006-.014-.928.371zm15.105 12.04h1v-.004l-1 .003zm-21.841-3.29l.955.294.281-.909-.894-.325-.342.94zm-1.477-.538l-.351.937.01.003.341-.94zm-.403-.872l.937.35-.937-.35zm7.743-7.743l.346.938.005-.002-.351-.936zm-6.221 7.586l-.916-.401-.425.971.994.368.347-.938zm6.064-6.064l.939-.346-.367-.996-.973.426.401.916zm3.558 9.622l-.346.938 2.054.76-.772-2.05-.936.352zm-3.192-8.629l.939-.345-.004-.01-.935.355zm0 0l-.938.345.003.01.935-.355zm-4.796 7.085l.346-.938-.997-.368-.307 1.018.957.288zm8.906 3.29l.35-.937-.004-.001-.346.938zm.873-.873l.948-.316-.005-.015-.005-.015-.938.346zm-3.312-8.973l-.302-.954-1 .317.364.983.938-.346zm12.777 9.353l1 .009v-.009h-1zM27.558 20.028l-.707.707.015.015.016.015.676-.737zm0 .94l-.707-.707h-.001l.708.707zm-.94-.94l.707.707.016-.015.014-.016-.737-.676zm0 26.764l.707-.708-.707.708zm.94-.94l-.708.706.708-.706zm24.884-25.824l.707.707.015-.015.015-.016-.737-.676zm0 .94l.707-.707-.015-.016-.016-.014-.676.737zm.94-.94l-.707.707v.001l.707-.708zm0 26.764l-.707-.708-.016.016-.014.016.737.676zm-.94 0l.707-.708-.015-.015-.016-.015-.676.738zm0-.94l.707.707.001-.001-.708-.706zM41.862 2.34l.06.003.124-1.996-.06-.003-.124 1.996zM40.3.568a1.66 1.66 0 001.566 1.773l.117-1.997a.342.342 0 01.313.341L40.3.568zM41.97-1c-.878 0-1.614.67-1.67 1.564l1.996.125a.336.336 0 01-.327.311v-2zm.044 0h-.045v2h.045v-2zm1.258.096a21.032 21.032 0 00-1.2-.094L41.956.998c.385.023.737.044 1.083.085l.234-1.987zm1.48 1.856c.117-.942-.582-1.75-1.48-1.856l-.234 1.987a.327.327 0 01-.27-.38l1.984.249zm-1.855 1.472c.942.118 1.75-.58 1.856-1.48L42.766.712a.327.327 0 01.379-.271l-.248 1.984zm-.975-.08c.346.022.673.043.975.08L43.145.44c-.374-.047-.764-.07-1.099-.092l-.124 1.996zM14.031 47.443c-.404-.865-1.417-1.173-2.225-.797l.846 1.813a.33.33 0 01-.434-.17l1.813-.846zm.466.889c-.156-.29-.329-.615-.478-.913l-1.789.894c.164.328.35.675.506.967l1.761-.949zm-.678 2.273a1.667 1.667 0 00.68-2.27l-1.765.941a.31.31 0 01-.02-.23.343.343 0 01.164-.205l.94 1.764zm-.784.208c.229 0 .585-.044.913-.29l-1.2-1.6c.15-.112.282-.11.287-.11v2zm-1.476-.911c.293.586.9.91 1.476.91v-2c.082 0 .14.023.178.046.042.025.095.07.135.15l-1.79.894zm-.55-1.032c.173.37.368.735.587 1.099l1.715-1.029a10 10 0 01-.489-.915l-1.812.845zm.797-2.224c-.864.404-1.173 1.417-.796 2.224l1.812-.845a.33.33 0 01-.17.434l-.845-1.813zm3.515 6.2a.302.302 0 01-.393-.074l1.585-1.22a1.699 1.699 0 00-2.273-.388l1.081 1.683zm.144-.441a.302.302 0 01-.075.393l-1.22-1.585a1.699 1.699 0 00-.387 2.273l1.682-1.081zm.639.84a23.75 23.75 0 01-.666-.88l-1.628 1.162c.237.331.471.636.721.954l1.573-1.236zm-.25-.136c.008 0 .044.001.097.024.06.025.12.069.166.13l-1.6 1.2c.376.5.92.646 1.338.646v-2zm-.221.085a.398.398 0 01.127-.07.302.302 0 01.095-.015v2c.32 0 .709-.099 1.027-.353l-1.25-1.562zm-.056.45a.328.328 0 01.07-.462l1.22 1.585c.752-.578.837-1.636.295-2.342l-1.585 1.22zm-.65-.872c.227.295.435.566.62.832l1.644-1.138a22.567 22.567 0 00-.678-.913l-1.585 1.219zm9.412 6.18a31.505 31.505 0 01-.444-.293l-1.11 1.664c.15.1.308.205.473.311l1.081-1.682zm.403 2.376c.608-.775.416-1.91-.447-2.403l-.993 1.736a.39.39 0 01-.133-.568l1.573 1.235zm-1.346.696c.532 0 1.12-.264 1.433-.828l-1.748-.971a.408.408 0 01.16-.161.322.322 0 01.155-.04v2zm-.873-.255c.22.132.53.255.873.255v-2a.49.49 0 01.124.016.14.14 0 01.032.014l-1.029 1.715zm-1.006-.67c.336.24.67.455.98.654l1.081-1.682c-.316-.204-.609-.392-.899-.6L21.517 61.1zm-.417-2.294a1.699 1.699 0 00.388 2.273l1.22-1.585c.13.1.147.28.074.393L21.1 58.805zm2.322-.457a1.699 1.699 0 00-2.273.388l1.585 1.22c-.1.13-.28.147-.394.074l1.082-1.682zm.473.31c-.15-.1-.308-.205-.473-.31L22.34 60.03c.149.095.293.191.445.293l1.11-1.664zm7.814 5.771c.344.092.71.183 1.067.273l.485-1.94c-.36-.09-.71-.178-1.037-.265l-.515 1.932zm.4-.254a.364.364 0 01-.172.23.291.291 0 01-.213.028l.485-1.94c-.832-.208-1.802.244-2.04 1.197l1.94.485zm-.258-.384a.37.37 0 01.229.17.297.297 0 01.029.214l-1.94-.485c-.209.832.243 1.803 1.197 2.041l.485-1.94zm1.105.287a15.465 15.465 0 01-1.05-.272l-.596 1.91c.399.124.815.221 1.188.31l.458-1.948zm-.072-.004c-.028 0-.008 0 .021.002a.832.832 0 01.27.081l-.895 1.79c.183.09.352.112.426.12.085.008.161.007.178.007v-2zm-.329.276a.36.36 0 01.13-.204.327.327 0 01.199-.072v2c.755 0 1.455-.502 1.627-1.305l-1.956-.42zm.22.352a.29.29 0 01-.227-.316l1.97.347c.152-.863-.357-1.747-1.257-1.972l-.485 1.94zm4.572.741c.182.017.381.035.577.047l.124-1.996a19.08 19.08 0 01-.52-.042l-.18 1.991zm-.52-.042c.163.01.333.025.52.042l.181-1.991a18.18 18.18 0 00-.576-.047l-.125 1.996zm.317-.277a.302.302 0 01-.111.191.354.354 0 01-.26.08l.233-1.985c-.974-.115-1.744.597-1.848 1.48l1.986.234zm-.272-.372c.138.017.3.153.271.379l-1.984-.248c-.118.942.581 1.75 1.48 1.856l.233-1.987zm1.083.085a18.693 18.693 0 01-1.083-.085l-.234 1.987c.415.048.824.072 1.2.094l.117-1.996zm-.014-.002h-.044v2h.044v-2zm-.327.311a.336.336 0 01.327-.311v2c.877 0 1.614-.67 1.67-1.564l-1.996-.125zm.31.344a.324.324 0 01-.31-.34l1.997.117a1.676 1.676 0 00-1.563-1.773l-.124 1.996zm-19.147-8.816a.33.33 0 01-.474 0l1.414-1.415a1.669 1.669 0 00-2.354 0l1.414 1.414zm0-.475a.33.33 0 010 .474l-1.414-1.414a1.669 1.669 0 000 2.354l1.414-1.414zm.797.753a25.817 25.817 0 01-.797-.753l-1.414 1.414c.285.286.59.568.86.814l1.35-1.475zm-.229-.084c.13 0 .193.053.193.053l-1.28 1.537c.268.224.644.41 1.088.41v-2zm-.267.126a.368.368 0 01.268-.126v2c.437 0 .906-.17 1.251-.573l-1.519-1.301zm.04.448a.33.33 0 01-.017-.473l1.474 1.352a1.67 1.67 0 00-.106-2.353l-1.352 1.474zm-.408-.383c.132.126.273.261.41.386l1.346-1.48c-.115-.104-.236-.22-.373-.351l-1.383 1.445zm-.376-.355c.122.111.246.23.376.355l1.383-1.445a27.178 27.178 0 00-.407-.385l-1.352 1.475zm10.267 4.51a18.868 18.868 0 01-.956-.425L26.8 62.6c.331.155.693.324 1.059.47l.743-1.857zm.915 2.173c.34-.85-.069-1.78-.864-2.15l-.846 1.812a.316.316 0 01-.147-.405l1.857.743zm-1.555 1.031a1.69 1.69 0 001.537-.989l-1.821-.827a.312.312 0 01.284-.184v2zm-.716-.15c.33.165.651.15.716.15v-2h-.036l.026.002c.04.005.11.02.189.059l-.895 1.789zm-1.027-.458c.348.162.718.324 1.073.48l.802-1.833c-.36-.157-.707-.31-1.03-.46l-.845 1.813zm-.797-2.224c-.377.807-.068 1.82.797 2.224l.845-1.813a.33.33 0 01.17.434l-1.812-.845zm2.224-.797c-.807-.377-1.82-.068-2.224.797l1.813.845a.33.33 0 01-.435.17l.846-1.812zm29.008-.043c.31-.2.638-.41.946-.623l-1.139-1.645c-.274.19-.573.382-.889.586l1.082 1.682zm.099-.464a.342.342 0 01-.1.464l-1.08-1.682a1.657 1.657 0 00-.503 2.3l1.683-1.082zm-.282-.146a.36.36 0 01.175.046c.053.03.083.065.097.086l-1.664 1.11a1.67 1.67 0 001.392.758v-2zm-.157.03a.14.14 0 01.033-.014.49.49 0 01.124-.016v2c.342 0 .653-.123.873-.255l-1.03-1.715zm.447-.292l-.473.309 1.082 1.682c.16-.103.326-.212.487-.318l-1.096-1.673zm.001 0l1.095 1.674-1.095-1.674zm.488-.318l-.488.318 1.096 1.673.474-.309-1.082-1.682zm-.12.442a.284.284 0 01-.04-.206.363.363 0 01.16-.236l1.082 1.682c.833-.535.942-1.601.48-2.321l-1.683 1.081zm.441.144a.269.269 0 01-.19.04.36.36 0 01-.233-.156l1.644-1.138c-.543-.785-1.59-.886-2.302-.428l1.081 1.682zm2.677-4.756l-.805.738 1.351 1.475.806-.739-1.352-1.474zm2.323.03a1.668 1.668 0 00-2.354 0l1.414 1.414a.33.33 0 01-.474 0l1.414-1.414zm-.022 2.354c.637-.637.68-1.696.022-2.354l-1.414 1.414c-.166-.166-.123-.374-.023-.474l1.415 1.414zm-.89.84c.328-.278.626-.576.89-.84l-1.415-1.414c-.273.273-.513.512-.766.727l1.291 1.526zm-1.093.415c.444 0 .82-.187 1.088-.41l-1.28-1.537s.062-.053.192-.053v2zm-1.252-.573c.345.403.814.573 1.252.573v-2a.37.37 0 01.267.125l-1.519 1.302zm.129-2.328a1.67 1.67 0 00-.106 2.353l1.474-1.351a.33.33 0 01-.017.473l-1.351-1.475zM41.96 65.491c.378-.023.767-.047 1.162-.096l-.248-1.984c-.322.04-.649.06-1.032.083l.118 1.997zm.313-.341a.342.342 0 01-.313.34l-.118-1.996a1.66 1.66 0 00-1.566 1.773l1.997-.117zm-.327-.315c.16 0 .316.133.327.311l-1.996.125a1.665 1.665 0 001.669 1.564v-2zm.045 0h-.045v2h.045v-2zm1.024-.083c-.347.041-.698.062-1.083.085l.117 1.996c.376-.022.786-.046 1.2-.094l-.234-1.987zm-.272.372a.36.36 0 01.08-.27.286.286 0 01.185-.1l.248 1.984c.826-.104 1.59-.848 1.473-1.848l-1.986.234zm.313.277a.27.27 0 01-.186-.063.379.379 0 01-.132-.269l1.996-.124c-.062-.986-.946-1.59-1.795-1.54l.117 1.996zm4.645-2.863l.484 1.94-.484-1.94zm2.047 1.141a1.712 1.712 0 00-2.047-1.142l.485 1.94a.288.288 0 01-.347-.201l1.909-.597zm-1.182 2.097c.954-.239 1.405-1.209 1.197-2.04l-1.94.484a.291.291 0 01.03-.213.364.364 0 01.228-.172l.485 1.94zm-.567.136c.185-.045.367-.09.553-.133l-.457-1.947a84.6 84.6 0 00-.567.136L48 65.912zm-.565.135c.194-.045.381-.09.565-.135l-.471-1.944-.552.133.458 1.947zm-.386.05c.017 0 .093 0 .178-.008.074-.008.243-.03.426-.12l-.895-1.79a.832.832 0 01.27-.08c.029-.003.049-.002.021-.002v2zm-1.627-1.306c.176.822.915 1.306 1.627 1.306v-2a.32.32 0 01.198.064c.055.042.11.114.13.211l-1.955.42zm1.228-1.985a1.667 1.667 0 00-1.22 2.018l1.94-.485a.333.333 0 01-.235.407l-.485-1.94zm1.051-.268c-.356.089-.722.18-1.066.272l.515 1.933c.327-.088.677-.175 1.036-.265l-.485-1.94zm20.103-14.07a.386.386 0 01-.23.202.283.283 0 01-.204-.01l.846-1.812c-.752-.352-1.797-.142-2.224.774l1.812.846zm-.553 1.035c.189-.33.377-.682.541-1.011l-1.788-.895c-.15.298-.32.617-.489.914l1.736.992zm-.129-.46a.336.336 0 01.163.205.31.31 0 01-.02.23l-1.764-.942c-.426.798-.167 1.819.68 2.27l.941-1.764zm-.157-.029a.39.39 0 01.201.053l-1.029 1.715c.282.17.576.232.828.232v-2zm-.313.195a.355.355 0 01.313-.195v2c.617 0 1.191-.341 1.476-.91l-1.789-.895zm.55-1.03l-.537 1.006 1.764.941.537-1.006-1.764-.942zm.095.443a.287.287 0 01-.133-.16.346.346 0 01.025-.26l1.79.894c.412-.824.048-1.789-.69-2.21l-.992 1.736zm-1.513 2.77c-.753-.58-1.8-.386-2.342.317l1.586 1.22a.312.312 0 01-.202.119.348.348 0 01-.26-.07l1.218-1.586zm.37 2.302c.484-.7.4-1.754-.398-2.323l-1.162 1.627a.34.34 0 01-.137-.223.305.305 0 01.052-.22l1.645 1.139zm-.753.994c.277-.328.525-.675.744-.982l-1.627-1.163c-.228.32-.428.599-.644.853l1.527 1.292zm-1.3.6c.487 0 .968-.212 1.296-.595l-1.519-1.302a.289.289 0 01.222-.103v2zm-.98-.324c.184.122.523.324.98.324v-2c.07 0 .123.016.15.027.02.008.018.01-.02-.016l-1.11 1.665zm-.35-2.382c-.543.705-.457 1.764.295 2.342l1.22-1.585c.169.13.165.339.07.462l-1.585-1.22zm.671-.873l-.671.873 1.585 1.22.672-.873-1.586-1.22zM52.56 62.926c.166-.072.346-.15.529-.235l-.846-1.813a18.77 18.77 0 01-.478.213l.795 1.835zm.021-.01l-.838-1.816.838 1.816zm0 0l-.838-1.816.838 1.816zm0 0l-.838-1.815.838 1.816zm0 0l-.838-1.815.838 1.816zm0 0l-.838-1.815.838 1.816zm0 0l-.839-1.815.838 1.816zm-.5.222c.153-.071.308-.138.478-.212l-.795-1.835c-.166.072-.346.15-.528.235l.846 1.812zm.148-.404a.312.312 0 01.002.233.357.357 0 01-.2.194l-.744-1.857c-.885.354-1.239 1.362-.915 2.172l1.857-.742zm-.302-.226c.12 0 .232.07.284.183l-1.82.828c.275.606.879.989 1.536.989v-2zm.026-.015l-.03.007-.023.006a.42.42 0 01-.023.005l.009-.001a.381.381 0 01.041-.002v2c.234 0 .445-.058.511-.075l-.485-1.94zm0 0l.485 1.94-.485-1.94zm.132-.071l-.29.125.802 1.832.275-.119-.787-1.838zm.715-.323c-.232.116-.456.212-.715.323l.787 1.838c.253-.108.53-.226.823-.373L52.8 62.1zm-.123.422a.32.32 0 01.148-.434l.845 1.812c.813-.379 1.22-1.364.82-2.224l-1.813.846zm.412.17a.322.322 0 01-.241.016.246.246 0 01-.133-.113l1.736-.992c-.405-.71-1.346-1.126-2.208-.724l.846 1.813zM47.135 1.11l-.485 1.94.485-1.94zm1.067.272a82.44 82.44 0 00-1.067-.272l-.485 1.94c.36.09.71.178 1.036.265l.516-1.933zm-.384.198a.313.313 0 01.369-.201l-.485 1.94a1.687 1.687 0 002.025-1.142l-1.91-.597zm.186.425a.313.313 0 01-.202-.369l1.94.485A1.687 1.687 0 0048.6.097l-.596 1.91zm-.25-.063l.306.079.485-1.94-.283-.073-.508 1.934zm-.745-.175c.231.04.47.103.745.175L48.262.01c-.262-.07-.58-.153-.905-.21l-.348 1.969zm.018-.007c.027 0 .007 0-.022-.002a.83.83 0 01-.27-.081l.895-1.79a1.224 1.224 0 00-.426-.12c-.084-.008-.16-.007-.177-.007v2zm.328-.276a.36.36 0 01-.13.204.327.327 0 01-.198.072v-2c-.756 0-1.455.502-1.627 1.305l1.955.42zm-.22-.374a.3.3 0 01.226.349l-1.966-.369a1.7 1.7 0 001.255 1.96l.485-1.94zM27.668 5.068c.34-.158.65-.303.955-.425l-.743-1.857c-.366.147-.727.316-1.058.47l.846 1.812zm-2.213-.772a1.69 1.69 0 002.213.772l-.846-1.812a.328.328 0 01.248-.014c.06.021.13.07.174.16l-1.789.894zm.785-2.248c-.864.403-1.173 1.416-.796 2.224l1.812-.846a.33.33 0 01-.17.434l-.846-1.812zm1.052-.47c-.323.15-.67.302-1.03.46l.802 1.832c.355-.156.725-.317 1.074-.48l-.846-1.812zm.691-.139c-.234 0-.445.058-.51.075l.484 1.94.03-.007a1.855 1.855 0 01.046-.011l-.008.001a.385.385 0 01-.042.002v-2zm1.537.99a1.689 1.689 0 00-1.537-.99v2a.311.311 0 01-.284-.183l1.821-.828zm-.845 2.192a1.684 1.684 0 00.863-2.15l-1.857.742a.316.316 0 01.148-.405l.846 1.813zm3.42-3.3l.484 1.94-.485-1.94zm.705-.176c-.253.05-.509.121-.726.18l.526 1.93a9.87 9.87 0 01.592-.149l-.392-1.96zm-.282.418a.333.333 0 01.235-.407l.485 1.94a1.667 1.667 0 001.22-2.018l-1.94.485zm.321.243a.32.32 0 01-.197-.065.362.362 0 01-.132-.211l1.956-.42C34.29.29 33.55-.193 32.839-.193v2zm.29-.084a.83.83 0 01-.269.081c-.029.003-.049.003-.02.003v-2c-.018 0-.094-.001-.179.007a1.225 1.225 0 00-.426.12l.895 1.79zm-1.283.356c.355-.104.694-.19 1.066-.277l-.459-1.946c-.388.091-.766.185-1.172.305l.565 1.918zm.218-.374a.292.292 0 01-.029.214.364.364 0 01-.229.171l-.485-1.94c-.954.238-1.405 1.209-1.197 2.04l1.94-.485zm-.418-.264a.359.359 0 01.275.024.22.22 0 01.101.111l-1.857.743c.284.71 1.115 1.332 2.077 1.03l-.596-1.908zm.428-.114c-.132.036-.253.068-.372.098l.485 1.94c.143-.035.285-.074.413-.11l-.526-1.928zm-7.702 5.558l-1.147-1.639 1.147 1.639zm0 0l-1.147-1.639 1.147 1.639zm0 0l-1.147-1.639 1.147 1.639zm0 0l-1.147-1.639 1.147 1.639zm0 0l-1.147-1.639 1.147 1.639zm0 0l-1.147-1.639 1.147 1.639zm0 0l-1.147-1.639 1.147 1.639zm0 0l-1.147-1.639 1.147 1.639zm0 0l-1.147-1.639 1.147 1.639zm0 0l-1.147-1.639 1.147 1.639zm0 0l-1.147-1.639 1.147 1.639zm0 0l-1.147-1.639 1.147 1.639zm0 0l-1.147-1.639 1.147 1.639zm0 0l-1.147-1.639 1.147 1.639zm-.922.607c.274-.19.573-.382.889-.585l-1.082-1.683c-.31.2-.638.41-.945.623l1.138 1.645zm-2.332-.483c.516.904 1.623.99 2.344.474L22.3 5.855a.339.339 0 01.253-.049.438.438 0 01.301.21l-1.736.992zm.484-2.277c-.838.538-.955 1.627-.43 2.362L22.8 5.931a.347.347 0 01-.117.482l-1.081-1.682zm.94-.627c-.323.208-.668.438-.969.646l1.139 1.644c.28-.194.607-.412.911-.607l-1.081-1.683zm.899-.27c-.38 0-.672.134-.873.254l1.029 1.715c.015-.01.003 0-.028.01a.416.416 0 01-.128.02v-2zm1.391.758a1.665 1.665 0 00-1.391-.758v2a.363.363 0 01-.175-.046.285.285 0 01-.098-.086l1.664-1.11zm-.493 2.314c.763-.49 1.024-1.547.483-2.328l-1.644 1.138a.372.372 0 01-.063-.289.325.325 0 01.143-.204l1.081 1.683zm.01-.006l-1.1-1.671 1.1 1.67zM53.11 3.167a19.912 19.912 0 00-1.058-.47l-.743 1.857c.305.122.615.266.955.425l.846-1.812zm-.434.147a.32.32 0 01.434-.147l-.846 1.812c.86.401 1.845-.007 2.224-.819l-1.812-.846zm.148.434a.32.32 0 01-.148-.434l1.812.846c.402-.86-.006-1.845-.819-2.224l-.845 1.812zm-1.03-.46c.36.158.707.31 1.03.46l.845-1.812c-.348-.163-.718-.324-1.073-.48l-.802 1.832zm0 0l.802-1.832-.802 1.832zm.132.04h.036l-.026-.003a.594.594 0 01-.188-.059l.894-1.788c-.33-.165-.651-.15-.716-.15v2zm.284-.184a.312.312 0 01-.284.183v-2a1.69 1.69 0 00-1.537.99l1.821.827zm-.179-.455a.351.351 0 01.198.19c.03.074.028.146.007.202l-1.873-.702c-.305.814.031 1.832.966 2.182l.702-1.872zM65.97 18.213a1.65 1.65 0 002.298.736l-.992-1.736a.37.37 0 01.296-.036.356.356 0 01.21.19l-1.812.846zm-.476-.889c.17.297.34.616.488.913l1.789-.894c-.165-.33-.352-.681-.54-1.011l-1.737.992zm.666-2.296a1.666 1.666 0 00-.68 2.27l1.764-.94a.31.31 0 01.02.23.343.343 0 01-.163.205l-.941-1.765zm.784-.207c-.23 0-.586.043-.914.29l1.2 1.6c-.149.111-.281.11-.286.11v-2zm1.476.91a1.67 1.67 0 00-1.476-.91v2a.34.34 0 01-.178-.045.355.355 0 01-.135-.15l1.789-.894zm.525.984l-.537-1.007-1.765.942.537 1.007 1.765-.942zm-.75 2.272a1.65 1.65 0 00.736-2.297l-1.737.992a.37.37 0 01-.036-.296.356.356 0 01.19-.211l.847 1.812zm-3.629-6.13a.35.35 0 01.26-.07c.075.01.15.05.203.12l-1.586 1.219c.541.703 1.589.897 2.342.317l-1.219-1.585zm-.049.463a.348.348 0 01-.07-.26.312.312 0 01.12-.202l1.218 1.585c.704-.541.897-1.589.318-2.342l-1.586 1.22zm-.687-.91c.243.31.456.587.666.882l1.628-1.163a25.616 25.616 0 00-.721-.954l-1.573 1.236zm.25.137a.289.289 0 01-.223-.103l1.519-1.302a1.715 1.715 0 00-1.297-.595v2zm.214-.075a.336.336 0 01-.097.052.363.363 0 01-.118.023v-2c-.388 0-.75.125-1.065.388l1.28 1.537zm.04-.438a.328.328 0 01-.07.462l-1.22-1.585c-.751.578-.837 1.637-.294 2.342l1.585-1.22zm.724.913a8.892 8.892 0 00-.78-.982l-1.47 1.357c.23.249.425.502.606.763l1.644-1.138zm-9.464-6.153c.149.095.293.191.445.293l1.11-1.664c-.15-.1-.308-.206-.473-.312l-1.081 1.683zM55.12 4.43c-.596.834-.26 1.89.474 2.363l1.082-1.683c.067.043.113.11.132.19.02.087.006.2-.06.293L55.119 4.43zm1.373-.732c-.532 0-1.12.264-1.433.828l1.748.971a.407.407 0 01-.16.161.322.322 0 01-.155.04v-2zm.873.255a1.736 1.736 0 00-.873-.255v2a.492.492 0 01-.124-.016.142.142 0 01-.032-.014l1.029-1.715zm1.029.67c-.34-.243-.676-.459-1.03-.67l-1.028 1.715c.318.19.608.378.895.582l1.163-1.627zm.439 2.294a1.682 1.682 0 00-.44-2.294L57.232 6.25a.314.314 0 01-.12-.197.305.305 0 01.04-.217l1.682 1.081zm-2.322.48c.749.481 1.752.32 2.294-.44l-1.627-1.162a.314.314 0 01.197-.12.304.304 0 01.218.04L56.51 7.397zm-.473-.311c.15.1.308.205.473.31l1.081-1.682c-.148-.095-.292-.191-.444-.292l-1.11 1.664zm5.088 1.95a.366.366 0 01.259-.12.307.307 0 01.214.08l-1.352 1.474c.638.585 1.7.63 2.353-.083l-1.474-1.352zm.039.472a.351.351 0 01-.01-.504l1.415 1.414a1.649 1.649 0 00-.054-2.384l-1.351 1.474zm-.415-.393c.142.131.266.246.383.363l1.415-1.414c-.152-.152-.307-.294-.444-.42L60.75 9.116zm-.03-.028l1.414-1.415-1.415 1.415zm0 0l1.414-1.415-1.415 1.415zm-.414-.392c.15.151.306.294.444.42l1.354-1.472a12.817 12.817 0 01-.384-.362l-1.414 1.414zm.259.114c-.13 0-.192-.053-.193-.053l1.28-1.536a1.708 1.708 0 00-1.087-.411v2zm.267-.126a.37.37 0 01-.267.126v-2c-.438 0-.907.17-1.252.573l1.519 1.301zm-.039-.448c.13.12.151.327.017.473l-1.474-1.351a1.67 1.67 0 00.106 2.353l1.351-1.475zm.837.791c-.242-.242-.539-.54-.867-.817l-1.291 1.527c.254.215.494.454.744.704l1.414-1.414zm-24.617-6.58c.303-.038.63-.059.976-.08L37.864.37c-.334.02-.724.044-1.098.091l.248 1.985zM35.159.967c.104.883.874 1.595 1.848 1.48L36.773.462a.354.354 0 01.26.081.302.302 0 01.111.192l-1.986.233zM36.63-.88A1.693 1.693 0 0035.153.91l1.996-.118a.307.307 0 01-.27.312L36.631-.88zm.607-.049c-.193.017-.368.032-.541.043l.117 1.996c.207-.012.412-.03.6-.047l-.176-1.992zm.6-.047c-.208.012-.412.03-.6.047l.176 1.992c.192-.017.368-.032.541-.042l-.117-1.997zm.103-.002h-.044v2h.044v-2zM39.61.587a1.665 1.665 0 00-1.67-1.565v2a.336.336 0 01-.327-.31L39.61.587zm-1.566 1.776A1.66 1.66 0 0039.61.59l-1.997.118a.342.342 0 01.313-.34l.118 1.995zm-.056.004l.06-.004-.125-1.996-.06.004.125 1.996zM18.72 8.788c-.136.13-.262.251-.387.366l1.352 1.474c.143-.132.286-.268.419-.396L18.72 8.788zm.419-.395c-.144.132-.287.268-.42.395l1.385 1.444c.135-.13.261-.25.386-.365l-1.35-1.474zm-.017.473a.33.33 0 01.017-.473l1.351 1.474a1.67 1.67 0 00.106-2.353l-1.474 1.352zm.245.1a.38.38 0 01-.16-.032.188.188 0 01-.055-.037l1.414-1.414a1.716 1.716 0 00-1.2-.517v2zm.193-.052s-.063.052-.193.052v-2c-.444 0-.82.187-1.088.411l1.28 1.537zm-.762.722c.274-.274.513-.512.767-.727l-1.292-1.527c-.328.278-.625.576-.889.84L18.8 9.636zm0 0l-1.414-1.414L18.8 9.636zm-.031-.505c.182.167.136.4.031.505l-1.414-1.414c-.641.64-.687 1.725.032 2.384l1.351-1.475zm-.465.053c.13-.13.39-.157.557.044l-1.536 1.28c.615.74 1.725.758 2.393.09l-1.414-1.414zm-4.132 5.46c.762.587 1.827.383 2.363-.368l-1.627-1.162a.34.34 0 01.483-.055l-1.22 1.585zm-.37-2.301c-.512.74-.332 1.761.37 2.301l1.22-1.585c.07.054.103.125.113.186.01.06.002.149-.058.236l-1.644-1.138zm.023-.031l1.6 1.2-1.6-1.2zm0 0l1.6 1.2-1.6-1.2zm0 0l1.6 1.2-1.6-1.2zm0 0l1.6 1.2-1.6-1.2zm0 0l1.6 1.2-1.6-1.2zm0 0l1.6 1.2-1.6-1.2zm0 0l1.6 1.2-1.6-1.2zm.73-.963c-.277.327-.524.674-.744.982l1.628 1.162c.227-.32.428-.598.643-.853l-1.527-1.292zm1.3-.6c-.486 0-.967.211-1.296.595l1.519 1.301a.288.288 0 01-.222.103v-2zm1.028.353a1.668 1.668 0 00-1.028-.354v2a.3.3 0 01-.094-.014.399.399 0 01-.127-.07l1.249-1.562zm.28 2.33c.543-.705.457-1.764-.295-2.342l-1.22 1.585a.328.328 0 01-.07-.462l1.585 1.22zm0 0l-1.585-1.22 1.585 1.22zm-.62.832c.185-.266.393-.537.62-.832l-1.585-1.22c-.221.288-.46.599-.679.914l1.645 1.138zm-4.324 3.305a.33.33 0 01.434-.17l-.845 1.812c.807.377 1.82.068 2.224-.796l-1.813-.846zm.553-1.036c-.189.33-.376.682-.541 1.011l1.789.895c.149-.298.319-.617.488-.913l-1.736-.993zm.129.461a.343.343 0 01-.163-.205.31.31 0 01.02-.23l1.764.941c.426-.798.168-1.818-.68-2.27l-.941 1.764zm.066.033l.029.011.752-1.853-.03-.011-.751 1.853zm-.023-.01l.018.008.761-1.85-.019-.007-.76 1.85zm.038.015l.684-1.88-.684 1.88zm.076-.01a.542.542 0 01-.15-.02l-.009-.003.044.018.762-1.85c-.066-.026-.323-.145-.647-.145v2zm.313-.194a.355.355 0 01-.313.194v-2c-.617 0-1.191.342-1.476.911l1.789.895zm-.55 1.03l.538-1.007-1.765-.941-.537 1.007 1.765.941zm-.12-.436a.326.326 0 01.12.436l-1.764-.941a1.674 1.674 0 00.703 2.27l.941-1.765zm66.364 16.18a.321.321 0 01.028-.417l1.48 1.345c.585-.643.547-1.586.028-2.208l-1.536 1.28zm-78.146.021c21.935-24.901 56.251-24.88 78.164 0l1.5-1.322C57.875 6.518 22.15 6.495-.582 32.301l1.501 1.322zm.018-.406a.321.321 0 01-.028.418l-1.48-1.345c-.585.643-.547 1.585-.028 2.208l1.536-1.28zm78.146-.02c-21.935 24.9-56.251 24.88-78.164 0l-1.5 1.321c22.708 25.784 58.433 25.806 81.165 0l-1.501-1.322zm-76.76.88c21.242-23.68 54.07-23.724 75.356 0l1.489-1.335C57.085 8.131 22.869 8.177.833 32.742l1.489 1.336zm75.356-1.335c-21.242 23.68-54.07 23.724-75.356 0L.833 34.078c22.082 24.61 56.298 24.565 78.334 0l-1.489-1.336zM40 16.298c-9.436 0-17.112 7.676-17.112 17.112h2c0-8.332 6.78-15.112 15.112-15.112v-2zM57.112 33.41c0-9.436-7.676-17.112-17.112-17.112v2c8.332 0 15.112 6.78 15.112 15.112h2zM40 50.522c9.436 0 17.112-7.676 17.112-17.112h-2c0 8.331-6.78 15.112-15.112 15.112v2zM22.888 33.41c0 9.436 7.676 17.112 17.112 17.112v-2c-8.332 0-15.112-6.78-15.112-15.112h-2zM40 47.179c-7.593 0-13.77-6.176-13.77-13.77h-2c0 8.699 7.072 15.77 15.77 15.77v-2zm13.77-13.77c0 7.594-6.177 13.77-13.77 13.77v2c8.698 0 15.77-7.072 15.77-15.77h-2zM40 19.642c7.593 0 13.77 6.176 13.77 13.769h2c0-8.698-7.072-15.77-15.77-15.77v2zM26.23 33.41c0-7.593 6.177-13.77 13.77-13.77v-2c-8.698 0-15.77 7.072-15.77 15.77h2zm12.002-10.301l-.515-1.41-1.879.686.515 1.41 1.879-.686zm14.65 10.97c-.024-8.208-8.014-14.141-15.899-11.578l.619 1.902c6.57-2.136 13.26 2.805 13.28 9.681l2-.006zM40.716 46.247c6.706 0 12.166-5.46 12.166-12.167h-2c0 5.602-4.564 10.167-10.166 10.167v2zm-11.63-15.751c-2.414 7.828 3.462 15.75 11.63 15.75v-2c-6.825 0-11.735-6.623-9.719-13.16l-1.91-.59zm-.863.697l1.477.537.684-1.88-1.477-.536-.684 1.88zm-.997-2.163a1.67 1.67 0 00.988 2.16l.702-1.873a.332.332 0 01.182.415l-1.872-.702zm8.333-8.33c-3.858 1.423-6.89 4.482-8.333 8.33l1.873.702c1.242-3.314 3.85-5.938 7.152-7.156l-.692-1.876zm2.147.97c-.313-.782-1.228-1.315-2.152-.968l.702 1.873a.343.343 0 01-.265-.01.284.284 0 01-.142-.153l1.857-.742zM30.6 29.626a10.796 10.796 0 015.55-5.55l-.803-1.831a12.797 12.797 0 00-6.58 6.579l1.833.802zm9.053 2.22l-9.622-3.559-.694 1.876 9.622 3.558.694-1.876zM35.176 24.5c.919 2.496 2.512 6.823 3.194 8.635l1.872-.704c-.678-1.803-2.269-6.122-3.19-8.622l-1.876.69zm.003.01l1.87-.712-1.87.712zm-.37-1.004l.367.993 1.876-.69-.365-.994-1.877.691zm-4.449 7.445c-2.097 6.957 3.156 13.931 10.356 13.931v-2c-5.869 0-10.148-5.69-8.441-11.354l-1.915-.577zm10.21 2.64l-8.906-3.29-.693 1.876 8.906 3.29.693-1.876zm-.422.381a.303.303 0 01.068-.304.355.355 0 01.359-.075l-.702 1.872c1.4.525 2.591-.869 2.172-2.125l-1.897.632zm-3.302-8.943l3.312 8.973 1.877-.692-3.312-8.974-1.877.693zm14.716 9.007c0-7.248-7.073-12.527-14.08-10.307l.605 1.907c5.704-1.808 11.475 2.491 11.475 8.4h2zM40.716 44.882c5.974 0 10.797-4.86 10.846-10.837l-2-.017c-.04 4.898-3.989 8.855-8.846 8.855v2zM26.882 20.765a.352.352 0 01-.031-.504l1.414 1.414c.641-.641.688-1.725-.031-2.384l-1.352 1.474zm.473-.061a.352.352 0 01-.504.031l1.414-1.414c-.641-.641-1.725-.688-2.384.031l1.474 1.352zm-.03 25.38c-6.993-6.971-6.994-18.354 0-25.349l-1.414-1.414c-7.774 7.774-7.776 20.425.001 28.179l1.412-1.417zm-.237-.091a.36.36 0 01.14.026.301.301 0 01.097.066l-1.414 1.414c.322.322.756.494 1.177.494v-2zm-.237.566a.345.345 0 01-.072-.366.34.34 0 01.31-.2v2c1.45 0 2.247-1.778 1.176-2.848l-1.414 1.414zm-.001-26.297c-7.237 7.26-7.237 19.035 0 26.296l1.416-1.412c-6.458-6.48-6.458-16.992 0-23.472l-1.416-1.412zm24.885-.941c-.641.641-.688 1.725.031 2.384l1.352-1.474c.181.166.135.4.031.504l-1.414-1.414zm2.354 0c-.641-.641-1.725-.688-2.384.031l1.474 1.352a.352.352 0 01-.504.031l1.414-1.414zm0 28.178c7.775-7.775 7.776-20.426-.001-28.18l-1.412 1.417c6.992 6.971 6.993 18.354-.001 25.348l1.414 1.415zm-2.354 0c.641.64 1.725.687 2.384-.032l-1.474-1.351a.352.352 0 01.504-.032L51.735 47.5zm0-2.354c-.641.64-.688 1.725.031 2.384l1.352-1.475c.181.167.135.4.031.505l-1.414-1.414zm0-23.47c6.456 6.456 6.458 16.99-.001 23.47l1.416 1.413c7.236-7.26 7.238-19.059 0-26.297l-1.415 1.414z" fill="url(#paint0_linear)" mask="url(#path-1-inside-1)"/><defs><linearGradient id="paint0_linear" x1="19.456" y1="113.903" x2="137.361" y2="34.336" gradientUnits="userSpaceOnUse"><stop stop-color="#608DCD"/><stop offset="1" stop-color="#616FCF"/></linearGradient></defs></svg>