<svg width="91" height="51" fill="none" xmlns="http://www.w3.org/2000/svg"><mask id="path-1-inside-1" fill="#fff"><path fill-rule="evenodd" clip-rule="evenodd" d="M84.97 7.432h-3.286V4.685c0-.327-.288-.519-.615-.519h-2.844v-2.69c0-.326-.288-.576-.614-.576H16.09c-.327 0-.5.269-.5.576v18.54c-3.343-.057-7.205.347-10.298 1.5C2.526 22.552.989 23.994.989 25.607c0 .864.461 1.71 1.326 2.44-1.749 1.499-1.787 3.362.019 4.919-1.749 1.479-1.845 3.362 0 4.937-1.749 1.48-1.825 3.382 0 4.938-1.095.922-1.345 1.825-1.345 2.46 0 1.594 1.518 3.054 4.284 4.092 5.726 2.151 15.236 1.998 20.405-.462 5.456 1.326 13.449-.019 13.449-3.17 0-.403-.154-.96-.75-1.537.884-.845.923-1.825.404-2.574H84.95c.327 0 .557-.27.557-.596V8.066c.02-.326-.211-.634-.538-.634zm-4.44 0H23.469c-.326 0-.576.308-.576.634v12.93c-.313-.066-.54-.122-.76-.176-.347-.085-.68-.167-1.315-.284-.023 0-.032-.007-.04-.012-.005-.004-.01-.008-.018-.008l-.082-.016a4.66 4.66 0 00-.475-.08V5.32h60.329v2.113zm-3.457-5.38h-60.33v18.003c.77.039 1.538.096 2.306.192V4.685c0-.308.192-.519.519-.519h57.505V2.053zM14.938 21.19c7.531 0 12.795 2.344 12.795 4.438s-5.245 4.438-12.795 4.438c-7.532 0-12.796-2.344-12.796-4.438 0-2.113 5.264-4.438 12.796-4.438zm15.35 20.961c4.785 0 7.705-1.48 7.705-2.536 0-.326-.269-.615-.538-.826-1.71.96-4.495 1.46-7.166 1.46-.48 0-.96 0-1.422-.038.038.672-.192 1.287-.596 1.844a23.6 23.6 0 002.018.096zm7.705.519c0 1.057-2.92 2.536-7.704 2.536-.48 0-.942-.02-1.422-.057-.038-.558-.269-1.269-1.018-2.018a.387.387 0 00.211.058c.73.077 1.48.115 2.229.115 2.67 0 5.456-.5 7.166-1.46.27.211.538.5.538.826zM30.29 31.007c-.48 0-.98.019-1.48.057a2.38 2.38 0 01-.403.903c-.192.327-.48.654-.884 1 .942.787 1.556 1.844 1.287 3.035.48.02.98.038 1.48.038 4.784 0 7.704-1.46 7.704-2.516 0-1.038-2.94-2.517-7.704-2.517zm-2.018 6.129a22.91 22.91 0 002.018.096c2.69 0 5.476-.5 7.185-1.46.25.21.5.5.5.806 0 1.057-2.92 2.537-7.704 2.537-.596 0-1.192-.02-1.787-.077-.212-.365-.519-.73-.96-1.115a5.6 5.6 0 00.748-.787zm-.634 5.783l-.057-.115c-.02 0-.039.019-.039.038.02.01.034.024.048.038.015.015.03.03.048.039zm10.798-7.858c.442-.442.711-.942.711-1.518 0-2.383-4.553-3.67-8.857-3.67-.48 0-.98.02-1.48.058-.134-.538-.48-1.191-1.248-1.845.864-.749 1.268-1.575 1.268-2.44 0-.787-.365-1.556-1.134-2.248v-5.725a5.989 5.989 0 005.418-5.418h42.23c.27 2.882 2.498 5.149 5.38 5.418v13.776a5.914 5.914 0 00-5.38 5.38H39.127c0-.118.007-.157.013-.187a.291.291 0 00.006-.064c0-.384-.154-.96-.71-1.517zm-11.854-6.302c-5.457 3.285-17.945 3.247-23.306 0-.557.422-1.133 1.037-1.133 1.748 0 2.094 5.264 4.438 12.796 4.438 7.05 0 12.104-2.055 12.719-4.034.269-.865-.346-1.595-1.076-2.152zm-23.267 4.9c5.456 3.265 17.849 3.227 23.228 0 .577.422 1.191 1.056 1.191 1.767 0 2.094-5.245 4.438-12.795 4.438-7.532 0-12.796-2.344-12.796-4.438 0-.711.595-1.326 1.172-1.768zm23.247 4.937c-5.34 3.19-17.733 3.305-23.247 0-.577.442-1.172 1.057-1.172 1.787 0 2.094 5.264 4.438 12.796 4.438 7.55 0 12.795-2.344 12.795-4.438 0-.173-.038-.346-.096-.5a.681.681 0 01-.076-.173c-.212-.442-.596-.826-1-1.114zM14.938 49.739c-7.532 0-12.796-2.344-12.796-4.438 0-.71.595-1.345 1.172-1.767 5.36 3.227 17.791 3.266 23.247 0 .577.422 1.134 1.018 1.172 1.729-.172.154-.23.403-.134.653-.884 1.902-5.84 3.823-12.661 3.823zm15.35-1.46c4.785 0 7.705-1.48 7.705-2.536 0-.327-.288-.634-.557-.826-1.71.941-4.477 1.44-7.147 1.44-.538 0-1.076-.018-1.614-.057-.269.615-.769 1.21-1.499 1.749.98.153 2.037.23 3.113.23zm54.086-7.8h-45.44c.135-.192.212-.557.212-.865 0-.403-.134-.941-.73-1.498l.048-.055c.034-.042.065-.08.106-.08h37.31c.327 0 .577-.288.577-.596 0-2.632 2.17-4.784 4.803-4.784.327 0 .615-.269.615-.595v-14.91c0-.326-.288-.576-.615-.576-2.632 0-4.803-2.19-4.803-4.822 0-.327-.27-.615-.596-.615H32.556c-.327 0-.576.307-.576.615 0 2.632-2.19 4.803-4.823 4.803-.326 0-.615.288-.615.595v5.419a11.388 11.388 0 00-1.998-.98c-.077-.026-.147-.056-.218-.086-.087-.037-.175-.075-.281-.106V8.585h60.329V40.48zM63.104 24.55c0 4.9-3.976 8.877-8.876 8.877-4.899 0-8.876-3.977-8.876-8.877s3.977-8.876 8.876-8.876c4.9 0 8.877 3.977 8.877 8.876zm-1.152 0a7.724 7.724 0 10-15.448.001 7.724 7.724 0 0015.448 0zm-8.646 2.094a1.897 1.897 0 01-.327-.749l-1.402.173c.115.71.346 1.249.75 1.633.384.384.94.615 1.517.692v.941h.768v-.941c.77-.115 1.269-.384 1.672-.826.404-.442.596-1 .596-1.653 0-.576-.173-1.056-.48-1.44-.308-.366-.827-.673-1.788-.904v-2.113c.385.154.577.442.673.864l1.383-.172c-.192-1.057-.883-1.749-2.056-1.883v-.538h-.768v.518c-1.21.135-2.037.961-2.037 2.19 0 .577.154 1.077.48 1.5.327.403.77.71 1.538.922v2.267a1.741 1.741 0 01-.519-.48zm1.287-1.575c.385.096.577.23.711.403.308.385.308.923-.038 1.326l-.009.01c-.168.187-.286.318-.664.374V25.07zm-.768-3.65c-.73.288-.826.998-.519 1.479.115.153.327.288.519.403V21.42zm21.768 25.207c.327 0 .577-.25.577-.577a.566.566 0 00-.577-.576H42.604a.566.566 0 00-.576.577c0 .326.25.576.576.576h32.99zm-13.66 1.921h22.825c.307 0 .576.25.576.577 0 .326-.25.576-.576.576H61.933a.566.566 0 01-.577-.576c0-.327.25-.577.577-.577zm28.012 0h-2.843a.566.566 0 00-.577.577c0 .326.25.576.577.576h2.843c.327 0 .577-.25.577-.576a.578.578 0 00-.577-.577zm-48.628-.192h10.817c.307 0 .577.25.577.576 0 .327-.25.577-.577.577H41.317a.566.566 0 01-.576-.577c0-.326.25-.576.576-.576z"/></mask><path d="M81.684 7.432h-1v1h1v-1zm-3.459-3.266h-1v1h1v-1zm-62.634 15.85l-.017 1 1.017.018v-1.017h-1zm-10.298 1.5l-.35-.938-.001.001.35.936zm-2.978 6.532l.65.76.893-.766-.898-.758-.645.764zm.019 4.919l.646.763.894-.757-.887-.764-.653.758zm0 4.937l.646.764.898-.76-.895-.764-.65.76zm0 4.938l.644.765.903-.76-.898-.766-.65.761zm2.94 6.552l.351-.936-.352.936zm20.404-.462l.236-.971-.345-.084-.321.152.43.903zm12.7-4.707l-.692-.722-.75.718.746.723.695-.719zm.403-2.574v-1h-1.909l1.087 1.569.822-.57zM85.507 8.066l-.998-.058-.002.029v.03h1zm-4.976-.634v1h1v-1h-1zM22.89 20.997l-.209.977 1.21.26v-1.237h-1zm-.759-.177l-.316.949.039.013.04.01.237-.972zm0 0l.317-.948-.039-.013-.04-.01-.238.971zm-1.315-.284l.182-.984-.09-.016h-.092v1zm-.04-.012l-.577.816.577-.816zm-.018-.008l-.198.98.098.02h.1v-1zm-.082-.016l-.217.976.01.002.01.002.197-.98zm0 0l.217-.976-.009-.002-.01-.002-.198.98zm-.475-.08h-1v.905l.9.09.1-.995zm0-15.101v-1h-1v1h1zm60.329 0h1v-1h-1v1zM16.744 2.053v-1h-1v1h1zm60.329 0h1v-1h-1v1zm-60.33 18.002h-1v.951l.95.048.05-.999zm2.306.192l-.124.993 1.124.14v-1.133h-1zm58.024-16.08v1h1v-1h-1zm-39.618 34.62l.618-.786-.525-.413-.583.327.49.872zm-8.588 1.422l.083-.997-1.147-.095.066 1.149.998-.057zm-.596 1.844l-.81-.586-1.036 1.432 1.761.15.085-.996zm.596 3.093l-.998.07.06.859.858.068.08-.996zM27.85 43.13l.555-.832-1.262 1.54.707-.708zm.211.058l.105-.995-.052-.005h-.053v1zm9.395-1.345l.618-.786-.525-.413-.583.327.49.872zM28.81 31.064l-.076-.997-.765.06-.141.753.982.184zm-.403.903l-.814-.58-.025.035-.023.038.862.507zm-.884 1l-.65-.76-.897.769.905.757.642-.766zm1.287 3.035l-.975-.22-.264 1.171 1.2.048.04-.999zm-.538 1.134l.088-.996-.546-.049-.334.435.793.61zm9.203-1.364l.647-.764-.53-.449-.606.34.49.873zm-8.991 3.266l-.866.5.258.446.512.05.096-.996zm-.96-1.115l-.66-.752-.862.755.865.752.656-.755zm.057 4.88l.894-.447-.276-.553h-.618v1zm.057.116l-.447.894 2.684 1.342-1.342-2.683-.895.447zm-.096-.077h-1v.618l.553.276.447-.894zm.048.038l.708-.707-.708.707zm10.846-7.82l-.707-.706-.707.707.707.707.707-.707zm-9.626-5.13l-.97.243.205.82.842-.065-.077-.997zm-1.248-1.844l-.655-.755-.88.763.887.754.648-.762zm.134-4.688h-1v.446l.331.298.67-.744zm0-5.725l-.093-.996-.907.085v.91h1zm5.418-5.418v-1h-.91l-.086.907.996.093zm42.23 0l.996-.093-.085-.907h-.91v1zm5.38 5.418h1v-.911l-.907-.085-.093.996zm0 13.776l.093.995.907-.084v-.911h-1zm-5.38 5.38v1h.911l.085-.908-.996-.093zm-36.216 0h-1v1h1v-1zm.013-.187l.982.185-.982-.184zM3.275 28.76l.518-.855-.58-.352-.542.41.604.797zm23.306 0l.606-.795-.54-.412-.582.35.516.857zm1.076 2.152l-.955-.297.955.297zm-1.115 2.747l.592-.806-.536-.393-.57.342.514.857zm-23.228 0l.513-.858-.583-.349-.539.413.609.794zm0 4.938l.514-.858-.583-.35-.54.414.609.794zm23.247 0l.582-.814-.533-.38-.561.335.512.859zm1.076 1.287l.937-.351-.04-.108-.064-.096-.833.555zm-.076-.173l.948-.316-.02-.06-.026-.055-.902.431zM3.314 43.534l.516-.857-.57-.343-.538.393.592.807zm23.247 0l.592-.807-.535-.392-.57.34.514.859zm1.172 1.729l.665.747.36-.32-.026-.481-.998.054zm-.134.653l.907.421.179-.384-.153-.396-.933.359zm9.837-.999l.581-.814-.512-.366-.551.304.482.876zM28.675 46.3l.071-.997-.704-.05-.283.647.916.4zm-1.499 1.749l-.593-.805-1.93 1.421 2.368.372.155-.988zm11.759-7.57l-.82-.574-1.1 1.574h1.92v-1zm45.439 0v1h1v-1h-1zm-45.958-2.363l-.707-.708-.731.731.755.707.683-.73zm.048-.055l.773.634-.773-.634zM26.542 22.515l-.514.857 1.514.909v-1.766h-1zm-1.998-.98l.344-.94-.014-.004-.014-.005-.316.949zm-.218-.086l.392-.92-.392.92zm-.281-.106h-1v.744l.712.213.288-.957zm0-12.758v-1h-1v1h1zm60.329 0h1v-1h-1v1zM52.979 25.896l.981-.196-.182-.91-.92.114.121.992zm.327.75l-.809.587.81-.588zm-1.73-.577l-.121-.992-1.032.127.167 1.025.987-.16zm.75 1.633l.707-.707-.008-.009-.01-.008-.689.724zm1.518.692h1v-.876l-.868-.116-.132.992zm0 .941h-1v1h1v-1zm.768 0v1h1v-1h-1zm0-.941l-.148-.99-.852.129v.86h1zm1.672-.826l-.738-.675.738.675zm.115-3.094l.781-.624-.008-.01-.008-.01-.765.644zm-1.787-.903h-1v.789l.767.184.233-.973zm0-2.113l.372-.929-1.372-.548v1.477h1zm.673.864l-.975.222.2.883.899-.112-.124-.993zm1.383-.172l.124.992 1.05-.131-.19-1.04-.984.178zm-2.056-1.883h-1v.892l.886.101.114-.993zm0-.538h1v-1h-1v1zm-.768 0v-1h-1v1h1zm0 .518l.11.994.89-.099v-.895h-1zm-1.556 3.69l-.791.61.006.01.008.009.777-.63zm1.537.922h1v-.763l-.735-.202-.265.965zm0 2.267l-.515.857 1.515.909v-1.766h-1zm1.48-1.653l-.79.614.008.011.781-.625zm-.712-.403l.243-.97-1.243-.31v1.28h1zm.673 1.73l.743.668.008-.009.008-.01-.76-.65zm-.009.009l-.743-.67v.001l.743.669zm-.664.374h-1v1.162l1.149-.173-.149-.989zM53.306 22.9l-.842.539.02.031.022.03.8-.6zm.519-1.48h1v-1.47l-1.367.54.367.93zm0 1.883l-.515.858 1.515.909v-1.767h-1zm27.859-14.87h3.285v-2h-3.285v2zm-1-3.747v2.747h2V4.685h-2zm.385.481a.313.313 0 01-.189-.077.516.516 0 01-.196-.404h2c0-.49-.229-.902-.567-1.168-.317-.25-.7-.35-1.048-.35v2zm-2.844 0h2.844v-2h-2.844v2zm-1-3.69v2.69h2v-2.69h-2zm.386.424a.361.361 0 01-.246-.097.447.447 0 01-.14-.327h2c0-.96-.821-1.576-1.614-1.576v2zm-61.52 0h61.52v-2H16.09v2zm.5-.424a.364.364 0 01-.09.22.553.553 0 01-.41.204v-2c-.47 0-.882.207-1.155.55a1.645 1.645 0 00-.345 1.026h2zm0 18.54V1.477h-2v18.54h2zM5.64 22.454c2.935-1.094 6.66-1.493 9.933-1.436l.034-2c-3.414-.059-7.412.35-10.665 1.561l.699 1.875zm-3.65 3.154c0-.46.211-.977.802-1.537.6-.568 1.543-1.128 2.853-1.62l-.702-1.872c-1.457.546-2.666 1.225-3.526 2.04-.87.824-1.427 1.834-1.427 2.989h2zm.97 1.676c-.715-.604-.97-1.193-.97-1.676h-2c0 1.246.667 2.348 1.68 3.204l1.29-1.528zm.028 4.925c-.757-.652-.997-1.25-.996-1.72.002-.472.247-1.058.974-1.682L1.664 27.29c-1.02.874-1.67 1.97-1.673 3.194-.003 1.225.64 2.336 1.69 3.241l1.306-1.515zm-.004 4.935c-.77-.658-1.003-1.26-.997-1.73.007-.478.265-1.067.994-1.684l-1.292-1.527c-1.02.862-1.684 1.954-1.701 3.182-.018 1.236.623 2.362 1.697 3.28l1.3-1.521zm0 4.937c-.758-.646-.995-1.25-.99-1.726.006-.481.262-1.074.987-1.687L1.688 37.14c-1.024.866-1.68 1.964-1.694 3.192-.014 1.234.623 2.36 1.691 3.27l1.298-1.522zm-.994 3.22c0-.328.111-.955.989-1.694l-1.288-1.53C.377 43.182-.011 44.361-.011 45.301h2zm3.636 3.156c-1.307-.49-2.245-1.054-2.84-1.623-.587-.562-.796-1.08-.796-1.533h-2c0 1.143.55 2.152 1.413 2.978.856.818 2.06 1.503 3.52 2.05l.703-1.872zm19.623-.428c-2.408 1.146-5.921 1.788-9.584 1.863-3.656.076-7.33-.416-10.039-1.434l-.703 1.872c3.016 1.134 6.96 1.64 10.783 1.562 3.816-.078 7.642-.743 10.402-2.056l-.859-1.806zm12.879-2.267c0 .309-.186.717-.884 1.176-.69.453-1.725.841-3 1.11-2.546.536-5.757.538-8.33-.087l-.471 1.943c2.883.7 6.397.693 9.212.1 1.405-.295 2.71-.752 3.688-1.395.971-.638 1.785-1.58 1.785-2.847h-2zm-.445-.818c.408.394.445.695.445.818h2c0-.683-.27-1.497-1.054-2.255l-1.39 1.437zm.277-2.724a.792.792 0 01.154.559c-.022.177-.121.431-.427.724l1.383 1.445c.578-.553.94-1.212 1.029-1.923a2.79 2.79 0 00-.495-1.944L37.96 42.22zm46.99-1.57H38.782v2H84.95v-2zm-.442.405c0-.07.026-.166.105-.253a.466.466 0 01.338-.151v2c.964 0 1.557-.807 1.557-1.596h-2zm0-32.989v32.99h2V8.065h-2zm.462.366a.49.49 0 01-.376-.173.36.36 0 01-.084-.251l1.996.117c.045-.758-.5-1.693-1.536-1.693v2zm-61.5 0h57.06v-2H23.468v2zm.423-.366c0 .086-.03.16-.083.22a.456.456 0 01-.34.146v-2c-.998 0-1.577.882-1.577 1.634h2zm0 12.93V8.067h-2v12.93h2zm-1.998.795c.222.055.46.113.788.183l.42-1.955a22.84 22.84 0 01-.731-.17l-.477 1.942zm-.078-.022l.633-1.897-.633 1.897zm-1.181-.25c.608.113.92.19 1.26.272l.476-1.942c-.357-.087-.71-.174-1.372-.297l-.364 1.967zm-.435-.179a1.071 1.071 0 00.617.195v-2a.93.93 0 01.331.062c.122.047.208.111.207.11L20.2 21.34zm.56.176a.977.977 0 01-.409-.089c-.095-.044-.168-.099-.151-.087l1.155-1.633c-.007-.005-.243-.19-.596-.19v2zm-.28-.036l.081.017.396-1.96-.082-.017-.396 1.96zm-.02-.004l.434-1.952-.434 1.952zm-.358-.06c.107.01.21.03.376.064l.398-1.96a5.588 5.588 0 00-.575-.095l-.198 1.99zm-.9-16.097V20.42h2V5.32h-2zm61.329-1h-60.33v2h60.329v-2zm1 3.113V5.32h-2v2.113h2zm-64.787-4.38h60.329v-2h-60.33v2zm1 17.003V2.053h-2v18.002h2zm1.43-.8c-.801-.1-1.596-.16-2.38-.198l-.1 1.997a30.05 30.05 0 012.231.186l.248-1.985zM18.05 4.685v15.562h2V4.685h-2zm1.519-1.519c-.385 0-.79.13-1.098.447a1.52 1.52 0 00-.42 1.072h2a.487.487 0 01-.147.323.494.494 0 01-.335.158v-2zm57.505 0H19.568v2h57.505v-2zm-1-1.113v2.113h2V2.053h-2zm-47.34 23.574c0-.955-.59-1.748-1.296-2.342-.728-.612-1.734-1.151-2.926-1.599-2.392-.898-5.714-1.497-9.573-1.497v2c3.672 0 6.747.573 8.87 1.37 1.066.4 1.847.84 2.341 1.256.517.434.584.72.584.812h2zm-13.795 5.438c3.869 0 7.19-.599 9.581-1.497 1.19-.448 2.195-.987 2.922-1.6.705-.595 1.293-1.387 1.293-2.34h-2c0 .093-.069.378-.583.812-.493.415-1.271.855-2.336 1.255-2.12.797-5.196 1.37-8.877 1.37v2zM1.142 25.627c0 .955.59 1.748 1.296 2.342.728.613 1.734 1.151 2.926 1.599 2.392.898 5.714 1.497 9.574 1.497v-2c-3.672 0-6.748-.572-8.871-1.37-1.066-.4-1.847-.84-2.341-1.256-.516-.434-.584-.72-.584-.812h-2zm13.796-5.438c-3.859 0-7.18.594-9.573 1.49-1.192.446-2.199.984-2.927 1.598-.709.598-1.296 1.393-1.296 2.35h2c0-.1.07-.387.584-.82.494-.417 1.274-.856 2.34-1.255 2.123-.795 5.199-1.363 8.872-1.363v-2zm22.055 19.425c0-.19.107-.155-.167.07-.236.196-.643.432-1.245.66-1.193.45-2.995.806-5.292.806v2c2.487 0 4.537-.383 6-.936.727-.275 1.349-.606 1.81-.986.423-.35.894-.895.894-1.614h-2zm-.156-.04c.045.035.084.07.116.1a.582.582 0 01.062.07c.026.037-.022-.012-.022-.13h2c0-.444-.182-.8-.358-1.043a2.916 2.916 0 00-.562-.57l-1.236 1.573zm-6.548 1.674c2.747 0 5.731-.507 7.656-1.588l-.98-1.744c-1.495.84-4.082 1.332-6.676 1.332v2zm-1.505-.042c.51.043 1.033.042 1.505.042v-2c-.489 0-.927 0-1.339-.035l-.166 1.993zm.297 1.435c.505-.696.839-1.534.785-2.488l-1.997.114c.022.39-.105.782-.407 1.2l1.62 1.174zm1.208-1.49c-.635 0-1.278-.037-1.932-.093l-.17 1.993c.69.059 1.392.1 2.102.1v-2zm0 5.054c2.487 0 4.537-.383 6-.936.727-.275 1.349-.607 1.81-.986.423-.35.894-.895.894-1.614h-2c0-.19.107-.155-.167.07-.236.195-.643.432-1.245.659-1.193.45-2.995.807-5.292.807v2zm-1.502-.06c.506.04.994.06 1.502.06v-2c-.453 0-.887-.018-1.342-.054l-.16 1.993zm-1.645-2.308c.58.581.706 1.066.727 1.38l1.996-.138c-.055-.801-.391-1.738-1.31-2.656l-1.413 1.414zm.918-1.65c.043 0 .092.006.145.02a.68.68 0 01.199.091l-1.11 1.664c.259.172.54.226.766.226v-2zm2.229.116c-.716 0-1.43-.037-2.124-.11l-.21 1.99c.767.08 1.55.12 2.334.12v-2zm6.676-1.332c-1.495.84-4.082 1.332-6.676 1.332v2c2.747 0 5.731-.507 7.656-1.588l-.98-1.744zm2.028 1.698c0-.444-.182-.8-.358-1.043a2.913 2.913 0 00-.562-.57l-1.236 1.573c.045.035.084.069.116.1a.591.591 0 01.062.07c.026.036-.022-.012-.022-.13h2zM28.886 32.061a18.69 18.69 0 011.403-.054v-2c-.507 0-1.032.02-1.556.06l.153 1.994zm.334.488c.258-.361.482-.821.572-1.3l-1.965-.369a1.393 1.393 0 01-.235.506l1.628 1.163zm-1.047 1.177c.457-.392.83-.8 1.095-1.252l-1.724-1.014c-.12.203-.323.448-.673.747l1.302 1.519zm1.612 2.496c.386-1.708-.534-3.113-1.621-4.023l-1.284 1.534c.797.667 1.106 1.374.954 2.049l1.95.44zm.504-1.181c-.477 0-.958-.019-1.44-.038L28.77 37c.48.02.998.04 1.52.04v-2zm6.704-1.517c0-.192.108-.158-.165.065-.235.193-.642.428-1.244.653-1.193.447-2.997.799-5.295.799v2c2.485 0 4.534-.379 5.997-.926.726-.272 1.349-.601 1.81-.979.424-.347.897-.893.897-1.612h-2zm-6.704-1.517c2.287 0 4.09.356 5.287.805.604.227 1.014.462 1.253.657.28.227.164.258.164.055h2c0-.722-.483-1.266-.903-1.607-.46-.375-1.083-.704-1.81-.977-1.464-.55-3.513-.933-5.991-.933v2zm0 4.225c-.655 0-1.297-.037-1.93-.092l-.175 1.992c.674.06 1.376.1 2.105.1v-2zm6.696-1.332c-1.495.84-4.083 1.332-6.696 1.332v2c2.766 0 5.75-.507 7.675-1.589l-.98-1.743zm1.99 1.678c0-.425-.172-.77-.332-1.004a2.912 2.912 0 00-.523-.566l-1.291 1.527c.04.034.075.067.104.098a.59.59 0 01.06.07c.01.017.008.016 0-.002a.357.357 0 01-.019-.123h2zm-8.705 3.537c2.487 0 4.537-.384 6-.937.726-.274 1.348-.606 1.81-.986.422-.349.894-.895.894-1.614h-2c0-.19.107-.155-.167.07-.237.196-.644.432-1.245.66-1.193.45-2.995.807-5.292.807v2zm-1.883-.082a19.4 19.4 0 001.883.082v-2c-.575 0-1.137-.019-1.69-.073l-.193 1.991zm-1.521-1.355c.379.33.607.612.751.86l1.731-1.001c-.278-.481-.665-.929-1.17-1.368l-1.312 1.509zm.613-2.152c-.15.194-.354.416-.615.645l1.317 1.505c.353-.309.648-.625.883-.93l-1.585-1.22zm-.794 6.725l.058.115 1.789-.894-.058-.116-1.789.895zm1.856-.409a.962.962 0 01-.961.962v-2a1.038 1.038 0 00-1.039 1.038h2zm-.244-.669c-.003-.002-.04-.04-.084-.077a1.128 1.128 0 00-.224-.148l-.895 1.788a.87.87 0 01-.173-.113c-.029-.025-.05-.047-.039-.035l1.415-1.415zm-.212-.149a.87.87 0 01.173.114c.029.025.05.047.039.035l-1.415 1.414c.003.003.039.04.084.078.05.042.124.098.224.148l.895-1.789zm10.061-8.481c0 .231-.099.491-.418.81l1.414 1.415c.565-.565 1.004-1.304 1.004-2.225h-2zm-7.857-2.67c2.07 0 4.16.312 5.696.88.77.284 1.342.612 1.704.947.351.323.457.601.457.843h2c0-.95-.464-1.726-1.1-2.314-.626-.576-1.462-1.017-2.368-1.352-1.817-.672-4.155-1.004-6.39-1.004v2zm-1.403.055c.475-.037.949-.055 1.403-.055v-2c-.507 0-1.032.02-1.556.06l.153 1.995zm-1.973-2.08c.623.53.847 1.007.926 1.325l1.94-.485c-.189-.757-.657-1.587-1.57-2.364l-1.296 1.524zm.916-3.202c0 .513-.226 1.08-.923 1.685l1.31 1.511c1.031-.894 1.613-1.979 1.613-3.196h-2zm-.803-1.504c.606.545.803 1.059.803 1.504h2c0-1.13-.534-2.153-1.465-2.99l-1.338 1.486zm-.33-6.47v5.726h2v-5.725h-2zm5.421-5.51a4.989 4.989 0 01-4.515 4.515l.186 1.992a6.989 6.989 0 006.32-6.321l-1.99-.186zm43.226-.907h-42.23v2h42.23v-2zm5.473 5.422c-2.395-.223-4.252-2.103-4.477-4.515l-1.991.186c.313 3.352 2.913 6.006 6.282 6.32l.186-1.99zm.907 14.772V17.673h-2v13.776h2zM76.34 36.92a4.914 4.914 0 014.477-4.477l-.186-1.991a6.914 6.914 0 00-6.282 6.282l1.991.186zm-37.212.907h36.216v-2H39.127v2zm-.97-1.37c-.018.095-.03.196-.03.37h2v-.037c0-.006 0-.005 0 0l-.001.012-.002.015-.002.01-1.965-.37zm-.01.12c0-.019 0-.047.004-.08.003-.029.008-.052.006-.04l1.966.369c.008-.044.023-.129.023-.248h-2zm-.419-.81c.368.368.418.69.418.81h2c0-.647-.258-1.479-1.004-2.224l-1.414 1.414zm-34.97-6.154c2.91 1.763 7.59 2.59 12.133 2.595 4.545.004 9.248-.812 12.206-2.594l-1.032-1.713c-2.498 1.504-6.768 2.311-11.172 2.306-4.405-.004-8.65-.82-11.1-2.304l-1.036 1.71zm.384.893c0-.078.031-.208.168-.396a2.8 2.8 0 01.57-.556l-1.21-1.593c-.324.247-.69.574-.98.977-.292.402-.548.936-.548 1.568h2zm11.796 3.438c-3.672 0-6.748-.572-8.871-1.37-1.066-.4-1.847-.84-2.341-1.256-.516-.434-.584-.72-.584-.812h-2c0 .955.59 1.748 1.296 2.342.728.613 1.734 1.151 2.926 1.599 2.392.898 5.714 1.497 9.574 1.497v-2zm11.764-3.331c-.06.19-.284.528-.875.944-.571.4-1.389.806-2.44 1.166-2.1.72-5.014 1.221-8.45 1.221v2c3.616 0 6.754-.526 9.098-1.329 1.17-.4 2.172-.881 2.941-1.422.75-.526 1.387-1.187 1.636-1.987l-1.91-.593zm-.728-1.06c.32.243.54.472.657.672.1.171.105.279.07.388l1.91.594c.236-.756.067-1.446-.255-1.995-.306-.52-.758-.936-1.169-1.25l-1.213 1.59zm.054 3.247c-2.462 1.477-6.69 2.288-11.072 2.292-4.381.005-8.629-.797-11.129-2.293L2.8 34.516c2.957 1.77 7.634 2.582 12.158 2.577 4.523-.005 9.18-.827 12.099-2.577l-1.03-1.715zm2.706 2.625c0-.648-.28-1.192-.58-1.593a4.929 4.929 0 00-1.02-.981l-1.183 1.613c.24.176.456.374.604.57.15.2.178.328.178.39h2zm-13.796 5.438c3.869 0 7.19-.6 9.581-1.498 1.19-.447 2.195-.986 2.922-1.599.705-.595 1.293-1.388 1.293-2.341h-2c0 .093-.069.379-.583.812-.493.416-1.271.856-2.336 1.256-2.12.797-5.196 1.37-8.877 1.37v2zM1.142 35.426c0 .955.59 1.748 1.296 2.342.728.612 1.734 1.15 2.926 1.598 2.392.899 5.714 1.498 9.574 1.498v-2c-3.672 0-6.748-.573-8.871-1.37-1.066-.4-1.847-.84-2.341-1.257-.516-.434-.584-.72-.584-.811h-2zm1.563-2.562c-.326.25-.698.58-.997.981-.297.401-.566.938-.566 1.58h2c0-.068.029-.194.173-.388s.357-.393.607-.585l-1.217-1.587zm.095 6.59c2.986 1.79 7.68 2.592 12.206 2.577 4.526-.014 9.171-.847 12.068-2.576l-1.025-1.718c-2.445 1.46-6.666 2.28-11.05 2.294-4.383.014-8.644-.778-11.171-2.293L2.8 39.454zm.342.929c0-.084.033-.216.175-.409.143-.194.355-.393.605-.584l-1.217-1.588c-.326.25-.7.58-.999.986-.3.408-.564.948-.564 1.595h2zm11.796 3.438c-3.672 0-6.748-.573-8.871-1.37-1.066-.4-1.847-.84-2.341-1.257-.516-.434-.584-.72-.584-.811h-2c0 .955.59 1.748 1.296 2.342.728.612 1.734 1.15 2.926 1.598 2.392.899 5.714 1.498 9.574 1.498v-2zm11.795-3.438c0 .093-.068.379-.582.812-.493.416-1.271.856-2.336 1.256-2.12.797-5.196 1.37-8.877 1.37v2c3.869 0 7.19-.6 9.581-1.498 1.19-.447 2.195-.986 2.922-1.599.705-.595 1.293-1.388 1.293-2.341h-2zm-.032-.149a.456.456 0 01.032.149h2c0-.316-.069-.609-.16-.851l-1.872.702zm-.09-.208c.017.049.072.228.194.412l1.665-1.11a.501.501 0 01.045.084l.003.008-.009-.026-1.897.633zm-.63-.616c.323.23.564.495.677.732l1.805-.863c-.31-.648-.837-1.152-1.32-1.497L25.98 39.41zM1.14 45.3c0 .955.59 1.748 1.297 2.342.728.613 1.734 1.151 2.926 1.599 2.392.898 5.714 1.497 9.574 1.497v-2c-3.672 0-6.748-.572-8.871-1.37-1.066-.4-1.847-.84-2.341-1.256-.516-.434-.584-.72-.584-.812h-2zm1.581-2.574c-.34.25-.716.583-1.016.99-.297.404-.564.945-.564 1.584h2c0-.071.03-.203.175-.399a2.76 2.76 0 01.588-.562l-1.183-1.613zm23.326-.051c-2.5 1.496-6.756 2.298-11.145 2.293-4.39-.005-8.622-.816-11.073-2.292L2.798 44.39c2.91 1.752 7.573 2.574 12.102 2.579 4.531.005 9.218-.807 12.175-2.577l-1.027-1.716zm2.684 2.533c-.064-1.189-.957-2.026-1.58-2.482L25.97 44.34c.53.39.752.744.765.977l1.997-.108zm-.2.348c.017.043.03.115.012.204a.466.466 0 01-.146.25l-1.329-1.496c-.518.461-.632 1.166-.403 1.76l1.866-.718zM14.938 50.74c3.498 0 6.549-.491 8.867-1.247 1.157-.378 2.157-.829 2.943-1.335.77-.495 1.423-1.099 1.758-1.82l-1.814-.842c-.107.23-.404.58-1.026.98-.605.389-1.437.775-2.481 1.115-2.087.68-4.925 1.15-8.247 1.15v2zm22.055-4.996c0-.19.107-.155-.167.07-.236.195-.643.432-1.245.659-1.193.451-2.995.807-5.292.807v2c2.487 0 4.537-.383 6-.936.727-.275 1.349-.607 1.81-.986.423-.35.894-.895.894-1.614h-2zm-.138-.012a.945.945 0 01.159.146c.012.017.01.017.002-.001a.36.36 0 01-.023-.133h2c0-.457-.198-.822-.376-1.061a2.744 2.744 0 00-.6-.579l-1.162 1.628zm-6.566 1.627c2.75 0 5.71-.508 7.63-1.565l-.965-1.752c-1.5.826-4.074 1.317-6.665 1.317v2zm-1.685-.06c.561.04 1.123.06 1.685.06v-2c-.514 0-1.029-.018-1.543-.055l-.142 1.995zm-.834 1.556c.833-.615 1.465-1.34 1.821-2.153L27.76 45.9c-.182.416-.55.882-1.176 1.344l1.187 1.61zm2.519-1.575a19.27 19.27 0 01-2.958-.218l-.31 1.976c1.037.162 2.146.242 3.268.242v-2zm8.646-5.8h45.439v-2h-45.44v2zm-.789-1.865a1.144 1.144 0 01-.052.324c-.006.016-.002 0 .021-.033l1.639 1.147c.17-.243.26-.521.31-.734.054-.229.082-.473.082-.704h-2zm-.413-.768c.205.192.302.353.35.467a.752.752 0 01.063.301h2c0-.668-.24-1.475-1.047-2.229l-1.366 1.46zm-.043-1.418l-.007.009a.182.182 0 010-.001l.026-.028 1.414 1.415c.058-.058.104-.116.114-.128l-1.547-1.267zm.88-.447c-.358 0-.6.174-.708.267-.096.083-.17.178-.172.18l1.547 1.267c.033-.04-.008.014-.07.068a.918.918 0 01-.597.218v-2zm37.311 0H38.57v2h37.31v-2zm-.423.404a.39.39 0 01.103-.27.44.44 0 01.32-.134v2c.942 0 1.577-.8 1.577-1.596h-2zm5.803-5.784c-3.18 0-5.803 2.595-5.803 5.785h2c0-2.075 1.718-3.785 3.803-3.785v-2zm-.385.405c0-.139.061-.243.123-.302a.374.374 0 01.262-.103v2c.838 0 1.615-.676 1.615-1.595h-2zm0-14.91v14.91h2v-14.91h-2zm.385.424a.36.36 0 01-.245-.096.447.447 0 01-.14-.328h2c0-.96-.822-1.576-1.615-1.576v2zm-5.803-5.822c0 3.179 2.613 5.822 5.803 5.822v-2c-2.075 0-3.803-1.737-3.803-3.822h-2zm.404.385a.418.418 0 01-.302-.124.375.375 0 01-.102-.261h2c0-.838-.676-1.615-1.596-1.615v2zm-43.306 0h43.306v-2H32.556v2zm.424-.385c0 .109-.04.189-.09.244a.45.45 0 01-.334.14v-2c-.98 0-1.576.862-1.576 1.616h2zM27.157 17.5c3.18 0 5.823-2.614 5.823-5.803h-2c0 2.074-1.738 3.803-3.823 3.803v2zm.385-.405a.415.415 0 01-.115.302.38.38 0 01-.27.103v-2c-.858 0-1.615.716-1.615 1.595h2zm0 5.419v-5.419h-2v5.419h2zm-3.341-.041c.704.258 1.278.569 1.827.898l1.029-1.715a12.376 12.376 0 00-2.17-1.061l-.686 1.878zm-.267-.105c.067.029.172.074.294.114l.632-1.897a1.945 1.945 0 01-.142-.057l-.784 1.84zm-.177-.069c.046.014.087.03.177.07l.784-1.841c-.084-.036-.22-.095-.386-.144l-.575 1.915zm-.712-13.715v12.758h2V8.585h-2zm61.329-1h-60.33v2h60.33v-2zm1 32.894V8.585h-2V40.48h2zm-31.146-6.051c5.452 0 9.877-4.425 9.877-9.877h-2a7.88 7.88 0 01-7.877 7.877v2zm-9.876-9.877c0 5.452 4.425 9.877 9.876 9.877v-2a7.88 7.88 0 01-7.876-7.877h-2zm9.876-9.876c-5.451 0-9.876 4.424-9.876 9.876h2a7.88 7.88 0 017.876-7.876v-2zm9.877 9.876c0-5.451-4.425-9.876-9.877-9.876v2a7.88 7.88 0 017.877 7.876h2zm-9.877-6.723a6.724 6.724 0 016.724 6.723h2a8.724 8.724 0 00-8.724-8.723v2zm-6.723 6.723a6.724 6.724 0 016.723-6.723v-2a8.724 8.724 0 00-8.723 8.723h2zm6.723 6.724a6.724 6.724 0 01-6.723-6.724h-2a8.724 8.724 0 008.723 8.724v-2zm6.724-6.724a6.724 6.724 0 01-6.724 6.724v2a8.724 8.724 0 008.724-8.724h-2zm-8.953 1.541c.087.434.262.817.498 1.142l1.618-1.177a.897.897 0 01-.155-.357l-1.961.392zm-.3.97l1.403-.174-.245-1.984-1.402.172.244 1.985zm1.317-.084c-.189-.18-.357-.48-.452-1.07l-1.974.321c.135.834.428 1.608 1.046 2.197l1.38-1.448zm.96.424c-.419-.055-.752-.216-.943-.407l-1.414 1.414c.578.578 1.36.878 2.093.976l.264-1.983zm.868 1.933v-.941h-2v.941h2zm-.232-1h-.768v2h.768v-2zm-1 .059v.941h2v-.941h-2zm1.934-1.5c-.228.249-.508.425-1.082.51l.297 1.979c.963-.145 1.682-.507 2.262-1.141l-1.477-1.349zm.334-.979c0 .445-.125.749-.334.978l1.477 1.349c.597-.654.857-1.465.857-2.327h-2zm-.262-.816c.158.197.262.453.262.816h2c0-.79-.242-1.493-.7-2.065l-1.562 1.249zm-1.239-.555c.858.206 1.142.44 1.255.574l1.53-1.288c-.501-.595-1.255-.976-2.318-1.231l-.467 1.945zm-.767-3.086v2.113h2v-2.113h-2zm2.648.643a2.375 2.375 0 00-.403-.912 1.999 1.999 0 00-.873-.66l-.743 1.857.025.012a.057.057 0 01-.01-.009c0-.002.026.032.054.155l1.95-.443zm.284-.944l-1.383.173.248 1.985 1.383-.173-.248-1.985zm-2.045.103c.41.047.665.181.825.332.161.15.296.381.36.736l1.968-.357c-.127-.702-.434-1.346-.96-1.838-.527-.494-1.205-.773-1.965-.86l-.228 1.987zm-.887-1.531v.538h2v-.538h-2zm.232 1h.768v-2h-.768v2zm1-.482v-.518h-2v.518h2zm-2.037 2.19c0-.38.123-.64.29-.817.172-.181.451-.334.858-.379l-.221-1.988c-.805.09-1.544.418-2.087.99-.55.579-.84 1.346-.84 2.195h2zm.272.888c-.173-.224-.272-.5-.272-.887h-2c0 .766.21 1.489.69 2.11l1.582-1.223zm1.011.57c-.6-.166-.85-.371-1.025-.588l-1.554 1.259c.477.59 1.111.999 2.049 1.257l.53-1.929zm.735 3.23V24.86h-2v2.267h2zm-2.328.108c.232.32.505.565.813.75l1.03-1.715a.743.743 0 01-.225-.21l-1.618 1.175zm3.597-2.374c-.305-.391-.715-.623-1.258-.76l-.485 1.941a.723.723 0 01.18.062l-.008-.006-.008-.009 1.579-1.228zm-.069 2.59c.654-.763.672-1.836.06-2.6l-1.562 1.25c.006.006.007.01.007.01l-.002.006a.12.12 0 01-.021.033l1.518 1.302zm-.024.029l.008-.01-1.487-1.338-.008.01L56 27.478zm-1.26.694a1.99 1.99 0 00.806-.288c.227-.146.383-.328.454-.407l-1.487-1.337-.05.055a.661.661 0 01-.025.026c-.007.007.002-.003.022-.016a.223.223 0 01.044-.023.264.264 0 01-.06.012l.297 1.978zm-1.148-3.102v2.113h2V25.07h-2zm.555-2.71a.05.05 0 01-.007-.017c0-.003.002.003-.002.014a.083.083 0 01-.015.03l.011-.01a.308.308 0 01.057-.027l-.734-1.86c-.634.25-1.077.73-1.244 1.327a2.01 2.01 0 00.25 1.62l1.684-1.077zm.191.085a2.76 2.76 0 01-.21-.135.553.553 0 01-.042-.034l.02.023-1.6 1.2c.252.337.644.565.803.66l1.03-1.714zm-1.514-1.026v1.883h2V21.42h-2zM75.17 46.05c0-.098.04-.21.127-.296a.426.426 0 01.296-.127v2c.88 0 1.577-.698 1.577-1.577h-2zm.423.424a.426.426 0 01-.296-.127.426.426 0 01-.127-.297h2c0-.878-.698-1.576-1.577-1.576v2zm-32.989 0h32.99v-2h-32.99v2zm.424-.423c0 .098-.04.21-.127.296a.426.426 0 01-.297.127v-2c-.879 0-1.576.698-1.576 1.577h2zm-.424-.424c.099 0 .21.04.297.127a.426.426 0 01.127.297h-2c0 .878.697 1.576 1.576 1.576v-2zm32.99 0h-32.99v2h32.99v-2zm9.164 1.921H61.933v2h22.825v-2zm1.576 1.577c0-.9-.738-1.577-1.576-1.577v2a.422.422 0 01-.424-.423h2zM84.758 50.7c.879 0 1.576-.697 1.576-1.576h-2c0-.099.04-.21.127-.297a.426.426 0 01.297-.127v2zm-22.825 0h22.825v-2H61.933v2zm-1.577-1.576c0 .879.698 1.576 1.577 1.576v-2c.098 0 .21.04.296.127a.426.426 0 01.127.297h-2zm1.577-1.577c-.88 0-1.577.698-1.577 1.577h2c0 .098-.04.21-.127.296a.426.426 0 01-.296.127v-2zm25.169 2h2.843v-2h-2.843v2zm.423-.423c0 .098-.04.21-.127.296a.426.426 0 01-.296.127v-2c-.88 0-1.577.698-1.577 1.577h2zm-.423-.424c.098 0 .21.04.296.127a.426.426 0 01.127.297h-2c0 .879.698 1.576 1.577 1.576v-2zm2.843 0h-2.843v2h2.843v-2zm-.423.424c0-.099.04-.21.127-.297a.426.426 0 01.296-.127v2c.88 0 1.577-.697 1.577-1.576h-2zm.423.423a.422.422 0 01-.423-.423h2c0-.9-.739-1.577-1.577-1.577v2zm-37.81-2.192H41.316v2h10.817v-2zm1.576 1.576c0-.9-.739-1.576-1.577-1.576v2a.422.422 0 01-.423-.424h2zm-1.577 1.577c.879 0 1.577-.698 1.577-1.577h-2c0-.098.04-.21.127-.296a.426.426 0 01.296-.127v2zm-10.817 0h10.817v-2H41.317v2zm-1.576-1.577c0 .88.697 1.577 1.576 1.577v-2c.098 0 .21.04.297.127a.426.426 0 01.127.296h-2zm1.576-1.576c-.879 0-1.576.698-1.576 1.576h2c0 .099-.04.21-.127.297a.426.426 0 01-.297.127v-2z" fill="url(#paint0_linear)" mask="url(#path-1-inside-1)"/><defs><linearGradient id="paint0_linear" x1="22.761" y1="87.406" x2="119.32" y2="-8.619" gradientUnits="userSpaceOnUse"><stop stop-color="#608DCD"/><stop offset="1" stop-color="#616FCF"/></linearGradient></defs></svg>