<svg width="66" height="69" fill="none" xmlns="http://www.w3.org/2000/svg"><mask id="path-1-inside-1" fill="#fff"><path fill-rule="evenodd" clip-rule="evenodd" d="M57.913 64.196V4.339A4.344 4.344 0 0053.575 0H12.44A4.344 4.344 0 008.1 4.34v59.856a4.344 4.344 0 004.34 4.339h41.134a4.344 4.344 0 004.34-4.34zm-48.385 0V4.339a2.915 2.915 0 012.912-2.911h41.134a2.915 2.915 0 012.912 2.911v59.857a2.915 2.915 0 01-2.912 2.911H12.44a2.915 2.915 0 01-2.912-2.911zM53.63 7.028H12.384V59.38H53.63V7.028zm-1.428 50.924h-38.39V8.456h38.39v49.496zm-7.587-3.694h1.428v1.428h-1.428v-1.428zm-1.428 0H41.76v1.428h1.428v-1.428zm-4.283 0h1.428v1.428h-1.428v-1.428zm-15.32-42.233h-6.202v3.287h-1.428v-4.715h7.63v1.428zm-7.63 4.857h1.428V18.6h-1.428v-1.717zm17.053 43.506a2.859 2.859 0 00-2.856 2.856 2.859 2.859 0 002.856 2.855 2.859 2.859 0 002.856-2.855 2.859 2.859 0 00-2.856-2.856zm0 4.284a1.43 1.43 0 01-1.428-1.428 1.429 1.429 0 012.856 0 1.43 1.43 0 01-1.428 1.428zM30.27 3.514h5.475v1.428H30.27V3.514zm-5.006 25.573v.034c-.886 1.491-.991 3.193-.291 4.815 1.386 3.235 5.267 6.47 7.863 8.633l.502.42c3.075-2.134 6.127-4.608 7.742-7.326l.102-.173v-.005c2.826-4.97-.584-9.085-4.454-9.085a5.524 5.524 0 00-3.347 1.142 5.438 5.438 0 00-3.358-1.14c-2.917 0-4.327 2.06-4.678 2.574-.042.06-.068.099-.081.11zm4.759-1.233c1.754 0 2.714 1.017 3.144 1.472.085.09.15.158.195.191.052-.037.125-.11.22-.206.463-.466 1.45-1.46 3.146-1.46 2.894 0 5.467 3.083 3.104 7.07l-.05.083c-1.486 2.451-3.769 4.154-5.928 5.764l-.006.004-.467.349c-3.62-2.88-6.191-5.696-7.075-7.758-1.158-2.686.91-5.509 3.717-5.509zm10.16 34.675h4.48v1.428h-4.48V62.53zm-14.352 0h-4.48v1.428h4.48V62.53zm34.726-42.6h1.427v28.678h-1.427V19.929zm5.352 4.18h-1.427v20.317h1.427V24.11zM4.03 19.93h1.428v28.678H4.03V19.929zm-2.498 4.18H.104v20.317h1.428V24.11z"/></mask><path d="M12.384 7.028v-1h-1v1h1zm41.246 0h1v-1h-1v1zM12.384 59.38h-1v1h1v-1zm41.246 0v1h1v-1h-1zm-39.818-1.428h-1v1h1v-1zm38.39 0v1h1v-1h-1zM13.812 8.456v-1h-1v1h1zm38.39 0h1v-1h-1v1zm-6.16 45.802h1v-1h-1v1zm-1.427 0v-1h-1v1h1zm1.428 1.428v1h1v-1h-1zm-1.428 0h-1v1h1v-1zm-2.856-1.428v-1h-1v1h1zm1.428 0h1v-1h-1v1zm-1.428 1.428h-1v1h1v-1zm1.428 0v1h1v-1h-1zm-2.855-1.428h1v-1h-1v1zm-1.428 0v-1h-1v1h1zm1.428 1.428v1h1v-1h-1zm-1.428 0h-1v1h1v-1zm-21.522-43.66v-1h-1v1h1zm6.202 0v1h1v-1h-1zm-6.202 3.286v1h1v-1h-1zm-1.428 0h-1v1h1v-1zm0-4.715v-1h-1v1h1zm7.63 0h1v-1h-1v1zm-6.202 6.285h1v-1h-1v1zm-1.428 0v-1h-1v1h1zm1.428 1.717v1h1v-1h-1zm-1.428 0h-1v1h1v-1zm19.79-15.085h1v-1h-1v1zm-5.474 0v-1h-1v1h1zm5.475 1.428v1h1v-1h-1zm-5.475 0h-1v1h1v-1zm-5.006 24.18l.86.51.14-.236v-.275h-1zm0-.035l-.683-.731-.317.296v.435h1zm-.291 4.85l.919-.395-.001-.002-.918.396zm7.863 8.632l.708-.707-.032-.032-.035-.029-.64.768zm0 0l-.707.707.04.04.043.034.624-.78zm0 0l.64-.768-.007-.006-.008-.007-.624.781zm.502.42l-.642.766.586.49.627-.435-.57-.822zm7.742-7.326l.86.512.003-.005-.862-.507zm.102-.173l.863.506.137-.234v-.272h-1zm0-.005l-.869-.494-.13.23v.264h1zm-7.801-7.943l-.614.79.607.472.612-.465-.605-.797zm-8.036 1.434l-.826-.565-.006.01.832.555zm0 0l.824.567.004-.006.004-.006-.832-.555zm0 0l-.825-.566v.001l.824.565zm7.822.35l.727-.687-.727.687zm.195.191l-.593.806.587.432.592-.427-.586-.81zm.22-.206l.71.705-.71-.705zm6.25 5.61l-.86-.51-.002.002.862.507zm-.05.083l.856.52.006-.012-.862-.508zm-5.928 5.764l-.598-.802.598.802zm-.006.004l.598.802-.598-.802zm-.467.349l-.623.783.605.48.617-.463-.6-.8zm-7.075-7.758l.92-.394-.002-.002-.918.396zm18.356 29.166h1v-1h-1v1zm-4.479 0v-1h-1v1h1zm4.48 1.428v1h1v-1h-1zm-4.48 0h-1v1h1v-1zM21.352 62.53v-1h-1v1h1zm4.479 0h1v-1h-1v1zm-4.48 1.428h-1v1h1v-1zm4.48 0v1h1v-1h-1zM61.984 19.93h1v-1h-1v1zm-1.427 0v-1h-1v1h1zm1.427 28.678v1h1v-1h-1zm-1.427 0h-1v1h1v-1zm3.925-24.498v-1h-1v1h1zm1.427 0h1v-1h-1v1zm-1.427 20.317h-1v1h1v-1zm1.427 0v1h1v-1h-1zM5.46 19.93h1v-1h-1v1zm-1.429 0v-1h-1v1h1zm1.428 28.678v1h1v-1h-1zm-1.428 0h-1v1h1v-1zM.104 24.109v-1h-1v1h1zm1.428 0h1v-1h-1v1zM.104 44.426h-1v1h1v-1zm1.428 0v1h1v-1h-1zM56.914 4.34v59.857h2V4.339h-2zM53.573 1c1.84 0 3.34 1.499 3.34 3.34h2A5.344 5.344 0 0053.573-1v2zM12.44 1h41.134v-2H12.44v2zM9.1 4.34C9.1 2.498 10.6 1 12.44 1v-2A5.344 5.344 0 007.1 4.34h2zm0 59.856V4.339h-2v59.857h2zm3.34 3.339a3.344 3.344 0 01-3.34-3.34h-2a5.344 5.344 0 005.34 5.34v-2zm41.134 0H12.44v2h41.134v-2zm3.34-3.34c0 1.841-1.5 3.34-3.34 3.34v2a5.344 5.344 0 005.34-5.34h-2zM8.527 4.34v59.857h2V4.339h-2zM12.44.428a3.915 3.915 0 00-3.912 3.911h2c0-1.053.859-1.911 1.912-1.911v-2zm41.134 0H12.44v2h41.134v-2zm3.912 3.911A3.915 3.915 0 0053.574.428v2c1.053 0 1.912.858 1.912 1.911h2zm0 59.857V4.339h-2v59.857h2zm-3.912 3.911a3.915 3.915 0 003.912-3.911h-2a1.915 1.915 0 01-1.912 1.911v2zm-41.134 0h41.134v-2H12.44v2zm-3.912-3.911a3.915 3.915 0 003.912 3.911v-2a1.915 1.915 0 01-1.912-1.911h-2zm3.856-56.168H53.63v-2H12.384v2zm1 51.352V7.028h-2V59.38h2zm40.246-1H12.384v2H53.63v-2zm-1-51.352V59.38h2V7.028h-2zM13.812 58.952h38.39v-2h-38.39v2zm-1-50.496v49.496h2V8.456h-2zm39.39-1h-38.39v2h38.39v-2zm1 50.496V8.456h-2v49.496h2zm-7.16-4.694h-1.427v2h1.428v-2zm1 2.428v-1.428h-2v1.428h2zm-2.427 1h1.428v-2h-1.428v2zm-1-2.428v1.428h2v-1.428h-2zm-1.856 1h1.428v-2H41.76v2zm1 .428v-1.428h-2v1.428h2zm.428-1H41.76v2h1.428v-2zm-1-.428v1.428h2v-1.428h-2zm-1.855-1h-1.428v2h1.428v-2zm1 2.428v-1.428h-2v1.428h2zm-2.428 1h1.428v-2h-1.428v2zm-1-2.428v1.428h2v-1.428h-2zM17.382 13.025h6.202v-2h-6.202v2zm1 2.287v-3.287h-2v3.287h2zm-2.428 1h1.428v-2h-1.428v2zm-1-5.715v4.715h2v-4.715h-2zm8.63-1h-7.63v2h7.63v-2zm1 2.428v-1.428h-2v1.428h2zm-7.202 3.857h-1.428v2h1.428v-2zm1 2.717v-1.717h-2V18.6h2zm-2.428 1h1.428v-2h-1.428v2zm-1-2.717V18.6h2v-1.717h-2zM31.15 63.244a1.86 1.86 0 011.856-1.856v-2a3.859 3.859 0 00-3.856 3.856h2zm1.856 1.855a1.859 1.859 0 01-1.856-1.855h-2a3.859 3.859 0 003.856 3.855v-2zm1.856-1.855a1.859 1.859 0 01-1.856 1.855v2a3.859 3.859 0 003.856-3.855h-2zm-1.856-1.856a1.86 1.86 0 011.856 1.856h2a3.859 3.859 0 00-3.856-3.856v2zm-2.428 1.856a2.43 2.43 0 002.428 2.428v-2a.43.43 0 01-.428-.428h-2zm2.428-2.428a2.43 2.43 0 00-2.428 2.428h2a.43.43 0 01.428-.428v-2zm2.428 2.428a2.43 2.43 0 00-2.428-2.428v2a.43.43 0 01.428.428h2zm-2.428 2.428a2.43 2.43 0 002.428-2.428h-2a.43.43 0 01-.428.428v2zm2.738-63.158H30.27v2h5.475v-2zm1 2.428V3.514h-2v1.428h2zm-6.475 1h5.475v-2H30.27v2zm-1-2.428v1.428h2V3.514h-2zM26.264 29.12v-.034h-2v.034h2zm-.373 4.42c-.575-1.334-.487-2.698.233-3.909l-1.72-1.022c-1.052 1.771-1.174 3.81-.35 5.722l1.837-.792zm7.586 8.26c-1.303-1.086-2.886-2.406-4.316-3.85-1.44-1.456-2.65-2.966-3.27-4.409l-1.838.788c.768 1.792 2.191 3.516 3.687 5.028 1.507 1.522 3.162 2.901 4.456 3.98l1.28-1.537zm.067.061l-1.415 1.414 1.415-1.414zm-.083-.074l-1.25 1.562 1.25-1.562zm.52.434l-.504-.42-1.28 1.535.5.418 1.283-1.534zm6.24-7.07c-1.496 2.516-4.384 4.886-7.453 7.015l1.14 1.643c3.081-2.138 6.296-4.716 8.032-7.636l-1.72-1.022zm.1-.169l-.103.174 1.725 1.013.102-.174-1.725-1.013zm-.139.502v.005h2v-.005h-2zM36.728 27.4a4.54 4.54 0 013.879 2.19c.779 1.308.961 3.193-.294 5.401l1.739.989c1.57-2.763 1.46-5.42.273-7.413a6.54 6.54 0 00-5.597-3.167v2zm-2.742.939a4.524 4.524 0 012.742-.939v-2c-1.43 0-2.808.477-3.952 1.346l1.21 1.593zm-3.963-.936c1.02 0 1.972.328 2.744.929l1.228-1.579a6.437 6.437 0 00-3.972-1.35v2zM26.17 29.54c.327-.478 1.475-2.139 3.853-2.139v-2c-3.456 0-5.128 2.46-5.504 3.009l1.65 1.13zm.006-.01l-1.663-1.11 1.663 1.11zm-.008.012l-1.648-1.134 1.648 1.134zm-.222.275c.093-.087.16-.186.16-.187.022-.029.045-.064.064-.09l-1.65-1.13c-.011.016-.02.027-.026.038l-.014.018.011-.014a.664.664 0 01.09-.097l1.365 1.462zm7.948-1.18c-.46-.485-1.674-1.784-3.871-1.784v2c1.311 0 2.017.735 2.417 1.158l1.454-1.373zm.06.074a.54.54 0 01.043.034l-.01-.01a2.29 2.29 0 01-.037-.038 1.206 1.206 0 01-.056-.06l-1.454 1.374c.05.052.192.21.329.31l1.186-1.61zm-1.081-.106a6.22 6.22 0 01-.124.122l-.002.001.002-.001.005-.004c.004-.003.011-.01.022-.017l1.172 1.62c.135-.097.28-.248.343-.311l-1.418-1.41zm3.855-1.754c-2.13 0-3.372 1.268-3.855 1.754l1.418 1.41c.443-.445 1.177-1.164 2.438-1.164v-2zm3.964 8.578c1.33-2.243 1.345-4.393.432-6.027-.893-1.597-2.6-2.551-4.396-2.551v2c1.099 0 2.124.586 2.65 1.527.506.905.627 2.288-.406 4.031l1.72 1.02zm-.048.082l.05-.085-1.724-1.014-.05.084 1.724 1.015zm-6.193 6.058c2.134-1.592 4.582-3.403 6.187-6.047l-1.71-1.037c-1.37 2.257-3.487 3.85-5.672 5.48l1.195 1.604zm-.005.004l.006-.005-1.197-1.602-.006.004 1.197 1.603zm-.466.347l.466-.347-1.196-1.603-.469.35 1.2 1.6zm-8.593-8.164c.505 1.179 1.453 2.494 2.691 3.852 1.25 1.37 2.839 2.83 4.68 4.295l1.245-1.566c-1.778-1.414-3.285-2.802-4.447-4.076-1.173-1.286-1.952-2.41-2.33-3.293l-1.84.788zm4.636-6.903c-3.465 0-6.102 3.503-4.635 6.905l1.836-.792c-.85-1.97.649-4.113 2.799-4.113v-2zm14.64 34.675h-4.48v2h4.48v-2zm1 2.428V62.53h-2v1.428h2zm-5.48 1h4.48v-2h-4.48v2zm-1-2.427v1.427h2V62.53h-2zm-17.831 1h4.479v-2h-4.48v2zm1 .427V62.53h-2v1.428h2zm3.479-1h-4.48v2h4.48v-2zm-1-.428v1.428h2V62.53h-2zm37.153-43.6h-1.427v2h1.427v-2zm1 29.678V19.929h-2v28.678h2zm-2.427 1h1.427v-2h-1.427v2zm-1-29.678v28.678h2V19.929h-2zm4.925 5.18h1.427v-2h-1.427v2zm1 19.317V24.11h-2v20.317h2zm.427-1h-1.427v2h1.427v-2zm-1-19.317v20.317h2V24.11h-2zM5.46 18.93H4.03v2h1.428v-2zm1 29.678V19.929h-2v28.678h2zm-2.429 1h1.428v-2H4.03v2zm-1-29.678v28.678h2V19.929h-2zM.105 25.11h1.428v-2H.104v2zm1 19.317V24.11h-2v20.317h2zm.428-1H.104v2h1.428v-2zm-1-19.317v20.317h2V24.11h-2z" fill="url(#paint0_linear)" mask="url(#path-1-inside-1)"/><defs><linearGradient id="paint0_linear" x1="16.108" y1="118.574" x2="126.011" y2="59.971" gradientUnits="userSpaceOnUse"><stop stop-color="#608DCD"/><stop offset="1" stop-color="#616FCF"/></linearGradient></defs></svg>