<svg width="243" height="88" fill="none" xmlns="http://www.w3.org/2000/svg"><g filter="url(#filter0_d)"><rect x="2" y="30" width="211" height="58" rx="29" fill="url(#paint0_linear)"/></g><path fill-rule="evenodd" clip-rule="evenodd" d="M77.072 49.5l.748-2.463h2.758l.787 2.464h1.7l-2.822-8.69H78.22l-2.786 8.69h1.638zm2.551-5.802l.684 2.142h-2.229l.671-2.142c.106-.36.202-.761.293-1.142l.117-.48h.026l.071.281c.11.434.23.908.367 1.341z" fill="#fff"/><path d="M85.436 43.224l1.019 3.18c.18.555.306 1.058.422 1.574h.039a24.44 24.44 0 01.426-1.574l1.006-3.18h1.661l-2.396 6.277h-1.558l-2.335-6.277" fill="#fff"/><path fill-rule="evenodd" clip-rule="evenodd" d="M96.44 49.498c-.077-.384-.103-.94-.103-1.507v-2.254c0-1.38-.58-2.655-2.59-2.655-.993 0-1.806.268-2.27.552l.31 1.032c.425-.271 1.07-.464 1.69-.464 1.109 0 1.273.683 1.273 1.096v.103c-2.319-.013-3.722.797-3.722 2.37 0 .956.707 1.868 1.971 1.868.826 0 1.484-.348 1.855-.835h.041l.113.694h1.432zm-3.84-1.894c0-.954 1.07-1.187 2.192-1.174v.865c0 .116 0 .232-.042.348a1.298 1.298 0 01-1.248.864c-.503 0-.903-.283-.903-.903zm5.888-6.134c0 .464.349.851.874.851h.017c.538 0 .886-.387.886-.851-.012-.49-.348-.865-.886-.865-.533 0-.89.374-.89.865zm1.674 1.754h-1.583v6.277h1.583v-6.277z" fill="#fff"/><path d="M102.442 49.5h1.587v-9.166h-1.587v9.167z" fill="#fff"/><path fill-rule="evenodd" clip-rule="evenodd" d="M111.296 49.498c-.077-.384-.103-.94-.103-1.507v-2.254c0-1.38-.581-2.655-2.59-2.655-.994 0-1.803.268-2.268.552l.31 1.032c.422-.271 1.068-.464 1.687-.464 1.109 0 1.277.683 1.277 1.096v.103c-2.319-.013-3.725.797-3.725 2.37 0 .956.709 1.868 1.97 1.868.826 0 1.484-.348 1.858-.835h.039l.116.694h1.429zm-3.841-1.894c0-.954 1.07-1.187 2.193-1.174v.865c0 .116 0 .232-.039.348a1.302 1.302 0 01-1.251.864c-.504 0-.903-.283-.903-.903zm7.566-7.27h-1.587v7.412c0 .632-.025 1.329-.051 1.755h1.354l.078-.942h.026c.451.774 1.17 1.084 1.983 1.084 1.419 0 2.848-1.123 2.848-3.377.013-1.91-1.08-3.184-2.616-3.184-.941 0-1.622.397-2.009 1.003h-.026v-3.75zm.039 6.948a1.739 1.739 0 01-.039-.374v-1.016c0-.155.026-.297.052-.413.168-.697.758-1.161 1.403-1.161 1.058 0 1.587.903 1.587 2.012 0 1.274-.607 2.061-1.6 2.061-.681 0-1.235-.464-1.403-1.11z" fill="#fff"/><path d="M121.54 49.5h1.584v-9.166h-1.584v9.167z" fill="#fff"/><path fill-rule="evenodd" clip-rule="evenodd" d="M128.474 48.43c-1.006 0-1.896-.49-1.935-1.626h4.203a3.91 3.91 0 00.051-.667c0-1.38-.671-3.055-2.706-3.055-2.012 0-3.07 1.636-3.07 3.377 0 1.92 1.199 3.167 3.238 3.167.9 0 1.648-.164 2.19-.4l-.232-1.08a5.063 5.063 0 01-1.739.284zm-.477-4.267c1.055 0 1.313.955 1.3 1.535h-2.758c.064-.645.477-1.535 1.458-1.535zm7.474 2.245c0 2.022 1.377 3.235 3.144 3.235h.013c1.584 0 3.21-1.032 3.21-3.339 0-1.909-1.252-3.222-3.119-3.222-1.897 0-3.248 1.261-3.248 3.326zm4.728-.065c0 1.274-.632 2.151-1.532 2.151h-.016c-.939 0-1.545-.916-1.545-2.125 0-1.045.452-2.142 1.574-2.142 1.08 0 1.519 1.136 1.519 2.116z" fill="#fff"/><path d="M143.702 45.092c0-.723-.023-1.33-.049-1.871h1.378l.077.942h.039c.283-.49.967-1.08 2.012-1.08 1.094 0 2.229.706 2.229 2.692v3.723h-1.587v-3.542c0-.903-.335-1.587-1.196-1.587-.633 0-1.071.452-1.239.93a1.464 1.464 0 00-.077.502v3.697h-1.587m12.991-7.887v1.61h1.507v1.187h-1.507v2.758c0 .774.207 1.16.81 1.16.284 0 .439-.012.619-.064l.026 1.197c-.232.093-.658.167-1.148.167-.59 0-1.068-.193-1.364-.512-.349-.362-.504-.942-.504-1.768v-2.938h-.89V43.22h.89v-1.17m4.832-1.716h1.587v3.738h.026a2.08 2.08 0 01.787-.71c.322-.177.693-.28 1.093-.28 1.071 0 2.19.707 2.19 2.72V49.5h-1.584v-3.532c0-.903-.335-1.6-1.212-1.6-.616 0-1.055.413-1.236.89-.051.142-.064.31-.064.478V49.5h-1.587" fill="#fff"/><path fill-rule="evenodd" clip-rule="evenodd" d="M170.955 48.43c-1.006 0-1.893-.49-1.932-1.626h4.2c.026-.138.051-.37.051-.667 0-1.38-.671-3.055-2.706-3.055-2.009 0-3.067 1.636-3.067 3.377 0 1.92 1.2 3.167 3.235 3.167.903 0 1.651-.164 2.193-.4l-.235-1.08a5.029 5.029 0 01-1.739.284zm-.477-4.267c1.058 0 1.316.955 1.303 1.535h-2.758c.065-.645.474-1.535 1.455-1.535z" fill="#fff"/><path d="M58.1 57.925c-.041-4.3 3.52-6.392 3.684-6.49-2.016-2.94-5.141-3.34-6.24-3.373-2.623-.274-5.168 1.574-6.503 1.574-1.364 0-3.425-1.545-5.641-1.5-2.858.046-5.529 1.7-6.993 4.264-3.019 5.235-.767 12.924 2.129 17.156 1.451 2.07 3.141 4.386 5.357 4.303 2.168-.09 2.977-1.38 5.593-1.38 2.593 0 3.354 1.38 5.615 1.328 2.326-.039 3.79-2.08 5.187-4.174 1.677-2.373 2.348-4.712 2.373-4.831-.054-.02-4.515-1.723-4.56-6.877zm-4.27-12.643c1.165-1.458 1.968-3.445 1.742-5.457-1.687.077-3.796 1.167-5.012 2.593-1.074 1.258-2.039 3.319-1.787 5.254 1.896.142 3.841-.955 5.057-2.39z" fill="#fff"/><path fill-rule="evenodd" clip-rule="evenodd" d="M86.41 73.517h3.021l-5.725-17.701h-3.515l-5.703 17.7h2.942l1.577-5.199h5.748l1.654 5.2zm-3.65-12.005l1.497 4.622h-4.754l1.47-4.622c.384-1.468.668-2.58.842-3.332h.052c.439 1.748.735 2.861.893 3.332zm19.567 10.611c1.174-1.258 1.761-2.977 1.761-5.147 0-1.942-.507-3.506-1.513-4.7-1.003-1.19-2.264-1.787-3.767-1.787-1.926 0-3.361.762-4.306 2.287h-.055l-.158-2.025h-2.493c.07 1.438.103 2.838.103 4.202v13.763h2.838V71.99h.052c.735 1.206 1.942 1.813 3.625 1.813 1.555 0 2.861-.558 3.913-1.68zm-1.971-8.115c.561.807.842 1.83.842 3.074 0 1.348-.297 2.432-.897 3.254-.59.826-1.422 1.236-2.493 1.236-.91 0-1.648-.316-2.22-.958-.567-.639-.85-1.423-.85-2.352v-2.128c0-.226.041-.513.128-.861.178-.755.552-1.361 1.12-1.83.564-.46 1.203-.696 1.903-.696 1.032 0 1.854.423 2.467 1.261zm16.649 8.115c1.174-1.258 1.758-2.977 1.758-5.147 0-1.942-.5-3.506-1.506-4.7-1.01-1.19-2.265-1.787-3.771-1.787-1.925 0-3.361.762-4.302 2.287h-.055l-.158-2.025h-2.493c.067 1.438.103 2.838.103 4.202v13.763h2.838V71.99h.048c.739 1.206 1.945 1.813 3.626 1.813 1.558 0 2.861-.558 3.912-1.68zm-1.971-8.115c.562.807.842 1.83.842 3.074 0 1.348-.3 2.432-.893 3.254-.594.826-1.426 1.236-2.493 1.236-.913 0-1.652-.316-2.223-.958-.567-.639-.848-1.423-.848-2.352v-2.128c0-.226.042-.513.132-.861.174-.755.542-1.361 1.113-1.83.568-.46 1.203-.696 1.903-.696 1.032 0 1.855.423 2.467 1.261z" fill="#fff"/><path d="M135.18 68.553c0 1.503-.523 2.728-1.574 3.677-1.155 1.032-2.758 1.548-4.819 1.548-1.906 0-3.435-.368-4.593-1.103l.658-2.361a7.8 7.8 0 004.103 1.126c1.068 0 1.9-.24 2.496-.72.594-.484.891-1.129.891-1.935 0-.716-.242-1.326-.733-1.816-.49-.49-1.306-.945-2.444-1.367-3.1-1.158-4.648-2.852-4.648-5.077 0-1.455.542-2.648 1.629-3.577 1.083-.929 2.528-1.397 4.331-1.397 1.613 0 2.951.284 4.019.842l-.709 2.313c-.997-.542-2.126-.816-3.387-.816-1 0-1.777.245-2.335.735-.471.439-.71.974-.71 1.603 0 .7.268 1.277.813 1.732.471.42 1.329.874 2.574 1.368 1.522.613 2.641 1.329 3.361 2.151.716.823 1.077 1.848 1.077 3.074zm9.372-5.673h-3.125v6.195c0 1.578.552 2.364 1.658 2.364.503 0 .926-.041 1.258-.128l.077 2.15c-.555.214-1.293.317-2.203.317-1.119 0-1.996-.342-2.628-1.023-.629-.683-.945-1.832-.945-3.441v-6.435h-1.865v-2.128h1.865v-2.335l2.783-.842v3.177h3.125" fill="#fff"/><path fill-rule="evenodd" clip-rule="evenodd" d="M156.977 71.862c1.122-1.261 1.68-2.87 1.68-4.832 0-1.909-.541-3.464-1.628-4.676-1.136-1.242-2.645-1.865-4.519-1.865-1.942 0-3.487.63-4.632 1.894-1.148 1.258-1.719 2.877-1.719 4.857 0 1.89.555 3.458 1.664 4.7 1.113 1.241 2.603 1.864 4.48 1.864 1.942 0 3.5-.645 4.674-1.942zm-2.026-7.77c.51.845.765 1.852.765 3.029 0 1.177-.261 2.196-.787 3.054-.613 1.039-1.464 1.555-2.545 1.555-1.106 0-1.964-.51-2.577-1.529-.51-.842-.758-1.848-.758-3.025 0-1.213.248-2.239.758-3.084.594-1.02 1.461-1.529 2.6-1.529 1.103 0 1.954.51 2.544 1.53z" fill="#fff"/><path d="M167.875 63.247a4.927 4.927 0 00-.893-.077c-.997 0-1.771.377-2.313 1.129-.471.667-.706 1.506-.706 2.519v6.699h-2.835l.022-8.744c0-1.474-.035-2.813-.103-4.022h2.47l.104 2.445h.074c.3-.84.774-1.516 1.419-2.023.632-.455 1.316-.684 2.051-.684.262 0 .5.02.71.052" fill="#fff"/><path fill-rule="evenodd" clip-rule="evenodd" d="M180.454 67.817a6.9 6.9 0 00.1-1.286c0-1.594-.371-2.936-1.122-4.02-.945-1.367-2.342-2.047-4.18-2.047-1.871 0-3.361.68-4.461 2.048-1.055 1.277-1.577 2.88-1.577 4.805 0 1.962.568 3.526 1.693 4.687 1.129 1.167 2.684 1.751 4.661 1.751 1.648 0 3.074-.267 4.283-.79l-.445-1.97c-1.035.403-2.184.603-3.441.603-1.139 0-2.068-.294-2.784-.89-.79-.665-1.203-1.63-1.232-2.89h8.505zm-3.151-4.202c.384.613.568 1.342.548 2.18h-5.902c.081-.858.364-1.593.835-2.206.578-.77 1.332-1.158 2.258-1.158 1.013 0 1.771.397 2.261 1.184z" fill="#fff"/><defs><linearGradient id="paint0_linear" x1="107.5" y1=".115" x2="76.139" y2="110.825" gradientUnits="userSpaceOnUse"><stop stop-color="#4C5563"/><stop offset="1" stop-color="#252A32"/></linearGradient><filter id="filter0_d" x="-28" y="0" width="271" height="118" filterUnits="userSpaceOnUse" color-interpolation-filters="sRGB"><feFlood flood-opacity="0" result="BackgroundImageFix"/><feColorMatrix in="SourceAlpha" values="0 0 0 0 0 0 0 0 0 0 0 0 0 0 0 0 0 0 127 0"/><feOffset/><feGaussianBlur stdDeviation="15"/><feColorMatrix values="0 0 0 0 0 0 0 0 0 0 0 0 0 0 0 0 0 0 0.5 0"/><feBlend in2="BackgroundImageFix" result="effect1_dropShadow"/><feBlend in="SourceGraphic" in2="effect1_dropShadow" result="shape"/></filter></defs></svg>