<svg width="588" height="588" xmlns="http://www.w3.org/2000/svg" xmlns:xlink="http://www.w3.org/1999/xlink"><defs><path d="M581.266 6.543c22.28 213.67-14.427 368.351-110.121 464.046C375.45 566.283 220.768 602.99 7.099 580.709c-22.626-213.77 13.92-368.515 109.639-464.234S367.299-15.888 581.266 6.544z" id="path-1"/><path d="M36.65 6.392c8.201 8.2 8.201 21.497 0 29.698-8.2 8.201-21.497 8.201-29.698 0-8.201-8.2-8.201-21.497 0-29.698 8.2-8.201 21.497-8.201 29.698 0z" id="path-3"/><path d="M69.085 11.957c15.621 15.62 15.621 40.947 0 56.568-15.62 15.621-40.947 15.621-56.568 0-15.621-15.62-15.621-40.948 0-56.568 15.62-15.621 40.947-15.621 56.568 0z" id="path-5"/><path d="M103.227 17.814c23.432 23.432 23.432 61.422 0 84.853-23.431 23.432-61.421 23.432-84.853 0-23.431-23.431-23.431-61.421 0-84.853 23.432-23.431 61.422-23.431 84.853 0z" id="path-7"/><path d="M135.662 23.38c30.852 30.85 30.852 80.87 0 111.722-30.851 30.852-80.871 30.852-111.723 0-30.851-30.851-30.851-80.871 0-111.723 30.852-30.851 80.872-30.851 111.723 0z" id="path-9"/><path d="M169.804 29.237c38.662 38.662 38.662 101.346 0 140.007-38.661 38.662-101.345 38.662-140.007 0-38.662-38.661-38.662-101.345 0-140.007 38.662-38.662 101.346-38.662 140.007 0z" id="path-11"/><path d="M203.947 35.095c46.472 46.472 46.472 121.82 0 168.292-46.473 46.472-121.82 46.472-168.292 0-46.472-46.473-46.472-121.82 0-168.292 46.473-46.472 121.82-46.472 168.292 0z" id="path-13"/><path d="M238.089 40.953c54.283 54.283 54.283 142.293 0 196.576-54.283 54.283-142.293 54.283-196.576 0-54.283-54.283-54.283-142.293 0-196.576 54.283-54.283 142.293-54.283 196.576 0z" id="path-15"/><path d="M272.291 47.457c62.29 62.289 62.29 163.279 0 225.567-62.288 62.289-163.278 62.289-225.566 0-62.29-62.288-62.29-163.278 0-225.567 62.288-62.288 163.278-62.288 225.566 0z" id="path-17"/><path d="M306.373 52.669c69.904 69.904 69.904 183.24 0 253.144s-183.24 69.904-253.144 0-69.904-183.24 0-253.144 183.24-69.904 253.144 0z" id="path-19"/><path d="M342.222 58.82c78.105 78.104 78.105 204.737 0 282.842-78.105 78.105-204.738 78.105-282.842 0-78.105-78.105-78.105-204.738 0-282.842 78.104-78.105 204.737-78.105 282.842 0z" id="path-21"/><path d="M376.364 64.677c85.916 85.916 85.916 225.212 0 311.127-85.915 85.916-225.211 85.916-311.127 0-85.915-85.915-85.915-225.211 0-311.127 85.916-85.915 225.212-85.915 311.127 0z" id="path-23"/><path d="M410.507 70.535c93.725 93.726 93.725 245.686 0 339.411-93.726 93.726-245.686 93.726-339.412 0-93.726-93.725-93.726-245.685 0-339.41 93.726-93.727 245.686-93.727 339.411 0z" id="path-25"/><path d="M444.71 77.04c66.175 66.176 89.304 159.098 69.386 243.97-18.88 45.965-44.53 85.157-76.951 117.579-31.687 31.687-69.841 56.906-114.463 75.657-85.518 20.934-179.574-2.002-246.375-68.804C8.874 378.01-13.861 282.804 8.102 196.644c18.617-43.64 43.495-81.028 74.636-112.17 32.144-32.144 70.957-57.626 116.437-76.446l1.759-.42c84.819-19.838 177.65 3.306 243.775 69.431z" id="path-27"/><path d="M305.7.867c63.174 5.663 124.794 32.673 173.151 81.03 48.228 48.227 75.222 109.647 80.984 172.642-17.503 84.411-51.734 152.093-102.69 203.05-50.429 50.428-117.238 84.476-200.427 102.142-63.667-5.383-125.84-32.433-174.553-81.147C33.177 429.597 6.097 367 .925 302.964c17.64-82.759 51.577-149.253 101.813-199.49 50.73-50.73 118.07-84.867 202.016-102.41l.946-.197z" id="path-29"/><path d="M373.536.67c47.031 13.649 91.383 39.01 128.458 76.085 37.016 37.017 62.357 81.288 76.02 128.238-12.34 112.155-49.627 199.353-111.87 261.596-61.821 61.822-148.262 99.025-259.322 111.609-47.533-13.556-92.374-39.046-129.8-76.472C39.44 464.143 13.892 419.08.382 371.33c12.504-110.84 49.624-197.123 111.356-258.855C173.955 50.258 261.152 13 373.328.7l.208-.031z" id="path-31"/><path d="M425.35.02c34.362 15.495 66.553 37.36 94.786 65.593 28.208 28.208 50.058 60.366 65.552 94.693l-.01.004c-6.22 135.384-44.731 238.477-115.533 309.279-70.442 70.442-172.848 108.92-307.216 115.436-34.84-15.527-67.471-37.58-96.049-66.156-28.674-28.675-50.779-61.43-66.315-96.397 6.381-134.266 44.772-236.597 115.173-306.997C185.612 45.6 286.994 7.206 419.883.294l5.467-.275z" id="path-33"/><path d="M471.91.175l4.175 2.57c21.527 13.482 41.881 29.586 60.607 48.312 19.926 19.925 36.883 41.695 50.872 64.76.917 157.984-37.888 276.24-116.42 354.772-78.214 78.215-195.835 117.023-352.862 116.426-23.513-14.125-45.69-31.322-65.958-51.59-20.322-20.322-37.557-42.563-51.704-66.14-.79-157.007 37.916-274.608 116.118-352.81C195.3 37.913 313.69-.854 471.909.175z" id="path-35"/><path d="M507.427 1.047l2.58 1.888a364.472 364.472 0 0140.12 34.687 364.24 364.24 0 0136.597 42.711l-.01.007c7.257 175.863-31.266 305.946-115.57 390.249-84.018 84.018-213.507 122.566-388.467 115.642a363.268 363.268 0 01-43.788-37.371A364.138 364.138 0 011.45 504.993C-5.712 330 32.716 200.497 116.738 116.475 201.072 32.14 331.3-6.335 507.428 1.047z" id="path-37"/><path d="M543.919 3.183l2.321 2.005a388.76 388.76 0 0118.383 17.23 388.366 388.366 0 0119.998 21.57l-.01.008c14.366 194.385-23.456 336.583-113.466 426.593C381.136 560.598 238.94 598.42 44.56 584.057l-.007.009a388.365 388.365 0 01-21.575-20.003 388.466 388.466 0 01-19.29-20.748l.01-.008c-14.684-194.511 22.995-336.789 113.039-426.832 90.057-90.057 232.45-127.821 427.18-113.292z" id="path-39"/></defs><g id="Welcome" stroke="none" stroke-width="1" fill="none" fill-rule="evenodd" opacity=".17"><g id="Y'allery-1920-4" transform="translate(-1335 -2877)"><g id="Group-5" transform="translate(375 2053.24)"><g id="Group-4" transform="translate(960 823.76)"><g id="Group-3"><mask id="mask-2" fill="#fff"><use xlink:href="#path-1"/></mask><path id="Fill-1" fill-opacity=".228" fill="#191D23" mask="url(#mask-2)" d="M-177.27 403.412l581.237-581.238L765.3 183.506 184.06 764.743z"/></g><g id="Group-6" transform="translate(272 272)"><mask id="mask-4" fill="#fff"><use xlink:href="#path-3"/></mask><path d="M36.65 36.09c8.201-8.201 8.201-21.497 0-29.698-8.2-8.201-21.497-8.201-29.698 0-8.201 8.2-8.201 21.497 0 29.698 8.2 8.201 21.497 8.201 29.698 0z" id="Stroke-4" stroke="#FFF" stroke-width="2" mask="url(#mask-4)"/></g><g id="Group-9" transform="translate(253 253)"><mask id="mask-6" fill="#fff"><use xlink:href="#path-5"/></mask><path d="M69.085 68.525c15.621-15.62 15.621-40.947 0-56.568-15.62-15.621-40.947-15.621-56.568 0-15.621 15.62-15.621 40.947 0 56.568 15.62 15.621 40.947 15.621 56.568 0z" id="Stroke-7" stroke="#FFF" stroke-width="2" mask="url(#mask-6)"/></g><g id="Group-12" transform="translate(233 233)"><mask id="mask-8" fill="#fff"><use xlink:href="#path-7"/></mask><path d="M103.227 102.667c23.432-23.431 23.432-61.421 0-84.853-23.431-23.431-61.421-23.431-84.852 0-23.432 23.432-23.432 61.422 0 84.853 23.431 23.432 61.42 23.432 84.852 0z" id="Stroke-10" stroke="#FFF" stroke-width="2" mask="url(#mask-8)"/></g><g id="Group-15" transform="translate(214 214)"><mask id="mask-10" fill="#fff"><use xlink:href="#path-9"/></mask><path d="M135.662 135.102c30.852-30.851 30.852-80.871 0-111.723-30.851-30.851-80.871-30.851-111.723 0-30.851 30.852-30.851 80.872 0 111.723 30.852 30.852 80.872 30.852 111.723 0z" id="Stroke-13" stroke="#FFF" stroke-width="2" mask="url(#mask-10)"/></g><g id="Group-18" transform="translate(194 194)"><mask id="mask-12" fill="#fff"><use xlink:href="#path-11"/></mask><path d="M169.805 169.244c38.661-38.662 38.661-101.345 0-140.007-38.662-38.662-101.346-38.662-140.008 0-38.662 38.662-38.662 101.345 0 140.007 38.662 38.662 101.346 38.662 140.008 0z" id="Stroke-16" stroke="#FFF" stroke-width="2" mask="url(#mask-12)"/></g><g id="Group-21" transform="translate(174 174)"><mask id="mask-14" fill="#fff"><use xlink:href="#path-13"/></mask><path d="M203.947 203.387c46.472-46.473 46.472-121.82 0-168.292-46.473-46.472-121.82-46.472-168.292 0-46.472 46.472-46.472 121.82 0 168.292 46.473 46.472 121.82 46.472 168.292 0z" id="Stroke-19" stroke="#FFF" stroke-width="2" mask="url(#mask-14)"/></g><g id="Group-24" transform="translate(154 154)"><mask id="mask-16" fill="#fff"><use xlink:href="#path-15"/></mask><path d="M238.089 237.529c54.283-54.283 54.283-142.293 0-196.576-54.283-54.283-142.293-54.283-196.576 0-54.283 54.283-54.283 142.293 0 196.576 54.283 54.283 142.293 54.283 196.576 0z" id="Stroke-22" stroke="#FFF" stroke-width="2" mask="url(#mask-16)"/></g><g id="Group-27" transform="translate(135 133)"><mask id="mask-18" fill="#fff"><use xlink:href="#path-17"/></mask><path d="M272.292 273.024c62.288-62.288 62.288-163.278 0-225.567-62.29-62.288-163.279-62.288-225.568 0-62.288 62.289-62.288 163.279 0 225.567 62.289 62.289 163.279 62.289 225.568 0z" id="Stroke-25" stroke="#FFF" stroke-width="2" mask="url(#mask-18)"/></g><g id="Group-30" transform="translate(114 114)"><mask id="mask-20" fill="#fff"><use xlink:href="#path-19"/></mask><path d="M306.373 305.813c69.904-69.904 69.904-183.24 0-253.144s-183.24-69.904-253.144 0-69.904 183.24 0 253.144 183.24 69.904 253.144 0z" id="Stroke-28" stroke="#FFF" stroke-width="2" mask="url(#mask-20)"/></g><g id="Group-33" transform="translate(93 93)"><mask id="mask-22" fill="#fff"><use xlink:href="#path-21"/></mask><path d="M342.222 341.662c78.105-78.105 78.105-204.738 0-282.843-78.105-78.104-204.738-78.104-282.842 0-78.105 78.105-78.105 204.738 0 282.843 78.104 78.105 204.737 78.105 282.842 0z" id="Stroke-31" stroke="#FFF" stroke-width="2" mask="url(#mask-22)"/></g><g id="Group-36" transform="translate(73 73)"><mask id="mask-24" fill="#fff"><use xlink:href="#path-23"/></mask><path d="M376.364 375.804c85.916-85.915 85.916-225.211 0-311.127-85.915-85.915-225.211-85.915-311.127 0-85.915 85.916-85.915 225.212 0 311.127 85.916 85.916 225.212 85.916 311.127 0z" id="Stroke-34" stroke="#FFF" stroke-width="2" mask="url(#mask-24)"/></g><g id="Group-39" transform="translate(53 53)"><mask id="mask-26" fill="#fff"><use xlink:href="#path-25"/></mask><path d="M410.506 409.946c93.726-93.725 93.726-245.685 0-339.41-93.725-93.727-245.685-93.727-339.41 0-93.727 93.725-93.727 245.685 0 339.41 93.725 93.726 245.685 93.726 339.41 0z" id="Stroke-37" stroke="#FFF" stroke-width="2" mask="url(#mask-26)"/></g><g id="Group-42" transform="translate(34 32)"><mask id="mask-28" fill="#fff"><use xlink:href="#path-27"/></mask><path d="M444.71 445.442c101.73-101.731 101.73-266.67 0-368.403-101.732-101.731-266.672-101.731-368.403 0-101.732 101.732-101.732 266.672 0 368.403 101.731 101.732 266.67 101.732 368.402 0z" id="Stroke-40" stroke="#FFF" stroke-width="2" mask="url(#mask-28)"/></g><g id="Group-45" transform="translate(14 13)"><mask id="mask-30" fill="#fff"><use xlink:href="#path-29"/></mask><path d="M478.851 478.584c109.543-109.542 109.543-287.145 0-396.687-109.542-109.542-287.144-109.542-396.686 0-109.543 109.542-109.543 287.145 0 396.687 109.542 109.542 287.144 109.542 396.686 0z" id="Stroke-43" stroke="#FFF" stroke-width="2" mask="url(#mask-30)"/></g><g id="Group-48" transform="translate(5 4)"><mask id="mask-32" fill="#fff"><use xlink:href="#path-31"/></mask><path d="M501.994 501.726c117.352-117.352 117.352-307.618 0-424.97-117.353-117.353-307.619-117.353-424.972 0-117.352 117.352-117.352 307.618 0 424.97 117.353 117.353 307.619 117.353 424.972 0z" id="Stroke-46" stroke="#FFF" stroke-width="2" mask="url(#mask-32)"/></g><g id="Group-51" transform="translate(1 1)"><mask id="mask-34" fill="#fff"><use xlink:href="#path-33"/></mask><path d="M520.136 518.869c125.163-125.164 125.163-328.093 0-453.256C394.973-59.55 192.043-59.55 66.88 65.613c-125.163 125.163-125.163 328.092 0 453.256 125.163 125.163 328.093 125.163 453.256 0z" id="Stroke-49" stroke="#FFF" stroke-width="2" mask="url(#mask-34)"/></g><g id="Group-54"><mask id="mask-36" fill="#fff"><use xlink:href="#path-35"/></mask><path d="M536.692 535.425c133.755-133.755 133.755-350.614 0-484.368-133.754-133.755-350.614-133.755-484.368 0-133.755 133.754-133.755 350.613 0 484.368 133.754 133.754 350.614 133.754 484.368 0z" id="Stroke-52" stroke="#FFF" stroke-width="2" mask="url(#mask-36)"/></g><g id="Group-57"><mask id="mask-38" fill="#fff"><use xlink:href="#path-37"/></mask><path d="M550.127 548.86c141.175-141.175 141.175-370.064 0-511.238-141.174-141.175-370.064-141.175-511.238 0-141.175 141.174-141.175 370.063 0 511.238 141.174 141.174 370.064 141.174 511.238 0z" id="Stroke-55" stroke="#FFF" stroke-width="2" mask="url(#mask-38)"/></g><g id="Group-60"><mask id="mask-40" fill="#fff"><use xlink:href="#path-39"/></mask><path d="M564.623 564.063c149.57-149.571 149.57-392.073 0-541.644-149.571-149.57-392.073-149.57-541.644 0-149.57 149.57-149.57 392.073 0 541.644 149.57 149.57 392.073 149.57 541.644 0z" id="Stroke-58" stroke="#FFF" stroke-width="2" mask="url(#mask-40)"/></g></g></g></g></g></svg>