<svg width="104" height="106" fill="none" xmlns="http://www.w3.org/2000/svg"><g filter="url(#filter0_d)"><path d="M50.173 83.346h0l1.952.455.015.004.015-.004 1.95-.456-.014-.063.015.063C64.133 81 72.178 75.951 78.014 68.34c4.516-5.885 7.591-13.19 9.154-21.723 2.523-13.788.225-26.332.125-26.862l-.95-5.058-.007-.039-.038-.011-4.95-1.495-.02.062.02-.062c-12.82-3.866-28.386-4.204-29.043-4.217v0h0-.355c-.936.023-16.322.392-29.016 4.218h0l-4.95 1.495-.038.011-.007.039-.948 5.058s0 0 0 0c-.106.535-2.403 13.077.125 26.862 1.563 8.534 4.641 15.85 9.148 21.723 5.835 7.612 13.876 12.66 23.908 15.005z" fill="#D9DADD" stroke="#22227A" stroke-width=".13"/><path d="M87.23 19.768l-.951-5.058-4.95-1.495C68.519 9.355 52.96 9.016 52.304 9h-.164v74.738l1.95-.456c10.018-2.343 18.045-7.383 23.871-14.981 4.508-5.87 7.576-13.17 9.142-21.695 2.522-13.776.225-26.31.126-26.838z" fill="#EFEEF3"/><path d="M78.858 21.324C67.03 17.758 52.14 17.47 52.14 17.47s-14.89.288-26.718 3.854c0 0-8.542 45.466 26.718 53.713 35.26-8.249 26.718-53.713 26.718-53.713z" fill="#22227A"/><path d="M52.14 17.47s14.89.286 26.718 3.852c0 0 8.542 45.465-26.718 53.713V17.47z" fill="#222296"/><path d="M31.984 23.792v10.68h5.77v2.172h-8.217V23.792h2.447zm14.562 0l4.458 12.852H38.89l4.441-12.852h3.216zm1.223 10.752l-1.327-4.054c-.053-.181-.105-.29-.125-.344l-.665-2.028c-.315-.96-.576-1.81-.77-2.516-.278 1.086-.786 2.734-1.52 4.924l-1.328 4.018h5.735zm12.813 2.1l-2.972-4.76h-2.288v4.76h-2.448V23.792h5.874c2.36 0 4.09 1.665 4.09 4.054 0 1.884-1.03 3.314-2.692 3.838l3.164 4.96h-2.728zm-5.26-6.86h2.99c1.31 0 2.114-.706 2.114-1.938s-.804-1.954-2.115-1.954h-2.989v3.891zm17.83-2.517c-.716-.615-1.31-1.031-1.818-1.245a4.405 4.405 0 00-1.766-.327c-1.377 0-2.272.652-2.272 1.575 0 .652.42.996 1.189 1.268.385.125.997.288 1.836.488 3.18.815 4.353 1.538 4.422 3.747 0 2.444-1.905 4.181-4.912 4.181a7.433 7.433 0 01-2.88-.524c-.822-.363-1.696-.979-2.622-1.847l1.464-1.791c.821.747 1.521 1.266 2.097 1.538a4.632 4.632 0 001.994.416c1.45 0 2.43-.67 2.43-1.774 0-.67-.438-1.05-1.085-1.267-.48-.165-.97-.298-1.468-.398l-.595-.145c-3.32-.833-4.283-1.773-4.283-3.819 0-2.155 1.924-3.838 4.738-3.838 1.014 0 1.888.145 2.622.453.734.307 1.522.814 2.343 1.538l-1.434 1.771zm-41.39 16.391h-.41v-2.177h-1.145v2.177H29.8v-2.534h1.962v2.534zm2.406-2.324a.85.85 0 010 1.142.802.802 0 01-.584.208h-.712v.974h-.407v-2.534h1.12a.812.812 0 01.583.21zm-1.296.997h.647c.287 0 .462-.155.462-.429s-.172-.432-.462-.432h-.647v.86zm3.136 1.385c-.728 0-1.189-.565-1.189-1.324 0-.76.461-1.326 1.189-1.326.727 0 1.193.572 1.186 1.326-.008.753-.462 1.334-1.186 1.324zm0-.374c.466 0 .769-.386.769-.953s-.303-.954-.77-.954c-.465 0-.77.386-.77.954s.309.955.77.955v-.002zm4.298-2.218v2.534h-.396v-1.275c0-.218 0-.532.014-.946l-.166.532-.131.414-.41 1.278h-.359l-.417-1.278a7.529 7.529 0 00-.103-.318l-.193-.606v2.202h-.39v-2.537h.646l.348 1.07c.125.374.22.69.285.936.067-.239.16-.553.284-.935l.344-1.071h.644zm2.72 0v2.534h-.397v-.996c0-.402.007-.747.025-1.053-.11.207-.293.525-.553.957l-.654 1.092h-.438v-2.534h.396v1.029c0 .43-.007.767-.02 1.01.165-.312.337-.612.517-.903l.679-1.136h.445zm2.429.604c-.25-.226-.434-.293-.659-.293-.482 0-.785.385-.785.953s.31.96.772.96c.12.003.24-.024.348-.08.13-.074.25-.163.36-.266l.243.285c-.313.303-.576.429-.944.429-.734 0-1.196-.56-1.196-1.328 0-.767.45-1.322 1.206-1.322a1.24 1.24 0 01.893.374l-.238.288zm.614 1.567a.866.866 0 00.169.017c.175 0 .244-.124.261-.332.01-.108.018-.268.022-.485l.006-1.37h1.713v2.535h-.407v-2.18h-.923l-.007 1.085c-.01.764-.1 1.102-.618 1.121a.88.88 0 01-.261-.036l.045-.356zm3.929.421c-.727 0-1.19-.565-1.19-1.324 0-.76.463-1.326 1.19-1.326.728 0 1.192.57 1.192 1.326 0 .756-.468 1.334-1.191 1.324zm0-.374c.465 0 .768-.386.768-.953s-.303-.954-.767-.954c-.465 0-.773.386-.773.954s.31.955.773.955v-.002zm2.945.316h-1.186v-2.534h1.127c.43 0 .726.235.726.65a.556.556 0 01-.382.553.612.612 0 01.468.623c-.002.43-.3.708-.753.708zm-.78-1.488h.627c.265 0 .424-.14.424-.374 0-.234-.149-.346-.424-.346h-.626v.72zm1.128.747c0-.249-.18-.415-.486-.415h-.641v.825h.637c.313-.001.485-.154.485-.41h.005zm2.619.741l-.193-.571h-1.08l-.192.571h-.414l.883-2.534h.533l.877 2.534h-.415zm-.311-.92l-.104-.312-.08-.239a12.14 12.14 0 01-.237-.747c-.048.168-.144.468-.293.903l-.028.082-.102.308.844.005zm2.102-1.614h1.706v.357h-1.302v.643h.66a.812.812 0 01.583.207.814.814 0 010 1.12.816.816 0 01-.582.207H57.7v-2.534zm1.47 1.767c0-.271-.177-.418-.467-.418h-.596v.835h.595c.287 0 .463-.145.463-.417h.004zm2.618-1.767v.357h-1.272v.693h1.192v.352h-1.186v.775h1.307v.357h-1.72v-2.534h1.679zm1.489 2.592a1.396 1.396 0 01-1.024-.421l.237-.29c.26.232.476.343.79.343.355 0 .583-.154.583-.443 0-.232-.17-.374-.525-.374h-.472v-.347h.459c.31 0 .465-.125.465-.368 0-.228-.2-.381-.507-.381a.988.988 0 00-.716.299l-.242-.29a1.308 1.308 0 01.952-.373c.565 0 .913.276.913.718a.56.56 0 01-.368.55.599.599 0 01.448.59c0 .475-.393.787-.993.787zm3.54-.058h-.41v-2.177h-1.145v2.177h-.407v-2.534h1.962v2.534zm2.381-2.534v.357h-1.271v.693h1.186v.352h-1.186v.775h1.306v.357H67.52v-2.534h1.678zm2.226 2.534l-.782-1.145h-.406v1.145h-.407v-2.534h.407v1.031h.41l.745-1.031h.46l-.876 1.195.918 1.34h-.469zm2.63 0l-.193-.571h-1.078l-.19.571h-.413l.882-2.534h.534l.885 2.534h-.427zm-.31-.92l-.103-.312-.079-.239a11.287 11.287 0 01-.238-.747c-.049.168-.145.468-.293.903l-.028.082-.103.308.844.005zM38.26 48.86c-.727 0-1.189-.563-1.189-1.324 0-.761.462-1.324 1.19-1.324.727 0 1.192.57 1.186 1.324-.007.754-.463 1.334-1.186 1.324zm0-.373c.465 0 .77-.385.77-.953s-.305-.953-.77-.953c-.464 0-.772.386-.772.953 0 .566.31.953.773.953zm3.662.315h-.458l-.669-1.035-.675 1.035h-.452l.877-1.342-.797-1.192h.463l.586.896.582-.896h.455l-.8 1.196.888 1.338zm1.405.058c-.727 0-1.19-.563-1.19-1.324 0-.761.463-1.324 1.19-1.324.728 0 1.193.57 1.185 1.324-.007.754-.46 1.334-1.185 1.324zm0-.373c.465 0 .768-.385.768-.953s-.303-.953-.768-.953c-.464 0-.772.386-.772.953 0 .566.31.953.772.953zm3.457-2.009a.851.851 0 010 1.143.799.799 0 01-.583.207h-.713v.974h-.406v-2.534h1.12a.803.803 0 01.582.21zm-1.296.997h.648c.286 0 .462-.153.462-.428 0-.276-.167-.429-.462-.429h-.648v.857zm3.137 1.385c-.728 0-1.19-.563-1.19-1.324 0-.761.462-1.324 1.19-1.324.727 0 1.192.57 1.186 1.324-.007.754-.462 1.334-1.186 1.324zm0-.373c.464 0 .769-.385.769-.953s-.305-.953-.77-.953c-.464 0-.772.386-.772.953 0 .566.31.953.773.953zm3.763-2.219v2.534h-.41v-1.145h-1.192v1.145h-.407v-2.534h.407v1.031h1.192v-1.031h.41zm2.358 2.534l-.193-.565h-1.08l-.188.57h-.414l.877-2.533h.535l.876 2.534-.413-.006zm-.31-.92l-.103-.311-.08-.24a12.264 12.264 0 01-.238-.747 21.16 21.16 0 01-.294.903l-.027.083-.103.306.844.005zm4.059.92h-.41v-2.178h-1.144v2.178h-.407v-2.534h1.961v2.534zm2.406-2.323a.847.847 0 010 1.142.796.796 0 01-.582.207h-.714v.974h-.4v-2.534h1.119a.8.8 0 01.577.21zm-1.296.996h.649c.285 0 .462-.153.462-.428 0-.276-.173-.431-.462-.431h-.65v.86zm3.513 1.327l-.193-.565h-1.08l-.189.57h-.413l.877-2.533h.534l.883 2.534-.42-.006zm-.31-.92l-.104-.311-.078-.24a11.52 11.52 0 01-.238-.747c-.05.167-.146.467-.294.903l-.027.083-.104.306.844.005zm1.216-1.614h.407v2.177h1.127v-2.177h.409v2.177h.296v.886h-.397v-.53h-1.842v-2.533zm3.223 0v2.534h-.404v-2.534h.404z" fill="#fff"/><path d="M59.8 63.537a2.724 2.724 0 01-1.055-2.182 2.712 2.712 0 011.11-2.156.641.641 0 00.217-.73A8.352 8.352 0 0058.681 56a.646.646 0 00-.74-.197 2.756 2.756 0 01-2.422-.185 2.735 2.735 0 01-1.324-2.024.643.643 0 00-.526-.552 8.438 8.438 0 00-2.848-.036.644.644 0 00-.54.539 2.72 2.72 0 01-1.375 1.992 2.753 2.753 0 01-2.425.126.646.646 0 00-.74.173 8.32 8.32 0 00-1.458 2.431.637.637 0 00.2.738 2.733 2.733 0 011.046 2.18 2.717 2.717 0 01-1.105 2.153.64.64 0 00-.216.73c.32.896.79 1.73 1.391 2.469a.645.645 0 00.74.197 2.753 2.753 0 012.423.187 2.731 2.731 0 011.32 2.03.642.642 0 00.526.552c.94.173 1.904.185 2.848.036a.646.646 0 00.54-.538 2.717 2.717 0 011.373-1.993 2.754 2.754 0 012.426-.125.647.647 0 00.743-.177 8.347 8.347 0 001.46-2.431.643.643 0 00-.198-.738zm-7.693 1.191a3.488 3.488 0 01-1.925-.6 3.46 3.46 0 01-1.266-1.563 3.44 3.44 0 01.788-3.76 3.482 3.482 0 013.794-.714 3.47 3.47 0 011.548 1.287 3.443 3.443 0 01-.473 4.36 3.487 3.487 0 01-2.466.99z" fill="#DFE1E6"/><path d="M59.8 63.539a2.727 2.727 0 01-1.052-2.181 2.714 2.714 0 011.107-2.154.639.639 0 00.217-.729 8.315 8.315 0 00-1.391-2.47.647.647 0 00-.74-.196 2.755 2.755 0 01-3.323-1.047 2.719 2.719 0 01-.423-1.169.64.64 0 00-.526-.551 8.333 8.333 0 00-1.451-.14h-.082v4.914h.033a3.485 3.485 0 012.452 1.024 3.447 3.447 0 01-.023 4.888 3.485 3.485 0 01-2.462 1.002v4.913a8.642 8.642 0 001.32-.105.643.643 0 00.54-.538 2.718 2.718 0 011.373-1.993 2.752 2.752 0 012.426-.125.646.646 0 00.743-.177 8.304 8.304 0 001.46-2.431.64.64 0 00-.198-.735z" fill="#fff"/></g><defs><filter id="filter0_d" x=".87" y=".87" width="102.541" height="105.001" filterUnits="userSpaceOnUse" color-interpolation-filters="sRGB"><feFlood flood-opacity="0" result="BackgroundImageFix"/><feColorMatrix in="SourceAlpha" values="0 0 0 0 0 0 0 0 0 0 0 0 0 0 0 0 0 0 127 0"/><feOffset dy="7"/><feGaussianBlur stdDeviation="7.5"/><feColorMatrix values="0 0 0 0 0.133333 0 0 0 0 0.133333 0 0 0 0 0.588235 0 0 0 0.25 0"/><feBlend in2="BackgroundImageFix" result="effect1_dropShadow"/><feBlend in="SourceGraphic" in2="effect1_dropShadow" result="shape"/></filter></defs></svg>