<svg width="147" height="150" fill="none" xmlns="http://www.w3.org/2000/svg"><g filter="url(#filter0_d)"><path d="M70.68 117.908h0l2.781.648.022.005.02-.005 2.78-.649-.021-.09.02.09c14.284-3.343 25.746-10.533 34.059-21.375 6.432-8.384 10.813-18.79 13.04-30.945 3.594-19.642.32-37.512.178-38.266l-1.354-7.206-.01-.055-.054-.016-7.052-2.13-.026.089.026-.089c-18.261-5.506-40.436-5.989-41.371-6.006v0h-.505c-1.334.032-23.251.558-41.334 6.008h0l-7.052 2.13-.054.016-.01.055-1.35 7.205s0 0 0 0c-.15.762-3.422 18.628.178 38.267 2.227 12.156 6.611 22.577 13.032 30.944 8.312 10.843 19.767 18.033 34.057 21.375z" fill="#D9DADD" stroke="#22227A" stroke-width=".185"/><path d="M123.468 27.34l-1.354-7.206-7.052-2.13C96.814 12.507 74.65 12.025 73.716 12h-.234v106.466l2.778-.649c14.271-3.338 25.706-10.518 34.005-21.342 6.422-8.362 10.793-18.76 13.023-30.905 3.593-19.623.321-37.48.18-38.23z" fill="#EFEEF3"/><path d="M111.542 29.556c-16.85-5.08-38.06-5.49-38.06-5.49s-21.211.41-38.06 5.49c0 0-12.169 64.767 38.06 76.516 50.229-11.75 38.06-76.516 38.06-76.516z" fill="#22227A"/><path d="M73.482 24.066s21.211.407 38.06 5.487c0 0 12.169 64.767-38.06 76.515V24.066z" fill="#222296"/><path d="M44.77 33.072v15.213h8.219v3.095H41.284V33.071h3.486zm20.743 0l6.351 18.308H54.606l6.326-18.309h4.581zm1.743 15.316l-1.89-5.775c-.076-.258-.15-.412-.18-.49l-.947-2.889a77.342 77.342 0 01-1.095-3.584c-.398 1.547-1.12 3.895-2.166 7.014l-1.892 5.724h8.17zm18.251 2.992l-4.233-6.782h-3.26v6.782h-3.487V33.071h8.368c3.361 0 5.827 2.373 5.827 5.776 0 2.683-1.468 4.72-3.836 5.467l4.508 7.066h-3.887zm-7.493-9.773h4.259c1.868 0 3.013-1.005 3.013-2.76s-1.145-2.784-3.013-2.784h-4.258v5.544zm25.401-3.585c-1.021-.877-1.868-1.47-2.591-1.774a6.27 6.27 0 00-2.515-.465c-1.962 0-3.236.928-3.236 2.243 0 .93.598 1.42 1.693 1.806.548.179 1.42.41 2.615.696 4.531 1.16 6.201 2.191 6.299 5.337 0 3.482-2.713 5.957-6.996 5.957a10.6 10.6 0 01-4.103-.747c-1.17-.517-2.416-1.394-3.736-2.632l2.085-2.551c1.17 1.064 2.168 1.804 2.988 2.191a6.6 6.6 0 002.84.593c2.066 0 3.461-.955 3.461-2.527 0-.955-.622-1.496-1.545-1.805a16.37 16.37 0 00-2.09-.567l-.848-.206c-4.73-1.187-6.1-2.527-6.1-5.44 0-3.07 2.74-5.468 6.748-5.468 1.445 0 2.69.206 3.735.645 1.046.438 2.168 1.16 3.338 2.19l-2.042 2.524zm-58.961 23.35h-.585V58.27h-1.63v3.102h-.58V57.76h2.795v3.61zm3.427-3.312a1.212 1.212 0 010 1.628 1.141 1.141 0 01-.831.296h-1.015v1.388h-.58v-3.611h1.595a1.158 1.158 0 01.831.3zm-1.846 1.42h.922c.409 0 .658-.22.658-.61s-.246-.616-.658-.616h-.922v1.226zm4.466 1.973c-1.036 0-1.693-.803-1.693-1.886 0-1.082.657-1.888 1.693-1.888 1.037 0 1.7.815 1.69 1.888-.011 1.074-.659 1.9-1.69 1.886zm0-.532c.664 0 1.096-.55 1.096-1.357 0-.808-.432-1.36-1.096-1.36-.663 0-1.099.55-1.099 1.36 0 .809.441 1.36 1.1 1.36v-.003zm6.122-3.16v3.611h-.564v-1.817c0-.31 0-.758.02-1.347l-.236.758-.187.589-.583 1.82h-.512l-.594-1.82a10.99 10.99 0 00-.147-.453l-.275-.864v3.138h-.554V57.76h.919l.495 1.526c.179.532.314.981.407 1.333.095-.341.227-.788.403-1.333l.49-1.526h.918zm3.875 0v3.61h-.565v-1.419c0-.573.01-1.064.035-1.499-.157.295-.417.747-.786 1.363l-.933 1.556h-.623V57.76h.564v1.466c0 .614-.01 1.093-.029 1.439.236-.444.48-.871.737-1.287l.967-1.618h.633zm3.461.86c-.357-.32-.62-.416-.939-.416-.686 0-1.118.548-1.118 1.357 0 .809.442 1.368 1.099 1.368a1.03 1.03 0 00.496-.114c.185-.105.357-.233.512-.38l.348.407c-.446.431-.821.61-1.346.61-1.045 0-1.703-.798-1.703-1.891s.642-1.883 1.718-1.883a1.766 1.766 0 011.272.533l-.34.41zm.874 2.233c.08.016.16.024.241.025.25 0 .348-.178.373-.474a9.81 9.81 0 00.03-.69l.01-1.952h2.44v3.61h-.58V58.27h-1.315l-.01 1.546c-.015 1.087-.143 1.57-.88 1.597a1.255 1.255 0 01-.373-.052l.064-.507zm5.599.599c-1.036 0-1.695-.803-1.695-1.886 0-1.082.659-1.888 1.695-1.888 1.037 0 1.697.811 1.697 1.888s-.666 1.9-1.697 1.886zm0-.532c.662 0 1.094-.55 1.094-1.357 0-.808-.432-1.36-1.094-1.36-.662 0-1.1.55-1.1 1.36 0 .809.442 1.36 1.1 1.36v-.003zm4.193.451h-1.69V57.76h1.606c.614 0 1.035.335 1.035.926a.791.791 0 01-.544.788.872.872 0 01.667.887c-.003.612-.428 1.01-1.074 1.01zm-1.11-2.12h.892c.379 0 .605-.2.605-.533s-.212-.493-.605-.493h-.891v1.026zm1.606 1.064c0-.355-.255-.59-.692-.59h-.913V60.9h.908c.446-.002.69-.22.69-.586l.007.002zm3.731 1.056l-.275-.815h-1.538l-.273.815h-.59l1.257-3.611h.76l1.249 3.61h-.59zm-.443-1.311l-.148-.444-.112-.34a17.23 17.23 0 01-.34-1.065c-.067.24-.204.667-.417 1.286l-.04.117-.145.438 1.202.008zm2.995-2.3h2.43v.51h-1.855v.915h.942a1.155 1.155 0 01.83.294 1.159 1.159 0 010 1.597 1.162 1.162 0 01-.83.295h-1.517v-3.611zm2.093 2.518c0-.387-.252-.596-.664-.596h-.849v1.19h.847c.409 0 .66-.207.66-.594h.006zm3.73-2.518v.51h-1.812v.986h1.698v.502h-1.69v1.104h1.863v.509h-2.45V57.76h2.391zm2.121 3.693a1.99 1.99 0 01-1.46-.6l.34-.414c.369.332.678.49 1.125.49.505 0 .83-.22.83-.632 0-.33-.241-.532-.748-.532h-.672v-.495h.653c.442 0 .663-.177.663-.523 0-.325-.285-.543-.722-.543a1.407 1.407 0 00-1.02.425l-.345-.411a1.86 1.86 0 011.356-.533c.805 0 1.3.393 1.3 1.023a.799.799 0 01-.524.784.853.853 0 01.639.84c0 .677-.56 1.12-1.415 1.12zm5.044-.082h-.585V58.27h-1.631v3.102h-.58V57.76h2.796v3.61zm3.39-3.611v.51h-1.81v.986h1.689v.502h-1.69v1.104h1.861v.509h-2.44V57.76h2.39zm3.172 3.611l-1.115-1.633h-.578v1.633h-.58V57.76h.58v1.47h.584l1.061-1.47h.656l-1.248 1.703 1.307 1.908h-.667zm3.747 0l-.275-.815h-1.536l-.271.815h-.589l1.258-3.611h.76l1.261 3.61h-.608zm-.443-1.311l-.146-.444-.112-.34a15.414 15.414 0 01-.339-1.065c-.07.24-.207.667-.418 1.286l-.039.117-.148.438 1.202.008zM53.71 68.782c-1.036 0-1.694-.802-1.694-1.886 0-1.084.658-1.886 1.695-1.886 1.036 0 1.698.812 1.69 1.886-.01 1.073-.659 1.9-1.69 1.886zm0-.532c.663 0 1.096-.549 1.096-1.358s-.433-1.357-1.095-1.357c-.662 0-1.1.55-1.1 1.357 0 .808.442 1.358 1.1 1.358zm5.218.448h-.653l-.953-1.474-.961 1.474h-.644l1.248-1.91-1.134-1.699h.658l.835 1.276.83-1.276h.647l-1.14 1.704 1.267 1.905zm2 .084c-1.036 0-1.694-.802-1.694-1.886 0-1.084.658-1.886 1.694-1.886 1.037 0 1.699.812 1.688 1.886-.01 1.073-.657 1.9-1.688 1.886zm0-.532c.662 0 1.094-.549 1.094-1.358s-.432-1.357-1.094-1.357c-.661 0-1.1.55-1.1 1.357 0 .808.442 1.358 1.1 1.358zm4.924-2.86a1.212 1.212 0 010 1.626 1.139 1.139 0 01-.83.295h-1.016v1.387h-.578V65.09h1.595a1.143 1.143 0 01.83.3zm-1.846 1.419h.924c.407 0 .658-.218.658-.61 0-.393-.239-.611-.658-.611h-.924v1.22zm4.468 1.973c-1.037 0-1.695-.802-1.695-1.886 0-1.084.658-1.886 1.695-1.886 1.036 0 1.698.812 1.69 1.886-.01 1.073-.66 1.9-1.69 1.886zm0-.532c.662 0 1.095-.549 1.095-1.358s-.433-1.357-1.095-1.357c-.662 0-1.1.55-1.1 1.357 0 .808.442 1.358 1.1 1.358zm5.362-3.16v3.608h-.584v-1.63h-1.698v1.63h-.58V65.09h.58v1.47h1.698v-1.47h.584zm3.358 3.608l-.275-.803h-1.537l-.27.812h-.588l1.248-3.609h.762l1.249 3.61-.589-.01zm-.442-1.31l-.146-.443-.115-.34a17.538 17.538 0 01-.339-1.065c-.067.238-.205.665-.417 1.286l-.04.118-.146.436 1.203.007zm5.784 1.31h-.584v-3.101h-1.63v3.102h-.58v-3.61h2.794v3.61zm3.426-3.308a1.207 1.207 0 010 1.626 1.134 1.134 0 01-.83.295h-1.016v1.387h-.57V65.09h1.594a1.142 1.142 0 01.822.3zm-1.846 1.419h.924c.407 0 .658-.219.658-.61 0-.393-.246-.615-.658-.615h-.924v1.225zm5.004 1.889l-.275-.803h-1.537l-.27.812h-.588l1.248-3.609h.762l1.258 3.61-.598-.01zm-.442-1.31l-.147-.443-.112-.34a16.37 16.37 0 01-.339-1.065c-.07.238-.207.665-.418 1.286l-.039.118-.148.436 1.203.007zm1.733-2.298h.58v3.101h1.606V65.09h.581v3.102h.423v1.262h-.565v-.755H90.41V65.09zm4.591 0v3.608h-.575V65.09h.575z" fill="#fff"/><path d="M84.394 89.69a3.861 3.861 0 01.078-6.18.913.913 0 00.31-1.04 11.897 11.897 0 00-1.982-3.517.921.921 0 00-1.055-.28 3.926 3.926 0 01-3.449-.264 3.897 3.897 0 01-1.887-2.884.915.915 0 00-.749-.786 12.015 12.015 0 00-4.056-.052.919.919 0 00-.771.769 3.873 3.873 0 01-.646 1.646c-.34.492-.788.9-1.311 1.191a3.923 3.923 0 01-3.456.18.922.922 0 00-1.052.246 11.855 11.855 0 00-2.078 3.463.907.907 0 00.283 1.05 3.891 3.891 0 011.492 3.108 3.871 3.871 0 01-1.574 3.066.912.912 0 00-.308 1.04 11.897 11.897 0 001.982 3.517.92.92 0 001.054.28 3.92 3.92 0 013.451.267 3.869 3.869 0 011.88 2.891.914.914 0 00.75.787c1.34.247 2.712.264 4.057.051a.92.92 0 00.769-.766 3.877 3.877 0 01.645-1.647 3.921 3.921 0 014.767-1.37.922.922 0 001.058-.252 11.89 11.89 0 002.08-3.463.915.915 0 00-.282-1.05zm-10.958 1.696a4.97 4.97 0 01-2.743-.854 4.93 4.93 0 01-1.803-2.227 4.9 4.9 0 011.122-5.356 4.975 4.975 0 015.405-1.018 4.944 4.944 0 012.205 1.834 4.904 4.904 0 01-.674 6.21 4.966 4.966 0 01-3.512 1.411z" fill="#DFE1E6"/><path d="M84.394 89.692a3.883 3.883 0 01-1.498-3.107 3.863 3.863 0 011.577-3.068.909.909 0 00.309-1.038A11.844 11.844 0 0082.8 78.96a.922.922 0 00-1.055-.278 3.925 3.925 0 01-3.452-.267 3.873 3.873 0 01-1.883-2.89.912.912 0 00-.75-.786 11.86 11.86 0 00-2.067-.199h-.116v7h.046c1.313.006 2.57.53 3.494 1.459a4.91 4.91 0 011.433 3.488 4.911 4.911 0 01-1.466 3.475 4.965 4.965 0 01-3.507 1.426v7c.63-.002 1.258-.052 1.88-.15a.917.917 0 00.769-.767 3.872 3.872 0 011.957-2.839 3.92 3.92 0 013.455-.178.922.922 0 001.058-.251 11.828 11.828 0 002.08-3.464.91.91 0 00-.282-1.047z" fill="#fff"/></g><defs><filter id="filter0_d" x=".447" y=".419" width="146.072" height="149.576" filterUnits="userSpaceOnUse" color-interpolation-filters="sRGB"><feFlood flood-opacity="0" result="BackgroundImageFix"/><feColorMatrix in="SourceAlpha" values="0 0 0 0 0 0 0 0 0 0 0 0 0 0 0 0 0 0 127 0"/><feOffset dy="9.972"/><feGaussianBlur stdDeviation="10.684"/><feColorMatrix values="0 0 0 0 0.0263889 0 0 0 0 0.0263889 0 0 0 0 0.166667 0 0 0 0.5 0"/><feBlend in2="BackgroundImageFix" result="effect1_dropShadow"/><feBlend in="SourceGraphic" in2="effect1_dropShadow" result="shape"/></filter></defs></svg>